{
.appVersion = "1346";
DisplayStrings = (
"",
"HOV/space n´eépk¨aä%#\012/twoinferior/threeinferior/ring ¸/alef-hb/qamatsqatan-hb/alefqamats-hb/dagesh-hb/hedagesh-hb/tbar/Pe-cy/Pedescender-cy",
"WE'VE/space REACHED\012CRITICAL/space MASS",
abcdefghijklmnopqrstuvwxyz,
"0123456789\012/zero.otlf/one.otlf/two.otlf/three.otlf/four.otlf/five.otlf/six.otlf/seven.otlf/eight.otlf/nine.otlf"
);
classes = (
{
code = "zero one two three four five six seven eight nine parenleft parenright";
name = standard;
},
{
code = "zerosuperior onesuperior twosuperior threesuperior foursuperior fivesuperior sixsuperior sevensuperior eightsuperior ninesuperior parenleftsuperior parenrightsuperior";
name = sups;
},
{
code = "zeroinferior oneinferior twoinferior threeinferior fourinferior fiveinferior sixinferior seveninferior eightinferior nineinferior parenleftinferior parenrightinferior";
name = subs;
},
{
code = "zero.numerator one.numerator two.numerator three.numerator four.numerator five.numerator six.numerator seven.numerator eight.numerator nine.numerator parenleft.numerator parenright.numerator";
name = numerator;
},
{
code = "zero.denominator one.denominator two.denominator three.denominator four.denominator five.denominator six.denominator seven.denominator eight.denominator nine.denominator parenleft.denominator parenright.denominator";
name = denominator;
},
{
code = "zero.otlf one.otlf two.otlf three.otlf four.otlf five.otlf six.otlf seven.otlf eight.otlf nine.otlf parenleft.otlf parenright.otlf";
name = tnum1;
},
{
code = "alef-hb bet-hb gimel-hb dalet-hb he-hb vav-hb zayin-hb het-hb tet-hb yod-hb finalkaf-hb kaf-hb lamed-hb finalmem-hb mem-hb finalnun-hb nun-hb samekh-hb ayin-hb finalpe-hb pe-hb finaltsadi-hb tsadi-hb qof-hb resh-hb shin-hb tav-hb ";
name = HebrewLetters;
}
);
copyright = "Copyright 2020, NaN, The Rubik Project Authors (https://github.com/googlefonts/rubik)";
customParameters = (
{
name = license;

glyphs = (
{
color = 1;
glyphname = A;
layers = (
{
anchors = (
{
name = bottom;
position = "{378, 0}";
},
{
name = ogonek;
position = "{679, 10}";
},
{
name = top;
position = "{378, 700}";
}
);
background = {
anchors = (
{
name = bottom;
position = "{378, 0}";
},
{
name = ogonek;
position = "{679, 10}";
},
{
name = top;
position = "{378, 700}";
}
);
paths = (
{
closed = 1;
nodes = (
"207 0 LINE SMOOTH",
"233 0 OFFCURVE",
"242 14 OFFCURVE",
"246 25 CURVE SMOOTH",
"270 91 LINE",
"485 91 LINE",
"509 25 LINE SMOOTH",
"513 14 OFFCURVE",
"522 0 OFFCURVE",
"548 0 CURVE SMOOTH",
"733 0 LINE SMOOTH",
"745 0 OFFCURVE",
"755 10 OFFCURVE",
"755 22 CURVE SMOOTH",
"755 24 OFFCURVE",
"755 26 OFFCURVE",
"754 29 CURVE SMOOTH",
"531 667 LINE",
"527 682 OFFCURVE",
"513 700 OFFCURVE",
"486 700 CURVE SMOOTH",
"269 700 LINE SMOOTH",
"242 700 OFFCURVE",
"228 682 OFFCURVE",
"224 667 CURVE",
"1 29 LINE SMOOTH",
"0 26 OFFCURVE",
"0 24 OFFCURVE",
"0 22 CURVE SMOOTH",
"0 10 OFFCURVE",
"10 0 OFFCURVE",
"22 0 CURVE SMOOTH"
);
},
{
closed = 1;
nodes = (
"377 472 LINE",
"434 286 LINE",
"321 286 LINE"
);
}
);
};
layerId = "EC64484B-0978-4CB1-9EE9-C40A2D8C4059";
paths = (
{
closed = 1;
nodes = (
"270.129 -4.622 OFFCURVE",
"320.037 86.378 OFFCURVE",
"256.908 121 CURVE",
"256.908 57 OFFCURVE",
"395.292 57 OFFCURVE",
"395.292 121 CURVE",
"382.095 60.421 OFFCURVE",
"502.237 34.247 OFFCURVE",
"515.435 94.826 CURVE",
"482.162 47.808 OFFCURVE",
"573.77 -17.018 OFFCURVE",
"607.043 30 CURVE",
"604.439 -48.957 OFFCURVE",
"723.482 -52.882 OFFCURVE",
"726.086 26.075 CURVE",
"789.376 50.942 OFFCURVE",
"765.573 111.526 OFFCURVE",
"702.282 86.659 CURVE",
"769.285 110.146 OFFCURVE",
"745.567 177.805 OFFCURVE",
"678.565 154.318 CURVE",
"741.792 176.482 OFFCURVE",
"700.945 293.006 OFFCURVE",
"637.718 270.841 CURVE",
"703.776 293.998 OFFCURVE",
"684.012 350.38 OFFCURVE",
"617.953 327.224 CURVE",
"687.787 351.704 OFFCURVE",
"652.21 453.192 OFFCURVE",
"582.376 428.712 CURVE",
"649.379 452.199 OFFCURVE",
"599.308 595.035 OFFCURVE",
"532.306 571.547 CURVE",
"591.759 592.388 OFFCURVE",
"578.582 629.976 OFFCURVE",
"519.129 609.135 CURVE",
"591.794 634.608 OFFCURVE",
"575.982 679.714 OFFCURVE",
"503.318 654.241 CURVE",
"512.842 719.55 OFFCURVE",
"404.779 735.309 OFFCURVE",
"395.255 670 CURVE",
"394.43 738.995 OFFCURVE",
"259.586 737.383 OFFCURVE",
"260.411 668.388 CURVE",
"192.967 696.321 OFFCURVE",
"168.426 637.069 OFFCURVE",
"235.871 609.135 CURVE",
"171.699 631.63 OFFCURVE",
"129.534 511.348 OFFCURVE",
"193.706 488.853 CURVE",
"127.647 512.01 OFFCURVE",
"84.165 387.969 OFFCURVE",
"150.224 364.812 CURVE",
"76.615 390.615 OFFCURVE",
"48.945 311.68 OFFCURVE",
"122.553 285.876 CURVE",
"54.607 309.695 OFFCURVE",
"24.301 223.242 OFFCURVE",
"92.247 199.424 CURVE",
"26.188 222.58 OFFCURVE",
"5.106 162.439 OFFCURVE",
"71.165 139.282 CURVE",
"6.993 161.777 OFFCURVE",
"-23.313 75.325 OFFCURVE",
"40.859 52.829 CURVE",
"22.822 -6.907 OFFCURVE",
"98.431 -29.736 OFFCURVE",
"116.468 30 CURVE",
"116.468 -49 OFFCURVE",
"195.191 -49 OFFCURVE",
"195.191 30 CURVE"
);
},
{
closed = 1;
nodes = (
"335.585 429.989 OFFCURVE",
"398.263 414.735 OFFCURVE",
"410.678 465.746 CURVE",
"374.271 454.581 OFFCURVE",
"387.136 412.632 OFFCURVE",
"423.542 423.797 CURVE",
"391.419 413.945 OFFCURVE",
"418.317 326.234 OFFCURVE",
"450.441 336.085 CURVE",
"410.822 323.935 OFFCURVE",
"429.534 262.918 OFFCURVE",
"469.153 275.068 CURVE",
"457.249 323.321 OFFCURVE",
"379.954 304.253 OFFCURVE",
"391.857 256 CURVE",
"391.857 298.7 OFFCURVE",
"364.143 298.7 OFFCURVE",
"364.143 256 CURVE",
"364.143 294.64 OFFCURVE",
"288.918 294.64 OFFCURVE",
"288.918 256 CURVE",
"327.96 252.481 OFFCURVE",
"331.398 290.616 OFFCURVE",
"292.356 294.136 CURVE",
"327.779 283.587 OFFCURVE",
"340.27 325.537 OFFCURVE",
"304.847 336.085 CURVE",
"338.66 326.016 OFFCURVE",
"361.372 402.287 OFFCURVE",
"327.559 412.356 CURVE"
);
}
);
width = 755;
},
{
anchors = (
{
name = bottom;
position = "{378, 0}";
},
{
name = ogonek;
position = "{679, 10}";
},
{
name = top;
position = "{378, 700}";
}
);
associatedMasterId = "EC64484B-0978-4CB1-9EE9-C40A2D8C4059";
background = {
anchors = (
{
name = bottom;
position = "{378, 0}";
},
{
name = ogonek;
position = "{679, 10}";
},
{
name = top;
position = "{378, 700}";
}
);
paths = (
{
closed = 1;
nodes = (
"207 0 LINE SMOOTH",
"233 0 OFFCURVE",
"242 14 OFFCURVE",
"246 25 CURVE SMOOTH",
"270 91 LINE",
"485 91 LINE",
"509 25 LINE SMOOTH",
"513 14 OFFCURVE",
"522 0 OFFCURVE",
"548 0 CURVE SMOOTH",
"733 0 LINE SMOOTH",
"745 0 OFFCURVE",
"755 10 OFFCURVE",
"755 22 CURVE SMOOTH",
"755 24 OFFCURVE",
"755 26 OFFCURVE",
"754 29 CURVE SMOOTH",
"531 667 LINE",
"527 682 OFFCURVE",
"513 700 OFFCURVE",
"486 700 CURVE SMOOTH",
"269 700 LINE SMOOTH",
"242 700 OFFCURVE",
"228 682 OFFCURVE",
"224 667 CURVE",
"1 29 LINE SMOOTH",
"0 26 OFFCURVE",
"0 24 OFFCURVE",
"0 22 CURVE SMOOTH",
"0 10 OFFCURVE",
"10 0 OFFCURVE",
"22 0 CURVE SMOOTH"
);
},
{
closed = 1;
nodes = (
"377 472 LINE",
"434 286 LINE",
"321 286 LINE"
);
}
);
};
layerId = "1DECC8D2-EF0A-46A9-9FC3-574CE12203C1";
name = "Dec 6 20, 14:56";
paths = (
{
closed = 1;
nodes = (
"207 0 LINE SMOOTH",
"233 0 OFFCURVE",
"242 14 OFFCURVE",
"246 25 CURVE SMOOTH",
"270 91 LINE",
"485 91 LINE",
"509 25 LINE SMOOTH",
"513 14 OFFCURVE",
"522 0 OFFCURVE",
"548 0 CURVE SMOOTH",
"733 0 LINE SMOOTH",
"745 0 OFFCURVE",
"755 10 OFFCURVE",
"755 22 CURVE SMOOTH",
"755 24 OFFCURVE",
"755 26 OFFCURVE",
"754 29 CURVE SMOOTH",
"531 667 LINE",
"527 682 OFFCURVE",
"513 700 OFFCURVE",
"486 700 CURVE SMOOTH",
"269 700 LINE SMOOTH",
"242 700 OFFCURVE",
"228 682 OFFCURVE",
"224 667 CURVE",
"1 29 LINE SMOOTH",
"0 26 OFFCURVE",
"0 24 OFFCURVE",
"0 22 CURVE SMOOTH",
"0 10 OFFCURVE",
"10 0 OFFCURVE",
"22 0 CURVE SMOOTH"
);
},
{
closed = 1;
nodes = (
"377 472 LINE",
"434 286 LINE",
"321 286 LINE"
);
}
);
width = 755;
}
);
leftKerningGroup = A;
rightKerningGroup = A;
unicode = 0041;
userData = {
com.typemytype.robofont.guides = (
{
angle = 0;
isGlobal = 0;
magnetic = 5;
x = 0;
y = 680;
},
{
angle = 90;
isGlobal = 0;
magnetic = 5;
x = 35;
y = 0;
},
{
angle = 90;
isGlobal = 0;
magnetic = 5;
x = 637;
y = 0;
},
{
angle = 90;
isGlobal = 0;
magnetic = 5;
x = 336;
y = 0;
}
);
};
},
{
color = 1;
glyphname = Aogonek;
layers = (
{
background = {
paths = (
{
closed = 1;
nodes = (
"718 -220 LINE SMOOTH",
"733 -220 OFFCURVE",
"745 -208 OFFCURVE",
"745 -193 CURVE SMOOTH",
"745 -125 LINE SMOOTH",
"745 -110 OFFCURVE",
"733 -98 OFFCURVE",
"718 -98 CURVE SMOOTH",
"708 -98 LINE SMOOTH",
"669 -98 OFFCURVE",
"658 -70 OFFCURVE",
"658 -49 CURVE SMOOTH",
"658 -29 OFFCURVE",
"668 -2 OFFCURVE",
"702 0 CURVE",
"733 0 LINE SMOOTH",
"745 0 OFFCURVE",
"755 10 OFFCURVE",
"755 22 CURVE SMOOTH",
"755 24 OFFCURVE",
"755 26 OFFCURVE",
"754 29 CURVE SMOOTH",
"531 667 LINE",
"527 682 OFFCURVE",
"513 700 OFFCURVE",
"486 700 CURVE SMOOTH",
"269 700 LINE SMOOTH",
"242 700 OFFCURVE",
"228 682 OFFCURVE",
"224 667 CURVE",
"1 29 LINE SMOOTH",
"0 26 OFFCURVE",
"0 24 OFFCURVE",
"0 22 CURVE SMOOTH",
"0 10 OFFCURVE",
"10 0 OFFCURVE",
"22 0 CURVE SMOOTH",
"207 0 LINE SMOOTH",
"233 0 OFFCURVE",
"242 14 OFFCURVE",
"246 25 CURVE SMOOTH",
"270 91 LINE",
"485 91 LINE",
"509 25 LINE SMOOTH",
"512 15 OFFCURVE",
"519 3 OFFCURVE",
"537 0 CURVE",
"534 -15 OFFCURVE",
"532 -31 OFFCURVE",
"532 -49 CURVE SMOOTH",
"532 -144 OFFCURVE",
"583 -220 OFFCURVE",
"704 -220 CURVE SMOOTH"
);
},
{
closed = 1;
nodes = (
"377 472 LINE",
"434 286 LINE",
"321 286 LINE"
);
}
);
};
hints = (
{
horizontal = 1;
place = "{-2147483648, 0}";
type = Tag;
name = hr01;
}
);
layerId = "EC64484B-0978-4CB1-9EE9-C40A2D8C4059";
paths = (
{
closed = 1;
nodes = (
"782.131 -167.39 OFFCURVE",
"760.023 -104.68 OFFCURVE",
"695.891 -127.29 CURVE",
"740.976 -83.286 OFFCURVE",
"673.503 -14.156 OFFCURVE",
"628.419 -58.16 CURVE",
"691.309 -74.586 OFFCURVE",
"706.699 -15.659 OFFCURVE",
"643.809 0.767 CURVE",
"655.937 -53.904 OFFCURVE",
"738.128 -35.671 OFFCURVE",
"726 19 CURVE",
"784.509 39.51 OFFCURVE",
"735.756 178.587 OFFCURVE",
"677.247 158.076 CURVE",
"739.531 179.91 OFFCURVE",
"718.449 240.051 OFFCURVE",
"656.165 218.218 CURVE",
"728.829 243.69 OFFCURVE",
"689.3 356.455 OFFCURVE",
"616.635 330.982 CURVE",
"682.694 354.139 OFFCURVE",
"664.247 406.763 OFFCURVE",
"598.188 383.606 CURVE",
"670.853 409.078 OFFCURVE",
"644.5 484.255 OFFCURVE",
"571.835 458.782 CURVE",
"634.119 480.616 OFFCURVE",
"607.766 555.792 OFFCURVE",
"545.482 533.959 CURVE",
"617.203 559.1 OFFCURVE",
"597.439 615.483 OFFCURVE",
"525.718 590.341 CURVE",
"568.177 630.438 OFFCURVE",
"492.95 710.097 OFFCURVE",
"450.491 670 CURVE",
"450.491 732 OFFCURVE",
"328.182 732 OFFCURVE",
"328.182 670 CURVE",
"320.415 745.602 OFFCURVE",
"246.456 738.004 OFFCURVE",
"254.222 662.402 CURVE",
"183.341 686.916 OFFCURVE",
"159.719 618.614 OFFCURVE",
"230.6 594.1 CURVE",
"171.147 614.941 OFFCURVE",
"140.841 528.488 OFFCURVE",
"200.294 507.647 CURVE",
"128.573 532.789 OFFCURVE",
"86.408 412.506 OFFCURVE",
"158.129 387.365 CURVE",
"86.408 412.506 OFFCURVE",
"41.608 284.706 OFFCURVE",
"113.329 259.565 CURVE",
"51.989 281.067 OFFCURVE",
"38.813 243.479 OFFCURVE",
"100.153 221.976 CURVE",
"41.644 242.487 OFFCURVE",
"20.561 182.346 OFFCURVE",
"79.071 161.835 CURVE",
"8.293 186.646 OFFCURVE",
"-20.695 103.952 OFFCURVE",
"50.082 79.141 CURVE",
"8.794 53.128 OFFCURVE",
"39.754 3.987 OFFCURVE",
"81.043 30 CURVE",
"81.043 -47 OFFCURVE",
"183.383 -47 OFFCURVE",
"183.383 30 CURVE",
"233.334 -19.04 OFFCURVE",
"322.674 71.96 OFFCURVE",
"272.723 121 CURVE",
"272.723 52 OFFCURVE",
"407.154 52 OFFCURVE",
"407.154 121 CURVE",
"407.154 44 OFFCURVE",
"482.277 44 OFFCURVE",
"482.277 121 CURVE",
"430.962 84.451 OFFCURVE",
"480.019 15.576 OFFCURVE",
"531.333 52.125 CURVE",
"463.502 34.835 OFFCURVE",
"495.446 -90.483 OFFCURVE",
"563.277 -73.193 CURVE",
"511.707 -102.264 OFFCURVE",
"565.313 -197.358 OFFCURVE",
"616.884 -168.287 CURVE",
"593.841 -226.921 OFFCURVE",
"638.715 -244.556 OFFCURVE",
"661.757 -185.921 CURVE"
);
},
{
closed = 1;
nodes = (
"331.501 434.119 OFFCURVE",
"396.518 411.237 OFFCURVE",
"413.017 458.119 CURVE",
"375.004 446.461 OFFCURVE",
"390.208 396.885 OFFCURVE",
"428.22 408.542 CURVE",
"385.925 395.572 OFFCURVE",
"406.975 326.928 OFFCURVE",
"449.271 339.898 CURVE",
"408.046 327.256 OFFCURVE",
"416.233 300.561 OFFCURVE",
"457.458 313.203 CURVE",
"416.233 300.561 OFFCURVE",
"429.097 258.612 OFFCURVE",
"470.322 271.254 CURVE",
"461.196 315.83 OFFCURVE",
"386.69 300.575 OFFCURVE",
"395.816 256 CURVE",
"395.816 303.6 OFFCURVE",
"332.469 303.6 OFFCURVE",
"332.469 256 CURVE",
"356.006 280.757 OFFCURVE",
"315.893 318.893 OFFCURVE",
"292.356 294.136 CURVE",
"327.242 283.747 OFFCURVE",
"355.632 379.086 OFFCURVE",
"320.746 389.475 CURVE",
"359.926 377.808 OFFCURVE",
"367.875 404.503 OFFCURVE",
"328.695 416.169 CURVE"
);
}
);
width = 755;
},
{
associatedMasterId = "EC64484B-0978-4CB1-9EE9-C40A2D8C4059";
background = {
paths = (
{
closed = 1;
nodes = (
"718 -220 LINE SMOOTH",
"733 -220 OFFCURVE",
"745 -208 OFFCURVE",
"745 -193 CURVE SMOOTH",
"745 -125 LINE SMOOTH",
"745 -110 OFFCURVE",
"733 -98 OFFCURVE",
"718 -98 CURVE SMOOTH",
"708 -98 LINE SMOOTH",
"669 -98 OFFCURVE",
"658 -70 OFFCURVE",
"658 -49 CURVE SMOOTH",
"658 -29 OFFCURVE",
"668 -2 OFFCURVE",
"702 0 CURVE",
"733 0 LINE SMOOTH",
"745 0 OFFCURVE",
"755 10 OFFCURVE",
"755 22 CURVE SMOOTH",
"755 24 OFFCURVE",
"755 26 OFFCURVE",
"754 29 CURVE SMOOTH",
"531 667 LINE",
"527 682 OFFCURVE",
"513 700 OFFCURVE",
"486 700 CURVE SMOOTH",
"269 700 LINE SMOOTH",
"242 700 OFFCURVE",
"228 682 OFFCURVE",
"224 667 CURVE",
"1 29 LINE SMOOTH",
"0 26 OFFCURVE",
"0 24 OFFCURVE",
"0 22 CURVE SMOOTH",
"0 10 OFFCURVE",
"10 0 OFFCURVE",
"22 0 CURVE SMOOTH",
"207 0 LINE SMOOTH",
"233 0 OFFCURVE",
"242 14 OFFCURVE",
"246 25 CURVE SMOOTH",
"270 91 LINE",
"485 91 LINE",
"509 25 LINE SMOOTH",
"512 15 OFFCURVE",
"519 3 OFFCURVE",
"537 0 CURVE",
"534 -15 OFFCURVE",
"532 -31 OFFCURVE",
"532 -49 CURVE SMOOTH",
"532 -144 OFFCURVE",
"583 -220 OFFCURVE",
"704 -220 CURVE SMOOTH"
);
},
{
closed = 1;
nodes = (
"377 472 LINE",
"434 286 LINE",
"321 286 LINE"
);
}
);
};
hints = (
{
horizontal = 1;
place = "{-2147483648, 0}";
type = Tag;
name = hr01;
}
);
layerId = "38F067CF-3312-4E22-A004-F69D456C1EA8";
name = "Dec 6 20, 14:56";
paths = (
{
closed = 1;
nodes = (
"718 -220 LINE SMOOTH",
"733 -220 OFFCURVE",
"745 -208 OFFCURVE",
"745 -193 CURVE SMOOTH",
"745 -125 LINE SMOOTH",
"745 -110 OFFCURVE",
"733 -98 OFFCURVE",
"718 -98 CURVE SMOOTH",
"708 -98 LINE SMOOTH",
"669 -98 OFFCURVE",
"658 -70 OFFCURVE",
"658 -49 CURVE SMOOTH",
"658 -29 OFFCURVE",
"668 -2 OFFCURVE",
"702 0 CURVE",
"733 0 LINE SMOOTH",
"745 0 OFFCURVE",
"755 10 OFFCURVE",
"755 22 CURVE SMOOTH",
"755 24 OFFCURVE",
"755 26 OFFCURVE",
"754 29 CURVE SMOOTH",
"531 667 LINE",
"527 682 OFFCURVE",
"513 700 OFFCURVE",
"486 700 CURVE SMOOTH",
"269 700 LINE SMOOTH",
"242 700 OFFCURVE",
"228 682 OFFCURVE",
"224 667 CURVE",
"1 29 LINE SMOOTH",
"0 26 OFFCURVE",
"0 24 OFFCURVE",
"0 22 CURVE SMOOTH",
"0 10 OFFCURVE",
"10 0 OFFCURVE",
"22 0 CURVE SMOOTH",
"207 0 LINE SMOOTH",
"233 0 OFFCURVE",
"242 14 OFFCURVE",
"246 25 CURVE SMOOTH",
"270 91 LINE",
"485 91 LINE",
"509 25 LINE SMOOTH",
"512 15 OFFCURVE",
"519 3 OFFCURVE",
"537 0 CURVE",
"534 -15 OFFCURVE",
"532 -31 OFFCURVE",
"532 -49 CURVE SMOOTH",
"532 -144 OFFCURVE",
"583 -220 OFFCURVE",
"704 -220 CURVE SMOOTH"
);
},
{
closed = 1;
nodes = (
"377 472 LINE",
"434 286 LINE",
"321 286 LINE"
);
}
);
width = 755;
}
);
leftKerningGroup = A;
rightKerningGroup = A;
unicode = 0104;
},
{
color = 1;
glyphname = AE;
layers = (
{
anchors = (
{
name = bottom;
position = "{503, 0}";
},
{
name = top;
position = "{503, 700}";
}
);
background = {
anchors = (
{
name = bottom;
position = "{503, 0}";
},
{
name = top;
position = "{503, 700}";
}
);
paths = (
{
closed = 1;
nodes = (
"211 0 LINE SMOOTH",
"237 0 OFFCURVE",
"246 14 OFFCURVE",
"250 25 CURVE SMOOTH",
"258 47 OFFCURVE",
"266 69 OFFCURVE",
"274 91 CURVE",
"423 91 LINE",
"423 27 LINE SMOOTH",
"423 12 OFFCURVE",
"435 0 OFFCURVE",
"450 0 CURVE SMOOTH",
"941 0 LINE SMOOTH",
"956 0 OFFCURVE",
"968 12 OFFCURVE",
"968 27 CURVE SMOOTH",
"968 168 LINE SMOOTH",
"968 183 OFFCURVE",
"956 195 OFFCURVE",
"941 195 CURVE SMOOTH",
"663 195 LINE",
"663 258 LINE",
"911 258 LINE SMOOTH",
"926 258 OFFCURVE",
"938 270 OFFCURVE",
"938 285 CURVE SMOOTH",
"938 415 LINE SMOOTH",
"938 430 OFFCURVE",
"926 442 OFFCURVE",
"911 442 CURVE SMOOTH",
"663 442 LINE",
"663 505 LINE",
"933 505 LINE SMOOTH",
"948 505 OFFCURVE",
"960 517 OFFCURVE",
"960 532 CURVE SMOOTH",
"960 673 LINE SMOOTH",
"960 688 OFFCURVE",
"948 700 OFFCURVE",
"933 700 CURVE SMOOTH",
"273 700 LINE SMOOTH",
"246 700 OFFCURVE",
"232 682 OFFCURVE",
"228 667 CURVE",
"154 454 OFFCURVE",
"79 242 OFFCURVE",
"5 29 CURVE SMOOTH",
"4 26 OFFCURVE",
"4 24 OFFCURVE",
"4 22 CURVE SMOOTH",
"4 10 OFFCURVE",
"14 0 OFFCURVE",
"26 0 CURVE SMOOTH"
);
},
{
closed = 1;
nodes = (
"391 505 LINE",
"423 505 LINE",
"423 286 LINE",
"325 286 LINE"
);
}
);
};
layerId = "EC64484B-0978-4CB1-9EE9-C40A2D8C4059";
paths = (
{
closed = 1;
nodes = (
"281.28 -3.834 OFFCURVE",
"317.889 72.209 OFFCURVE",
"247.609 106.043 CURVE",
"256.61 30.578 OFFCURVE",
"382.001 45.535 OFFCURVE",
"373 121 CURVE",
"366.081 50.338 OFFCURVE",
"446.081 42.505 OFFCURVE",
"453 113.167 CURVE",
"403.292 76.785 OFFCURVE",
"464.161 -6.382 OFFCURVE",
"513.87 30 CURVE",
"513.87 -40 OFFCURVE",
"589.715 -40 OFFCURVE",
"589.715 30 CURVE",
"589.715 -32 OFFCURVE",
"657.577 -32 OFFCURVE",
"657.577 30 CURVE",
"657.577 -35 OFFCURVE",
"737.415 -35 OFFCURVE",
"737.415 30 CURVE",
"737.415 -49 OFFCURVE",
"837.211 -49 OFFCURVE",
"837.211 30 CURVE",
"837.211 -40 OFFCURVE",
"937.008 -40 OFFCURVE",
"937.008 30 CURVE",
"1002.006 29.473 OFFCURVE",
"1002.998 151.806 OFFCURVE",
"938 152.333 CURVE",
"949.742 227.421 OFFCURVE",
"868.742 240.087 OFFCURVE",
"857 165 CURVE",
"857 227.4 OFFCURVE",
"705 227.4 OFFCURVE",
"705 165 CURVE",
"739.419 217.049 OFFCURVE",
"667.419 264.662 OFFCURVE",
"633 212.613 CURVE",
"673.172 180.869 OFFCURVE",
"732.743 256.256 OFFCURVE",
"692.571 288 CURVE",
"692.571 239.2 OFFCURVE",
"772 239.2 OFFCURVE",
"772 288 CURVE",
"772 224.8 OFFCURVE",
"875.257 224.8 OFFCURVE",
"875.257 288 CURVE",
"918.697 265.765 OFFCURVE",
"951.44 329.735 OFFCURVE",
"908 351.97 CURVE",
"987 351.97 OFFCURVE",
"987 399.242 OFFCURVE",
"908 399.242 CURVE",
"921.023 456.992 OFFCURVE",
"864.452 469.75 OFFCURVE",
"851.429 412 CURVE",
"851.429 474.4 OFFCURVE",
"791.857 474.4 OFFCURVE",
"791.857 412 CURVE",
"791.857 464.8 OFFCURVE",
"684.629 464.8 OFFCURVE",
"684.629 412 CURVE",
"712.389 452.135 OFFCURVE",
"660.76 487.845 OFFCURVE",
"633 447.71 CURVE",
"684.637 424.048 OFFCURVE",
"724.637 511.338 OFFCURVE",
"673 535 CURVE",
"673 473.4 OFFCURVE",
"717 473.4 OFFCURVE",
"717 535 CURVE",
"717 479 OFFCURVE",
"793 479 OFFCURVE",
"793 535 CURVE",
"793 483 OFFCURVE",
"889 483 OFFCURVE",
"889 535 CURVE",
"929.118 500.673 OFFCURVE",
"970.118 548.589 OFFCURVE",
"930 582.917 CURVE",
"998 582.917 OFFCURVE",
"998 657.333 OFFCURVE",
"930 657.333 CURVE",
"946.504 726.389 OFFCURVE",
"893.504 739.055 OFFCURVE",
"877 670 CURVE",
"877 745 OFFCURVE",
"781 745 OFFCURVE",
"781 670 CURVE",
"781 739 OFFCURVE",
"637 739 OFFCURVE",
"637 670 CURVE",
"637 730 OFFCURVE",
"509 730 OFFCURVE",
"509 670 CURVE",
"509 738 OFFCURVE",
"397 738 OFFCURVE",
"397 670 CURVE",
"395.165 731.973 OFFCURVE",
"258.926 727.939 OFFCURVE",
"260.761 665.966 CURVE",
"194.824 689.467 OFFCURVE",
"143.477 545.399 OFFCURVE",
"209.414 521.899 CURVE",
"150.921 542.454 OFFCURVE",
"107.102 417.764 OFFCURVE",
"165.595 397.208 CURVE",
"102.327 419.259 OFFCURVE",
"71.054 329.53 OFFCURVE",
"134.321 307.479 CURVE",
"64.521 332.054 OFFCURVE",
"34.99 248.179 OFFCURVE",
"104.791 223.604 CURVE",
"41.612 245.907 OFFCURVE",
"24.12 196.359 OFFCURVE",
"87.299 174.056 CURVE",
"27.847 194.898 OFFCURVE",
"-21.629 53.769 OFFCURVE",
"37.823 32.927 CURVE",
"34.589 -41.003 OFFCURVE",
"101.489 -43.929 OFFCURVE",
"104.723 30 CURVE",
"104.723 -32 OFFCURVE",
"187.383 -32 OFFCURVE",
"187.383 30 CURVE"
);
},
{
closed = 1;
nodes = (
"369 489.5 OFFCURVE",
"449 489.5 OFFCURVE",
"449 535 CURVE",
"407.04 533.169 OFFCURVE",
"411.04 441.498 OFFCURVE",
"453 443.329 CURVE",
"414.92 443.329 OFFCURVE",
"414.92 347.671 OFFCURVE",
"453 347.671 CURVE",
"413.8 347.671 OFFCURVE",
"413.8 319.771 OFFCURVE",
"453 319.771 CURVE",
"408.76 319.771 OFFCURVE",
"408.76 275.929 OFFCURVE",
"453 275.929 CURVE",
"438.432 325.638 OFFCURVE",
"370.432 305.709 OFFCURVE",
"385 256 CURVE",
"385 309.2 OFFCURVE",
"353 309.2 OFFCURVE",
"353 256 CURVE",
"353 292.96 OFFCURVE",
"297 292.96 OFFCURVE",
"297 256 CURVE",
"339.659 262.291 OFFCURVE",
"335.713 289.044 OFFCURVE",
"293.055 282.753 CURVE",
"327.909 272.26 OFFCURVE",
"337.115 302.835 OFFCURVE",
"302.26 313.329 CURVE",
"334.434 303.642 OFFCURVE",
"347.091 345.683 OFFCURVE",
"314.918 355.37 CURVE",
"355.135 343.262 OFFCURVE",
"373.546 404.412 OFFCURVE",
"333.329 416.521 CURVE",
"369.256 405.704 OFFCURVE",
"383.064 451.567 OFFCURVE",
"347.137 462.384 CURVE",
"386.281 450.598 OFFCURVE",
"404.692 511.749 OFFCURVE",
"365.548 523.534 CURVE"
);
}
);
width = 1005;
},
{
anchors = (
{
name = bottom;
position = "{503, 0}";
},
{
name = top;
position = "{503, 700}";
}
);
associatedMasterId = "EC64484B-0978-4CB1-9EE9-C40A2D8C4059";
background = {
anchors = (
{
name = bottom;
position = "{503, 0}";
},
{
name = top;
position = "{503, 700}";
}
);
paths = (
{
closed = 1;
nodes = (
"211 0 LINE SMOOTH",
"237 0 OFFCURVE",
"246 14 OFFCURVE",
"250 25 CURVE SMOOTH",
"258 47 OFFCURVE",
"266 69 OFFCURVE",
"274 91 CURVE",
"423 91 LINE",
"423 27 LINE SMOOTH",
"423 12 OFFCURVE",
"435 0 OFFCURVE",
"450 0 CURVE SMOOTH",
"941 0 LINE SMOOTH",
"956 0 OFFCURVE",
"968 12 OFFCURVE",
"968 27 CURVE SMOOTH",
"968 168 LINE SMOOTH",
"968 183 OFFCURVE",
"956 195 OFFCURVE",
"941 195 CURVE SMOOTH",
"663 195 LINE",
"663 258 LINE",
"911 258 LINE SMOOTH",
"926 258 OFFCURVE",
"938 270 OFFCURVE",
"938 285 CURVE SMOOTH",
"938 415 LINE SMOOTH",
"938 430 OFFCURVE",
"926 442 OFFCURVE",
"911 442 CURVE SMOOTH",
"663 442 LINE",
"663 505 LINE",
"933 505 LINE SMOOTH",
"948 505 OFFCURVE",
"960 517 OFFCURVE",
"960 532 CURVE SMOOTH",
"960 673 LINE SMOOTH",
"960 688 OFFCURVE",
"948 700 OFFCURVE",
"933 700 CURVE SMOOTH",
"273 700 LINE SMOOTH",
"246 700 OFFCURVE",
"232 682 OFFCURVE",
"228 667 CURVE",
"154 454 OFFCURVE",
"79 242 OFFCURVE",
"5 29 CURVE SMOOTH",
"4 26 OFFCURVE",
"4 24 OFFCURVE",
"4 22 CURVE SMOOTH",
"4 10 OFFCURVE",
"14 0 OFFCURVE",
"26 0 CURVE SMOOTH"
);
},
{
closed = 1;
nodes = (
"391 505 LINE",
"423 505 LINE",
"423 286 LINE",
"325 286 LINE"
);
}
);
};
layerId = "599115B4-8BEB-4D49-80EA-A2BFC7890D7F";
name = "Dec 6 20, 14:56";
paths = (
{
closed = 1;
nodes = (
"211 0 LINE SMOOTH",
"237 0 OFFCURVE",
"246 14 OFFCURVE",
"250 25 CURVE SMOOTH",
"258 47 OFFCURVE",
"266 69 OFFCURVE",
"274 91 CURVE",
"423 91 LINE",
"423 27 LINE SMOOTH",
"423 12 OFFCURVE",
"435 0 OFFCURVE",
"450 0 CURVE SMOOTH",
"941 0 LINE SMOOTH",
"956 0 OFFCURVE",
"968 12 OFFCURVE",
"968 27 CURVE SMOOTH",
"968 168 LINE SMOOTH",
"968 183 OFFCURVE",
"956 195 OFFCURVE",
"941 195 CURVE SMOOTH",
"663 195 LINE",
"663 258 LINE",
"911 258 LINE SMOOTH",
"926 258 OFFCURVE",
"938 270 OFFCURVE",
"938 285 CURVE SMOOTH",
"938 415 LINE SMOOTH",
"938 430 OFFCURVE",
"926 442 OFFCURVE",
"911 442 CURVE SMOOTH",
"663 442 LINE",
"663 505 LINE",
"933 505 LINE SMOOTH",
"948 505 OFFCURVE",
"960 517 OFFCURVE",
"960 532 CURVE SMOOTH",
"960 673 LINE SMOOTH",
"960 688 OFFCURVE",
"948 700 OFFCURVE",
"933 700 CURVE SMOOTH",
"273 700 LINE SMOOTH",
"246 700 OFFCURVE",
"232 682 OFFCURVE",
"228 667 CURVE",
"154 454 OFFCURVE",
"79 242 OFFCURVE",
"5 29 CURVE SMOOTH",
"4 26 OFFCURVE",
"4 24 OFFCURVE",
"4 22 CURVE SMOOTH",
"4 10 OFFCURVE",
"14 0 OFFCURVE",
"26 0 CURVE SMOOTH"
);
},
{
closed = 1;
nodes = (
"391 505 LINE",
"423 505 LINE",
"423 286 LINE",
"325 286 LINE"
);
}
);
width = 1005;
}
);
leftKerningGroup = AE;
rightKerningGroup = E;
unicode = 00C6;
userData = {
com.typemytype.robofont.guides = (
{
angle = 0;
isGlobal = 0;
magnetic = 5;
x = 0;
y = 505;
},
{
angle = 90;
isGlobal = 0;
magnetic = 5;
x = 431;
y = 0;
}
);
};
},
{
color = 1;
glyphname = B;
layers = (
{
background = {
paths = (
{
closed = 1;
nodes = (
"424 0 LINE SMOOTH",
"605 0 OFFCURVE",
"706 70 OFFCURVE",
"706 220 CURVE SMOOTH",
"706 286 OFFCURVE",
"662 344 OFFCURVE",
"611 365 CURVE",
"643 381 OFFCURVE",
"691 426 OFFCURVE",
"691 490 CURVE SMOOTH",
"691 630 OFFCURVE",
"605 700 OFFCURVE",
"414 700 CURVE SMOOTH",
"82 700 LINE SMOOTH",
"67 700 OFFCURVE",
"55 688 OFFCURVE",
"55 673 CURVE SMOOTH",
"55 27 LINE SMOOTH",
"55 12 OFFCURVE",
"67 0 OFFCURVE",
"82 0 CURVE SMOOTH"
);
},
{
closed = 1;
nodes = (
"305 270 LINE",
"398 270 LINE SMOOTH",
"428 270 OFFCURVE",
"444 245 OFFCURVE",
"444 221 CURVE SMOOTH",
"444 199 OFFCURVE",
"431 172 OFFCURVE",
"398 172 CURVE SMOOTH",
"305 172 LINE"
);
},
{
closed = 1;
nodes = (
"305 528 LINE",
"389 528 LINE SMOOTH",
"418 528 OFFCURVE",
"430 503 OFFCURVE",
"430 482 CURVE SMOOTH",
"430 461 OFFCURVE",
"418 437 OFFCURVE",
"389 437 CURVE SMOOTH",
"305 437 LINE"
);
}
);
};
hints = (
{
horizontal = 1;
place = "{-2147483648, 0}";
type = Tag;
name = hr00;
}
);
layerId = "EC64484B-0978-4CB1-9EE9-C40A2D8C4059";
paths = (
{
closed = 1;
nodes = (
"426.238 -41.965 OFFCURVE",
"466.457 -40.715 OFFCURVE",
"464.219 31.251 CURVE",
"480.697 -39.865 OFFCURVE",
"601.475 -11.881 OFFCURVE",
"584.997 59.235 CURVE",
"631.251 -1.069 OFFCURVE",
"685.124 40.251 OFFCURVE",
"638.87 100.556 CURVE",
"712.178 73.91 OFFCURVE",
"748.677 174.327 OFFCURVE",
"675.37 200.972 CURVE",
"735.792 209.348 OFFCURVE",
"726.589 275.736 OFFCURVE",
"666.167 267.36 CURVE",
"730.635 303.689 OFFCURVE",
"662.611 424.401 OFFCURVE",
"598.143 388.071 CURVE",
"643.825 358.533 OFFCURVE",
"706.539 455.523 OFFCURVE",
"660.858 485.061 CURVE",
"718.28 505.045 OFFCURVE",
"672.986 635.193 OFFCURVE",
"615.564 615.21 CURVE",
"648.662 685.839 OFFCURVE",
"551.307 731.461 OFFCURVE",
"518.209 660.832 CURVE",
"521.783 721.727 OFFCURVE",
"365.574 730.895 OFFCURVE",
"362 670 CURVE",
"362 732 OFFCURVE",
"302 732 OFFCURVE",
"302 670 CURVE",
"302 730 OFFCURVE",
"190 730 OFFCURVE",
"190 670 CURVE",
"190 736 OFFCURVE",
"82 736 OFFCURVE",
"82 670 CURVE",
"22.014 668.682 OFFCURVE",
"25.014 532.114 OFFCURVE",
"85 533.432 CURVE",
"19 533.432 OFFCURVE",
"19 385.889 OFFCURVE",
"85 385.889 CURVE",
"17 385.889 OFFCURVE",
"17 330.062 OFFCURVE",
"85 330.062 CURVE",
"16 330.062 OFFCURVE",
"16 258.284 OFFCURVE",
"85 258.284 CURVE",
"12 258.284 OFFCURVE",
"12 178.531 OFFCURVE",
"85 178.531 CURVE",
"20 178.531 OFFCURVE",
"20 54.914 OFFCURVE",
"85 54.914 CURVE",
"52.241 6.567 OFFCURVE",
"89.008 -18.346 OFFCURVE",
"121.767 30 CURVE",
"121.767 -48 OFFCURVE",
"189.372 -48 OFFCURVE",
"189.372 30 CURVE",
"189.372 -32 OFFCURVE",
"272.884 -32 OFFCURVE",
"272.884 30 CURVE",
"272.884 -44 OFFCURVE",
"348.442 -44 OFFCURVE",
"348.442 30 CURVE"
);
},
{
closed = 1;
nodes = (
"275 516.56 OFFCURVE",
"326.103 516.56 OFFCURVE",
"326.103 558 CURVE",
"325.888 522.721 OFFCURVE",
"397.011 522.287 OFFCURVE",
"397.226 557.566 CURVE",
"365.35 531.086 OFFCURVE",
"428.124 455.52 OFFCURVE",
"460 482 CURVE",
"418.937 508.736 OFFCURVE",
"372.916 438.056 OFFCURVE",
"413.979 411.319 CURVE",
"409.37 454.755 OFFCURVE",
"368.667 450.436 OFFCURVE",
"373.276 407 CURVE",
"373.276 442.28 OFFCURVE",
"282.862 442.28 OFFCURVE",
"282.862 407 CURVE",
"326.249 412.05 OFFCURVE",
"318.387 479.602 OFFCURVE",
"275 474.553 CURVE",
"309.16 474.553 OFFCURVE",
"309.16 514.289 OFFCURVE",
"275 514.289 CURVE"
);
},
{
closed = 1;
nodes = (
"275 261.36 OFFCURVE",
"370.226 261.36 OFFCURVE",
"370.226 300 CURVE",
"365.479 265.041 OFFCURVE",
"428.193 256.526 OFFCURVE",
"432.939 291.485 CURVE",
"400.296 263.311 OFFCURVE",
"436.375 221.509 OFFCURVE",
"469.018 249.683 CURVE",
"424.917 246.181 OFFCURVE",
"428.474 201.383 OFFCURVE",
"472.575 204.884 CURVE",
"423.758 224.2 OFFCURVE",
"411.919 194.277 OFFCURVE",
"460.736 174.962 CURVE",
"444.611 207.595 OFFCURVE",
"377.906 174.633 OFFCURVE",
"394.032 142 CURVE",
"394.032 185.68 OFFCURVE",
"338.484 185.68 OFFCURVE",
"338.484 142 CURVE",
"338.484 178.4 OFFCURVE",
"306.742 178.4 OFFCURVE",
"306.742 142 CURVE",
"345.775 161.604 OFFCURVE",
"314.033 224.804 OFFCURVE",
"275 205.2 CURVE"
);
}
);
width = 734;
},
{
associatedMasterId = "EC64484B-0978-4CB1-9EE9-C40A2D8C4059";
background = {
paths = (
{
closed = 1;
nodes = (
"424 0 LINE SMOOTH",
"605 0 OFFCURVE",
"706 70 OFFCURVE",
"706 220 CURVE SMOOTH",
"706 286 OFFCURVE",
"662 344 OFFCURVE",
"611 365 CURVE",
"643 381 OFFCURVE",
"691 426 OFFCURVE",
"691 490 CURVE SMOOTH",
"691 630 OFFCURVE",
"605 700 OFFCURVE",
"414 700 CURVE SMOOTH",
"82 700 LINE SMOOTH",
"67 700 OFFCURVE",
"55 688 OFFCURVE",
"55 673 CURVE SMOOTH",
"55 27 LINE SMOOTH",
"55 12 OFFCURVE",
"67 0 OFFCURVE",
"82 0 CURVE SMOOTH"
);
},
{
closed = 1;
nodes = (
"305 270 LINE",
"398 270 LINE SMOOTH",
"428 270 OFFCURVE",
"444 245 OFFCURVE",
"444 221 CURVE SMOOTH",
"444 199 OFFCURVE",
"431 172 OFFCURVE",
"398 172 CURVE SMOOTH",
"305 172 LINE"
);
},
{
closed = 1;
nodes = (
"305 528 LINE",
"389 528 LINE SMOOTH",
"418 528 OFFCURVE",
"430 503 OFFCURVE",
"430 482 CURVE SMOOTH",
"430 461 OFFCURVE",
"418 437 OFFCURVE",
"389 437 CURVE SMOOTH",
"305 437 LINE"
);
}
);
};
hints = (
{
horizontal = 1;
place = "{-2147483648, 0}";
type = Tag;
name = hr00;
}
);
layerId = "557B9EB1-08AD-4ECA-9BBC-CCCCBDA9D7DA";
name = "Dec 6 20, 14:56";
paths = (
{
closed = 1;
nodes = (
"424 0 LINE SMOOTH",
"605 0 OFFCURVE",
"706 70 OFFCURVE",
"706 220 CURVE SMOOTH",
"706 286 OFFCURVE",
"662 344 OFFCURVE",
"611 365 CURVE",
"643 381 OFFCURVE",
"691 426 OFFCURVE",
"691 490 CURVE SMOOTH",
"691 630 OFFCURVE",
"605 700 OFFCURVE",
"414 700 CURVE SMOOTH",
"82 700 LINE SMOOTH",
"67 700 OFFCURVE",
"55 688 OFFCURVE",
"55 673 CURVE SMOOTH",
"55 27 LINE SMOOTH",
"55 12 OFFCURVE",
"67 0 OFFCURVE",
"82 0 CURVE SMOOTH"
);
},
{
closed = 1;
nodes = (
"305 270 LINE",
"398 270 LINE SMOOTH",
"428 270 OFFCURVE",
"444 245 OFFCURVE",
"444 221 CURVE SMOOTH",
"444 199 OFFCURVE",
"431 172 OFFCURVE",
"398 172 CURVE SMOOTH",
"305 172 LINE"
);
},
{
closed = 1;
nodes = (
"305 528 LINE",
"389 528 LINE SMOOTH",
"418 528 OFFCURVE",
"430 503 OFFCURVE",
"430 482 CURVE SMOOTH",
"430 461 OFFCURVE",
"418 437 OFFCURVE",
"389 437 CURVE SMOOTH",
"305 437 LINE"
);
}
);
width = 734;
}
);
leftKerningGroup = I;
unicode = 0042;
userData = {
com.typemytype.robofont.guides = (
{
angle = 0;
isGlobal = 0;
magnetic = 5;
x = 0;
y = 271;
},
{
angle = 0;
isGlobal = 0;
magnetic = 5;
x = 0;
y = 437;
},
{
angle = 0;
isGlobal = 0;
magnetic = 5;
x = 0;
y = 521;
},
{
angle = 0;
isGlobal = 0;
magnetic = 5;
x = 0;
y = 198;
},
{
angle = 0;
isGlobal = 0;
magnetic = 5;
x = 0;
y = 9;
},
{
angle = 90;
isGlobal = 0;
magnetic = 5;
x = 355;
y = 0;
},
{
angle = 90;
isGlobal = 0;
magnetic = 5;
x = 583;
y = 0;
},
{
angle = 90;
isGlobal = 0;
magnetic = 5;
x = 94;
y = 0;
}
);
};
},
{
color = 1;
glyphname = C;
layers = (
{
anchors = (
{
name = bottom;
position = "{367, 0}";
},
{
name = top;
position = "{367, 700}";
}
);
background = {
anchors = (
{
name = bottom;
position = "{367, 0}";
},
{
name = top;
position = "{367, 700}";
}
);
paths = (
{
closed = 1;
nodes = (
"542 -10 OFFCURVE",
"706 64 OFFCURVE",
"709 246 CURVE SMOOTH",
"709 258 OFFCURVE",
"699 268 OFFCURVE",
"687 268 CURVE",
"483 268 LINE",
"461 268 OFFCURVE",
"453 262 OFFCURVE",
"446 239 CURVE SMOOTH",
"433 199 OFFCURVE",
"405 185 OFFCURVE",
"371 185 CURVE SMOOTH",
"327 185 OFFCURVE",
"299 205 OFFCURVE",
"297 266 CURVE SMOOTH",
"295 323 OFFCURVE",
"295 379 OFFCURVE",
"297 434 CURVE",
"299 495 OFFCURVE",
"327 515 OFFCURVE",
"371 515 CURVE SMOOTH",
"405 515 OFFCURVE",
"431 504 OFFCURVE",
"446 461 CURVE SMOOTH",
"454 439 OFFCURVE",
"461 432 OFFCURVE",
"483 432 CURVE",
"687 432 LINE",
"699 432 OFFCURVE",
"709 442 OFFCURVE",
"709 454 CURVE SMOOTH",
"706 636 OFFCURVE",
"542 710 OFFCURVE",
"372 710 CURVE SMOOTH",
"185 710 OFFCURVE",
"45 625 OFFCURVE",
"37 439 CURVE",
"35 382 OFFCURVE",
"35 315 OFFCURVE",
"37 261 CURVE",
"45 70 OFFCURVE",
"180 -10 OFFCURVE",
"372 -10 CURVE SMOOTH"
);
}
);
};
layerId = "EC64484B-0978-4CB1-9EE9-C40A2D8C4059";
paths = (
{
closed = 1;
nodes = (
"380.977 -43.367 OFFCURVE",
"523.175 -23.224 OFFCURVE",
"514.198 40.144 CURVE",
"546.264 -27.656 OFFCURVE",
"618.45 6.484 OFFCURVE",
"586.384 74.284 CURVE",
"630.649 33.779 OFFCURVE",
"700.204 109.792 OFFCURVE",
"655.939 150.296 CURVE",
"724.683 132.54 OFFCURVE",
"747.537 221.018 OFFCURVE",
"678.793 238.774 CURVE",
"678.193 306.772 OFFCURVE",
"590.4 305.997 OFFCURVE",
"591 238 CURVE",
"591 313 OFFCURVE",
"531 313 OFFCURVE",
"531 238 CURVE",
"512.186 296.657 OFFCURVE",
"451.944 277.334 OFFCURVE",
"470.758 218.677 CURVE",
"421.468 265.523 OFFCURVE",
"369.976 211.343 OFFCURVE",
"419.266 164.498 CURVE",
"435.461 237.728 OFFCURVE",
"302.498 267.135 OFFCURVE",
"286.302 193.904 CURVE",
"354.693 203.055 OFFCURVE",
"333.891 358.516 OFFCURVE",
"265.501 349.365 CURVE",
"334.483 347.822 OFFCURVE",
"336.671 445.612 OFFCURVE",
"267.688 447.155 CURVE",
"329.241 433.729 OFFCURVE",
"337.861 473.248 OFFCURVE",
"276.308 486.674 CURVE",
"303.713 415.787 OFFCURVE",
"438.949 468.07 OFFCURVE",
"411.544 538.957 CURVE",
"371.247 493.162 OFFCURVE",
"458.703 416.205 OFFCURVE",
"499 462 CURVE",
"499 395 OFFCURVE",
"587 395 OFFCURVE",
"587 462 CURVE",
"587 384 OFFCURVE",
"631 384 OFFCURVE",
"631 462 CURVE",
"677.805 429.82 OFFCURVE",
"715.998 485.371 OFFCURVE",
"669.193 517.551 CURVE",
"718.623 554.309 OFFCURVE",
"640.658 659.153 OFFCURVE",
"591.227 622.395 CURVE",
"620.268 676.039 OFFCURVE",
"567.18 704.778 OFFCURVE",
"538.14 651.134 CURVE",
"554.808 727.332 OFFCURVE",
"429.261 754.795 OFFCURVE",
"412.593 678.597 CURVE",
"408.272 753.473 OFFCURVE",
"267.678 745.359 OFFCURVE",
"271.999 670.484 CURVE",
"252.827 740.921 OFFCURVE",
"210.131 729.3 OFFCURVE",
"229.302 658.863 CURVE",
"195.32 716.605 OFFCURVE",
"102.389 661.914 OFFCURVE",
"136.371 604.171 CURVE",
"69.698 640.651 OFFCURVE",
"6.896 525.871 OFFCURVE",
"73.569 489.391 CURVE",
"0.703 493.817 OFFCURVE",
"-7.356 361.147 OFFCURVE",
"65.51 356.721 CURVE",
"-0.385 353 OFFCURVE",
"8.101 202.78 OFFCURVE",
"73.996 206.502 CURVE",
"24.837 179.681 OFFCURVE",
"87.087 65.586 OFFCURVE",
"136.246 92.407 CURVE",
"104.91 33.186 OFFCURVE",
"213.418 -24.23 OFFCURVE",
"244.754 34.991 CURVE",
"235.075 -26.249 OFFCURVE",
"321.857 -39.966 OFFCURVE",
"331.537 21.274 CURVE"
);
}
);
width = 733;
},
{
anchors = (
{
name = bottom;
position = "{367, 0}";
},
{
name = top;
position = "{367, 700}";
}
);
associatedMasterId = "EC64484B-0978-4CB1-9EE9-C40A2D8C4059";
background = {
anchors = (
{
name = bottom;
position = "{367, 0}";
},
{
name = top;
position = "{367, 700}";
}
);
paths = (
{
closed = 1;
nodes = (
"542 -10 OFFCURVE",
"706 64 OFFCURVE",
"709 246 CURVE SMOOTH",
"709 258 OFFCURVE",
"699 268 OFFCURVE",
"687 268 CURVE",
"483 268 LINE",
"461 268 OFFCURVE",
"453 262 OFFCURVE",
"446 239 CURVE SMOOTH",
"433 199 OFFCURVE",
"405 185 OFFCURVE",
"371 185 CURVE SMOOTH",
"327 185 OFFCURVE",
"299 205 OFFCURVE",
"297 266 CURVE SMOOTH",
"295 323 OFFCURVE",
"295 379 OFFCURVE",
"297 434 CURVE",
"299 495 OFFCURVE",
"327 515 OFFCURVE",
"371 515 CURVE SMOOTH",
"405 515 OFFCURVE",
"431 504 OFFCURVE",
"446 461 CURVE SMOOTH",
"454 439 OFFCURVE",
"461 432 OFFCURVE",
"483 432 CURVE",
"687 432 LINE",
"699 432 OFFCURVE",
"709 442 OFFCURVE",
"709 454 CURVE SMOOTH",
"706 636 OFFCURVE",
"542 710 OFFCURVE",
"372 710 CURVE SMOOTH",
"185 710 OFFCURVE",
"45 625 OFFCURVE",
"37 439 CURVE",
"35 382 OFFCURVE",
"35 315 OFFCURVE",
"37 261 CURVE",
"45 70 OFFCURVE",
"180 -10 OFFCURVE",
"372 -10 CURVE SMOOTH"
);
}
);
};
layerId = "83ABA0CD-60CC-49E5-AC93-600572E1ADD3";
name = "Dec 6 20, 14:56";
paths = (
{
closed = 1;
nodes = (
"542 -10 OFFCURVE",
"706 64 OFFCURVE",
"709 246 CURVE SMOOTH",
"709 258 OFFCURVE",
"699 268 OFFCURVE",
"687 268 CURVE",
"483 268 LINE",
"461 268 OFFCURVE",
"453 262 OFFCURVE",
"446 239 CURVE SMOOTH",
"433 199 OFFCURVE",
"405 185 OFFCURVE",
"371 185 CURVE SMOOTH",
"327 185 OFFCURVE",
"299 205 OFFCURVE",
"297 266 CURVE SMOOTH",
"295 323 OFFCURVE",
"295 379 OFFCURVE",
"297 434 CURVE",
"299 495 OFFCURVE",
"327 515 OFFCURVE",
"371 515 CURVE SMOOTH",
"405 515 OFFCURVE",
"431 504 OFFCURVE",
"446 461 CURVE SMOOTH",
"454 439 OFFCURVE",
"461 432 OFFCURVE",
"483 432 CURVE",
"687 432 LINE",
"699 432 OFFCURVE",
"709 442 OFFCURVE",
"709 454 CURVE SMOOTH",
"706 636 OFFCURVE",
"542 710 OFFCURVE",
"372 710 CURVE SMOOTH",
"185 710 OFFCURVE",
"45 625 OFFCURVE",
"37 439 CURVE",
"35 382 OFFCURVE",
"35 315 OFFCURVE",
"37 261 CURVE",
"45 70 OFFCURVE",
"180 -10 OFFCURVE",
"372 -10 CURVE SMOOTH"
);
}
);
width = 733;
}
);
leftKerningGroup = O;
rightKerningGroup = C;
unicode = 0043;
userData = {
com.typemytype.robofont.guides = (
{
angle = 0;
isGlobal = 0;
magnetic = 5;
x = 0;
y = 434;
},
{
angle = 0;
isGlobal = 0;
magnetic = 5;
x = 0;
y = 266;
},
{
angle = 0;
isGlobal = 0;
magnetic = 5;
x = 0;
y = 710;
},
{
angle = 0;
isGlobal = 0;
magnetic = 5;
x = 0;
y = "-10";
},
{
angle = 90;
isGlobal = 0;
magnetic = 5;
x = 599;
y = 0;
},
{
angle = 90;
isGlobal = 0;
magnetic = 5;
x = 209;
y = 0;
},
{
angle = 90;
isGlobal = 0;
magnetic = 5;
x = 149;
y = 0;
},
{
angle = 90;
isGlobal = 0;
magnetic = 5;
x = 332;
y = 0;
}
);
};
},
{
color = 1;
glyphname = Ccedilla;
layers = (
{
background = {
paths = (
{
closed = 1;
nodes = (
"426 -220 OFFCURVE",
"465 -183 OFFCURVE",
"465 -130 CURVE SMOOTH",
"465 -77 OFFCURVE",
"435 -40 OFFCURVE",
"384 -40 CURVE SMOOTH",
"380 -40 OFFCURVE",
"362 -42 OFFCURVE",
"354 -45 CURVE",
"372 -10 LINE",
"542 -10 OFFCURVE",
"706 64 OFFCURVE",
"709 246 CURVE SMOOTH",
"709 258 OFFCURVE",
"699 268 OFFCURVE",
"687 268 CURVE",
"483 268 LINE",
"461 268 OFFCURVE",
"453 262 OFFCURVE",
"446 239 CURVE SMOOTH",
"433 199 OFFCURVE",
"405 185 OFFCURVE",
"371 185 CURVE SMOOTH",
"327 185 OFFCURVE",
"299 205 OFFCURVE",
"297 266 CURVE SMOOTH",
"295 323 OFFCURVE",
"295 379 OFFCURVE",
"297 434 CURVE SMOOTH",
"299 495 OFFCURVE",
"327 515 OFFCURVE",
"371 515 CURVE SMOOTH",
"405 515 OFFCURVE",
"431 504 OFFCURVE",
"446 461 CURVE SMOOTH",
"454 439 OFFCURVE",
"461 432 OFFCURVE",
"483 432 CURVE",
"687 432 LINE",
"699 432 OFFCURVE",
"709 442 OFFCURVE",
"709 454 CURVE SMOOTH",
"706 636 OFFCURVE",
"542 710 OFFCURVE",
"372 710 CURVE SMOOTH",
"185 710 OFFCURVE",
"45 625 OFFCURVE",
"37 439 CURVE SMOOTH",
"35 382 OFFCURVE",
"35 315 OFFCURVE",
"37 261 CURVE SMOOTH",
"44 91 OFFCURVE",
"151 10 OFFCURVE",
"309 -6 CURVE",
"289 -52 LINE",
"280 -71 OFFCURVE",
"282 -76 OFFCURVE",
"291 -85 CURVE",
"312 -106 LINE",
"325 -119 OFFCURVE",
"348 -106 OFFCURVE",
"366 -106 CURVE SMOOTH",
"386 -106 OFFCURVE",
"394 -118 OFFCURVE",
"394 -130 CURVE SMOOTH",
"394 -142 OFFCURVE",
"385 -154 OFFCURVE",
"366 -154 CURVE SMOOTH",
"332 -154 OFFCURVE",
"327 -136 OFFCURVE",
"310 -151 CURVE",
"289 -169 LINE",
"266 -189 OFFCURVE",
"313 -220 OFFCURVE",
"366 -220 CURVE SMOOTH"
);
}
);
};
hints = (
{
horizontal = 1;
place = "{-2147483648, 0}";
type = Tag;
name = hr00;
}
);
layerId = "EC64484B-0978-4CB1-9EE9-C40A2D8C4059";
paths = (
{
closed = 1;
nodes = (
"400.399 -236.2 OFFCURVE",
"468.852 -185.233 OFFCURVE",
"434.454 -139.032 CURVE",
"468.272 -103.851 OFFCURVE",
"393.752 -32.218 OFFCURVE",
"359.933 -67.4 CURVE",
"424.483 -59.765 OFFCURVE",
"414.95 20.835 OFFCURVE",
"350.4 13.2 CURVE",
"356.939 -37.581 OFFCURVE",
"420.839 -29.352 OFFCURVE",
"414.3 21.428 CURVE",
"426.954 -41.308 OFFCURVE",
"537.038 -19.103 OFFCURVE",
"524.384 43.633 CURVE",
"557.444 -24.799 OFFCURVE",
"615.276 3.14 OFFCURVE",
"582.215 71.572 CURVE",
"621.678 23.752 OFFCURVE",
"665 59.502 OFFCURVE",
"625.537 107.322 CURVE",
"673.945 86.239 OFFCURVE",
"731.333 218.002 OFFCURVE",
"682.925 239.086 CURVE",
"681.933 312.079 OFFCURVE",
"602.008 310.993 OFFCURVE",
"603 238 CURVE",
"603 303 OFFCURVE",
"535 303 OFFCURVE",
"535 238 CURVE",
"511.586 279.902 OFFCURVE",
"433.324 236.17 OFFCURVE",
"456.738 194.268 CURVE",
"430.921 250.637 OFFCURVE",
"345.183 211.369 OFFCURVE",
"371 155 CURVE",
"411.441 215.775 OFFCURVE",
"314.584 280.225 OFFCURVE",
"274.143 219.45 CURVE",
"335.044 222.931 OFFCURVE",
"326.471 372.937 OFFCURVE",
"265.57 369.456 CURVE",
"338.266 362.797 OFFCURVE",
"349.004 480.015 OFFCURVE",
"276.308 486.674 CURVE",
"300.84 426.481 OFFCURVE",
"432.148 479.996 OFFCURVE",
"407.616 540.189 CURVE",
"363.606 491.004 OFFCURVE",
"450.991 412.815 OFFCURVE",
"495 462 CURVE",
"495 383 OFFCURVE",
"543 383 OFFCURVE",
"543 462 CURVE",
"543 398 OFFCURVE",
"611 398 OFFCURVE",
"611 462 CURVE",
"611 399 OFFCURVE",
"671 399 OFFCURVE",
"671 462 CURVE",
"732.272 437.469 OFFCURVE",
"738.734 453.61 OFFCURVE",
"677.462 478.141 CURVE",
"739.832 492.494 OFFCURVE",
"729.001 539.553 OFFCURVE",
"666.632 525.2 CURVE",
"723.974 567.067 OFFCURVE",
"658.279 657.045 OFFCURVE",
"600.937 615.178 CURVE",
"637.895 673.445 OFFCURVE",
"597.091 699.327 OFFCURVE",
"560.133 641.06 CURVE",
"577.674 703.649 OFFCURVE",
"450.216 739.371 OFFCURVE",
"432.674 676.782 CURVE",
"437.084 745.641 OFFCURVE",
"388.801 748.733 OFFCURVE",
"384.392 679.874 CURVE",
"376.677 741.392 OFFCURVE",
"229.235 722.9 OFFCURVE",
"236.95 661.382 CURVE",
"203.362 722.798 OFFCURVE",
"108.711 671.033 OFFCURVE",
"142.299 609.618 CURVE",
"77.938 655.429 OFFCURVE",
"22.401 577.405 OFFCURVE",
"86.762 531.594 CURVE",
"24.64 542.074 OFFCURVE",
"4.051 420.04 OFFCURVE",
"66.173 409.559 CURVE",
"2.179 410.411 OFFCURVE",
"1.53 361.638 OFFCURVE",
"65.524 360.786 CURVE",
"-8.475 360.433 OFFCURVE",
"-8.242 311.657 OFFCURVE",
"65.757 312.01 CURVE",
"5.785 310.168 OFFCURVE",
"7.692 248.114 OFFCURVE",
"67.663 249.956 CURVE",
"8.155 232.556 OFFCURVE",
"41.685 117.884 OFFCURVE",
"101.193 135.284 CURVE",
"66.904 91.01 OFFCURVE",
"185.22 -0.623 OFFCURVE",
"219.509 43.652 CURVE",
"202.544 -29.404 OFFCURVE",
"280.72 -47.558 OFFCURVE",
"297.685 25.498 CURVE",
"240.328 -0.561 OFFCURVE",
"269.726 -65.268 OFFCURVE",
"327.083 -39.208 CURVE",
"295.757 -86.588 OFFCURVE",
"379.72 -142.103 OFFCURVE",
"411.047 -94.723 CURVE",
"347.659 -62.739 OFFCURVE",
"302.612 -152.016 OFFCURVE",
"366 -184 CURVE",
"357.216 -121.413 OFFCURVE",
"300.216 -129.413 OFFCURVE",
"309 -192 CURVE"
);
}
);
width = 733;
},
{
associatedMasterId = "EC64484B-0978-4CB1-9EE9-C40A2D8C4059";
background = {
paths = (
{
closed = 1;
nodes = (
"426 -220 OFFCURVE",
"465 -183 OFFCURVE",
"465 -130 CURVE SMOOTH",
"465 -77 OFFCURVE",
"435 -40 OFFCURVE",
"384 -40 CURVE SMOOTH",
"380 -40 OFFCURVE",
"362 -42 OFFCURVE",
"354 -45 CURVE",
"372 -10 LINE",
"542 -10 OFFCURVE",
"706 64 OFFCURVE",
"709 246 CURVE SMOOTH",
"709 258 OFFCURVE",
"699 268 OFFCURVE",
"687 268 CURVE",
"483 268 LINE",
"461 268 OFFCURVE",
"453 262 OFFCURVE",
"446 239 CURVE SMOOTH",
"433 199 OFFCURVE",
"405 185 OFFCURVE",
"371 185 CURVE SMOOTH",
"327 185 OFFCURVE",
"299 205 OFFCURVE",
"297 266 CURVE SMOOTH",
"295 323 OFFCURVE",
"295 379 OFFCURVE",
"297 434 CURVE SMOOTH",
"299 495 OFFCURVE",
"327 515 OFFCURVE",
"371 515 CURVE SMOOTH",
"405 515 OFFCURVE",
"431 504 OFFCURVE",
"446 461 CURVE SMOOTH",
"454 439 OFFCURVE",
"461 432 OFFCURVE",
"483 432 CURVE",
"687 432 LINE",
"699 432 OFFCURVE",
"709 442 OFFCURVE",
"709 454 CURVE SMOOTH",
"706 636 OFFCURVE",
"542 710 OFFCURVE",
"372 710 CURVE SMOOTH",
"185 710 OFFCURVE",
"45 625 OFFCURVE",
"37 439 CURVE SMOOTH",
"35 382 OFFCURVE",
"35 315 OFFCURVE",
"37 261 CURVE SMOOTH",
"44 91 OFFCURVE",
"151 10 OFFCURVE",
"309 -6 CURVE",
"289 -52 LINE",
"280 -71 OFFCURVE",
"282 -76 OFFCURVE",
"291 -85 CURVE",
"312 -106 LINE",
"325 -119 OFFCURVE",
"348 -106 OFFCURVE",
"366 -106 CURVE SMOOTH",
"386 -106 OFFCURVE",
"394 -118 OFFCURVE",
"394 -130 CURVE SMOOTH",
"394 -142 OFFCURVE",
"385 -154 OFFCURVE",
"366 -154 CURVE SMOOTH",
"332 -154 OFFCURVE",
"327 -136 OFFCURVE",
"310 -151 CURVE",
"289 -169 LINE",
"266 -189 OFFCURVE",
"313 -220 OFFCURVE",
"366 -220 CURVE SMOOTH"
);
}
);
};
hints = (
{
horizontal = 1;
place = "{-2147483648, 0}";
type = Tag;
name = hr00;
}
);
layerId = "5316989A-8B30-4E49-B77D-C02FDE13DFEE";
name = "Dec 6 20, 14:56";
paths = (
{
closed = 1;
nodes = (
"426 -220 OFFCURVE",
"465 -183 OFFCURVE",
"465 -130 CURVE SMOOTH",
"465 -77 OFFCURVE",
"435 -40 OFFCURVE",
"384 -40 CURVE SMOOTH",
"380 -40 OFFCURVE",
"362 -42 OFFCURVE",
"354 -45 CURVE",
"372 -10 LINE",
"542 -10 OFFCURVE",
"706 64 OFFCURVE",
"709 246 CURVE SMOOTH",
"709 258 OFFCURVE",
"699 268 OFFCURVE",
"687 268 CURVE",
"483 268 LINE",
"461 268 OFFCURVE",
"453 262 OFFCURVE",
"446 239 CURVE SMOOTH",
"433 199 OFFCURVE",
"405 185 OFFCURVE",
"371 185 CURVE SMOOTH",
"327 185 OFFCURVE",
"299 205 OFFCURVE",
"297 266 CURVE SMOOTH",
"295 323 OFFCURVE",
"295 379 OFFCURVE",
"297 434 CURVE SMOOTH",
"299 495 OFFCURVE",
"327 515 OFFCURVE",
"371 515 CURVE SMOOTH",
"405 515 OFFCURVE",
"431 504 OFFCURVE",
"446 461 CURVE SMOOTH",
"454 439 OFFCURVE",
"461 432 OFFCURVE",
"483 432 CURVE",
"687 432 LINE",
"699 432 OFFCURVE",
"709 442 OFFCURVE",
"709 454 CURVE SMOOTH",
"706 636 OFFCURVE",
"542 710 OFFCURVE",
"372 710 CURVE SMOOTH",
"185 710 OFFCURVE",
"45 625 OFFCURVE",
"37 439 CURVE SMOOTH",
"35 382 OFFCURVE",
"35 315 OFFCURVE",
"37 261 CURVE SMOOTH",
"44 91 OFFCURVE",
"151 10 OFFCURVE",
"309 -6 CURVE",
"289 -52 LINE",
"280 -71 OFFCURVE",
"282 -76 OFFCURVE",
"291 -85 CURVE",
"312 -106 LINE",
"325 -119 OFFCURVE",
"348 -106 OFFCURVE",
"366 -106 CURVE SMOOTH",
"386 -106 OFFCURVE",
"394 -118 OFFCURVE",
"394 -130 CURVE SMOOTH",
"394 -142 OFFCURVE",
"385 -154 OFFCURVE",
"366 -154 CURVE SMOOTH",
"332 -154 OFFCURVE",
"327 -136 OFFCURVE",
"310 -151 CURVE",
"289 -169 LINE",
"266 -189 OFFCURVE",
"313 -220 OFFCURVE",
"366 -220 CURVE SMOOTH"
);
}
);
width = 733;
}
);
leftKerningGroup = O;
rightKerningGroup = C;
unicode = 00C7;
userData = {
com.typemytype.robofont.guides = (
{
angle = 0;
isGlobal = 0;
magnetic = 5;
x = 0;
y = "-174";
},
{
angle = 0;
isGlobal = 0;
magnetic = 5;
x = 0;
y = "-220";
},
{
angle = 0;
isGlobal = 0;
magnetic = 5;
x = 0;
y = "-96";
},
{
angle = 0;
isGlobal = 0;
magnetic = 5;
x = 0;
y = "-50";
},
{
angle = 0;
isGlobal = 0;
magnetic = 5;
x = 0;
y = "-135";
},
{
angle = 90;
isGlobal = 0;
magnetic = 5;
x = 331;
y = 0;
},
{
angle = 90;
isGlobal = 0;
magnetic = 5;
x = 342;
y = 0;
}
);
};
},
{
color = 1;
glyphname = D;
layers = (
{
background = {
paths = (
{
closed = 1;
nodes = (
"375 0 LINE SMOOTH",
"566 0 OFFCURVE",
"696 87 OFFCURVE",
"704 276 CURVE SMOOTH",
"706 330 OFFCURVE",
"706 368 OFFCURVE",
"704 425 CURVE SMOOTH",
"697 604 OFFCURVE",
"557 700 OFFCURVE",
"370 700 CURVE",
"82 700 LINE SMOOTH",
"67 700 OFFCURVE",
"55 688 OFFCURVE",
"55 673 CURVE SMOOTH",
"55 27 LINE SMOOTH",
"55 12 OFFCURVE",
"67 0 OFFCURVE",
"82 0 CURVE SMOOTH"
);
},
{
closed = 1;
nodes = (
"305 505 LINE",
"365 505 LINE SMOOTH",
"410 505 OFFCURVE",
"447 481 OFFCURVE",
"450 425 CURVE SMOOTH",
"453 370 OFFCURVE",
"453 333 OFFCURVE",
"450 276 CURVE SMOOTH",
"447 220 OFFCURVE",
"414 195 OFFCURVE",
"370 195 CURVE SMOOTH",
"305 195 LINE"
);
}
);
};
hints = (
{
horizontal = 1;
place = "{-2147483648, 0}";
type = Tag;
name = hr00;
}
);
layerId = "EC64484B-0978-4CB1-9EE9-C40A2D8C4059";
paths = (
{
closed = 1;
nodes = (
"386.552 -39.04 OFFCURVE",
"540.501 -13.282 OFFCURVE",
"528.949 55.758 CURVE",
"565.098 -6.509 OFFCURVE",
"627.538 29.74 OFFCURVE",
"591.389 92.007 CURVE",
"638.709 45.998 OFFCURVE",
"672.314 80.561 OFFCURVE",
"624.994 126.57 CURVE",
"683.012 91.102 OFFCURVE",
"706.071 128.823 OFFCURVE",
"648.053 164.29 CURVE",
"719.984 151.846 OFFCURVE",
"747.184 309.073 OFFCURVE",
"675.252 321.516 CURVE",
"736.25 322.001 OFFCURVE",
"735.575 407.01 OFFCURVE",
"674.577 406.525 CURVE",
"738.312 412.334 OFFCURVE",
"732.718 473.713 OFFCURVE",
"668.982 467.904 CURVE",
"729.736 491.013 OFFCURVE",
"699.87 569.528 OFFCURVE",
"639.117 546.419 CURVE",
"684.32 585.874 OFFCURVE",
"634.322 643.154 OFFCURVE",
"589.12 603.699 CURVE",
"622.342 653.662 OFFCURVE",
"582.221 680.339 OFFCURVE",
"548.999 630.376 CURVE",
"569.432 700.458 OFFCURVE",
"442.827 737.37 OFFCURVE",
"422.394 667.288 CURVE",
"424.118 741.268 OFFCURVE",
"307.724 743.98 OFFCURVE",
"306 670 CURVE",
"306 744 OFFCURVE",
"194 744 OFFCURVE",
"194 670 CURVE",
"190.58 744.922 OFFCURVE",
"81.58 739.947 OFFCURVE",
"85 665.025 CURVE",
"9 665.025 OFFCURVE",
"9 613.185 OFFCURVE",
"85 613.185 CURVE",
"20 613.185 OFFCURVE",
"20 553.37 OFFCURVE",
"85 553.37 CURVE",
"7 553.37 OFFCURVE",
"7 405.827 OFFCURVE",
"85 405.827 CURVE",
"7 405.827 OFFCURVE",
"7 330.062 OFFCURVE",
"85 330.062 CURVE",
"6 330.062 OFFCURVE",
"6 226.383 OFFCURVE",
"85 226.383 CURVE",
"21 226.383 OFFCURVE",
"21 122.704 OFFCURVE",
"85 122.704 CURVE",
"8 122.704 OFFCURVE",
"8 38.963 OFFCURVE",
"85 38.963 CURVE",
"55.268 -29.892 OFFCURVE",
"76.025 -38.855 OFFCURVE",
"105.757 30 CURVE",
"105.757 -41 OFFCURVE",
"177.027 -41 OFFCURVE",
"177.027 30 CURVE",
"177.027 -35 OFFCURVE",
"272.054 -35 OFFCURVE",
"272.054 30 CURVE",
"272.054 -46 OFFCURVE",
"323.527 -46 OFFCURVE",
"323.527 30 CURVE"
);
},
{
closed = 1;
nodes = (
"275 490.9 OFFCURVE",
"333.696 490.9 OFFCURVE",
"333.696 535 CURVE",
"332.708 480.409 OFFCURVE",
"380.231 479.549 OFFCURVE",
"381.219 534.14 CURVE",
"367.909 494.305 OFFCURVE",
"417.566 477.712 OFFCURVE",
"430.876 517.547 CURVE",
"388.435 489.088 OFFCURVE",
"434.654 420.16 OFFCURVE",
"477.096 448.619 CURVE",
"423.973 445.749 OFFCURVE",
"429.126 350.361 OFFCURVE",
"482.249 353.231 CURVE",
"438.169 354.576 OFFCURVE",
"435.628 271.269 OFFCURVE",
"479.707 269.924 CURVE",
"435.178 279.272 OFFCURVE",
"427.646 243.39 OFFCURVE",
"472.175 234.042 CURVE",
"426.393 258.277 OFFCURVE",
"411.16 229.499 OFFCURVE",
"456.942 205.265 CURVE",
"420.121 245.581 OFFCURVE",
"393.138 220.937 OFFCURVE",
"429.96 180.622 CURVE",
"421.998 223.285 OFFCURVE",
"338.288 207.663 OFFCURVE",
"346.25 165 CURVE",
"346.25 214.7 OFFCURVE",
"306.667 214.7 OFFCURVE",
"306.667 165 CURVE",
"348.658 185.889 OFFCURVE",
"316.991 249.545 OFFCURVE",
"275 228.656 CURVE",
"324 228.656 OFFCURVE",
"324 280.376 OFFCURVE",
"275 280.376 CURVE",
"330.3 280.376 OFFCURVE",
"330.3 355.968 OFFCURVE",
"275 355.968 CURVE",
"327.5 355.968 OFFCURVE",
"327.5 463.387 OFFCURVE",
"275 463.387 CURVE",
"319.1 463.387 OFFCURVE",
"319.1 495.215 OFFCURVE",
"275 495.215 CURVE"
);
}
);
width = 740;
},
{
associatedMasterId = "EC64484B-0978-4CB1-9EE9-C40A2D8C4059";
background = {
paths = (
{
closed = 1;
nodes = (
"375 0 LINE SMOOTH",
"566 0 OFFCURVE",
"696 87 OFFCURVE",
"704 276 CURVE SMOOTH",
"706 330 OFFCURVE",
"706 368 OFFCURVE",
"704 425 CURVE SMOOTH",
"697 604 OFFCURVE",
"557 700 OFFCURVE",
"370 700 CURVE",
"82 700 LINE SMOOTH",
"67 700 OFFCURVE",
"55 688 OFFCURVE",
"55 673 CURVE SMOOTH",
"55 27 LINE SMOOTH",
"55 12 OFFCURVE",
"67 0 OFFCURVE",
"82 0 CURVE SMOOTH"
);
},
{
closed = 1;
nodes = (
"305 505 LINE",
"365 505 LINE SMOOTH",
"410 505 OFFCURVE",
"447 481 OFFCURVE",
"450 425 CURVE SMOOTH",
"453 370 OFFCURVE",
"453 333 OFFCURVE",
"450 276 CURVE SMOOTH",
"447 220 OFFCURVE",
"414 195 OFFCURVE",
"370 195 CURVE SMOOTH",
"305 195 LINE"
);
}
);
};
hints = (
{
horizontal = 1;
place = "{-2147483648, 0}";
type = Tag;
name = hr00;
}
);
layerId = "7DFBDE95-4B72-4A0C-A2EE-95F85299D254";
name = "Dec 6 20, 14:56";
paths = (
{
closed = 1;
nodes = (
"375 0 LINE SMOOTH",
"566 0 OFFCURVE",
"696 87 OFFCURVE",
"704 276 CURVE SMOOTH",
"706 330 OFFCURVE",
"706 368 OFFCURVE",
"704 425 CURVE SMOOTH",
"697 604 OFFCURVE",
"557 700 OFFCURVE",
"370 700 CURVE",
"82 700 LINE SMOOTH",
"67 700 OFFCURVE",
"55 688 OFFCURVE",
"55 673 CURVE SMOOTH",
"55 27 LINE SMOOTH",
"55 12 OFFCURVE",
"67 0 OFFCURVE",
"82 0 CURVE SMOOTH"
);
},
{
closed = 1;
nodes = (
"305 505 LINE",
"365 505 LINE SMOOTH",
"410 505 OFFCURVE",
"447 481 OFFCURVE",
"450 425 CURVE SMOOTH",
"453 370 OFFCURVE",
"453 333 OFFCURVE",
"450 276 CURVE SMOOTH",
"447 220 OFFCURVE",
"414 195 OFFCURVE",
"370 195 CURVE SMOOTH",
"305 195 LINE"
);
}
);
width = 740;
}
);
leftKerningGroup = I;
rightKerningGroup = D;
unicode = 0044;
userData = {
com.typemytype.robofont.guides = (
{
angle = 0;
isGlobal = 0;
magnetic = 5;
x = 0;
y = 425;
},
{
angle = 0;
isGlobal = 0;
magnetic = 5;
x = 0;
y = 276;
},
{
angle = 0;
isGlobal = 0;
magnetic = 5;
x = 0;
y = 9;
},
{
angle = 90;
isGlobal = 0;
magnetic = 5;
x = 320;
y = 0;
},
{
angle = 90;
isGlobal = 0;
magnetic = 5;
x = 603;
y = 0;
},
{
angle = 90;
isGlobal = 0;
magnetic = 5;
x = 94;
y = 0;
}
);
};
},
{
color = 1;
glyphname = Eth;
layers = (
{
background = {
paths = (
{
closed = 1;
nodes = (
"395 0 LINE SMOOTH",
"586 0 OFFCURVE",
"729 87 OFFCURVE",
"729 276 CURVE SMOOTH",
"729 326 OFFCURVE",
"729 375 OFFCURVE",
"729 425 CURVE SMOOTH",
"729 604 OFFCURVE",
"581 700 OFFCURVE",
"394 700 CURVE SMOOTH",
"106 700 LINE SMOOTH",
"91 700 OFFCURVE",
"79 688 OFFCURVE",
"79 673 CURVE SMOOTH",
"79 429 LINE",
"41 429 LINE",
"26 429 OFFCURVE",
"14 417 OFFCURVE",
"14 402 CURVE SMOOTH",
"14 301 LINE SMOOTH",
"14 286 OFFCURVE",
"26 274 OFFCURVE",
"41 274 CURVE SMOOTH",
"79 274 LINE",
"79 27 LINE SMOOTH",
"79 12 OFFCURVE",
"91 0 OFFCURVE",
"106 0 CURVE SMOOTH"
);
},
{
closed = 1;
nodes = (
"329 274 LINE",
"385 274 LINE SMOOTH",
"400 274 OFFCURVE",
"412 286 OFFCURVE",
"412 301 CURVE SMOOTH",
"412 402 LINE SMOOTH",
"412 417 OFFCURVE",
"400 429 OFFCURVE",
"385 429 CURVE SMOOTH",
"329 429 LINE",
"329 505 LINE",
"394 505 LINE SMOOTH",
"439 505 OFFCURVE",
"469 481 OFFCURVE",
"469 425 CURVE SMOOTH",
"469 375 OFFCURVE",
"469 326 OFFCURVE",
"469 276 CURVE SMOOTH",
"469 220 OFFCURVE",
"438 195 OFFCURVE",
"394 195 CURVE SMOOTH",
"329 195 LINE"
);
}
);
};
hints = (
{
horizontal = 1;
place = "{-2147483648, 0}";
type = Tag;
name = hr00;
}
);
layerId = "EC64484B-0978-4CB1-9EE9-C40A2D8C4059";
paths = (
{
closed = 1;
nodes = (
"403.559 -39.475 OFFCURVE",
"530.243 -23.868 OFFCURVE",
"521.684 45.607 CURVE",
"550.401 -19.327 OFFCURVE",
"630.577 16.13 OFFCURVE",
"601.86 81.064 CURVE",
"661.684 31.013 OFFCURVE",
"740.077 124.713 OFFCURVE",
"680.253 174.764 CURVE",
"756.484 154.035 OFFCURVE",
"772.19 211.792 OFFCURVE",
"695.958 232.522 CURVE",
"773.939 230.797 OFFCURVE",
"776.981 368.381 OFFCURVE",
"699 370.105 CURVE",
"777.756 376.311 OFFCURVE",
"767.83 502.284 OFFCURVE",
"689.074 496.079 CURVE",
"747.946 532.067 OFFCURVE",
"690.182 626.56 OFFCURVE",
"631.31 590.572 CURVE",
"667.146 642.387 OFFCURVE",
"604.863 685.463 OFFCURVE",
"569.027 633.648 CURVE",
"589.071 703.843 OFFCURVE",
"474.2 736.644 OFFCURVE",
"454.155 666.45 CURVE",
"458.514 731.304 OFFCURVE",
"406.641 734.79 OFFCURVE",
"402.282 669.937 CURVE",
"402.357 731.937 OFFCURVE",
"350.075 732 OFFCURVE",
"350 670 CURVE",
"350 738 OFFCURVE",
"266 738 OFFCURVE",
"266 670 CURVE",
"266 748 OFFCURVE",
"150 748 OFFCURVE",
"150 670 CURVE",
"92.676 692.552 OFFCURVE",
"51.676 588.334 OFFCURVE",
"109 565.783 CURVE",
"45 565.783 OFFCURVE",
"45 450.623 OFFCURVE",
"109 450.623 CURVE",
"68.191 501.216 OFFCURVE",
"4.191 449.593 OFFCURVE",
"45 399 CURVE",
"-21.982 400.536 OFFCURVE",
"-22.982 356.92 OFFCURVE",
"44 355.385 CURVE",
"-27.204 331.827 OFFCURVE",
"-10.204 280.443 OFFCURVE",
"61 304 CURVE",
"6.46 265.084 OFFCURVE",
"54.46 197.813 OFFCURVE",
"109 236.729 CURVE",
"32 236.729 OFFCURVE",
"32 114.057 OFFCURVE",
"109 114.057 CURVE",
"49.941 93.913 OFFCURVE",
"78.612 9.855 OFFCURVE",
"137.671 30 CURVE",
"137.671 -33 OFFCURVE",
"201.014 -33 OFFCURVE",
"201.014 30 CURVE",
"201.014 -31 OFFCURVE",
"323.74 -31 OFFCURVE",
"323.74 30 CURVE",
"323.74 -45 OFFCURVE",
"379.164 -45 OFFCURVE",
"379.164 30 CURVE"
);
},
{
closed = 1;
nodes = (
"299 261.44 OFFCURVE",
"361.545 261.44 OFFCURVE",
"361.545 304 CURVE",
"397.783 290.589 OFFCURVE",
"418.238 345.858 OFFCURVE",
"382 359.269 CURVE",
"408.266 393.466 OFFCURVE",
"356.539 433.197 OFFCURVE",
"330.273 399 CURVE",
"369.007 419.189 OFFCURVE",
"337.734 479.189 OFFCURVE",
"299 459 CURVE",
"342.31 449.977 OFFCURVE",
"358.143 525.977 OFFCURVE",
"314.833 535 CURVE",
"314.833 495.24 OFFCURVE",
"346.5 495.24 OFFCURVE",
"346.5 535 CURVE",
"345.079 497.507 OFFCURVE",
"420.841 494.635 OFFCURVE",
"422.262 532.128 CURVE",
"398.002 499.225 OFFCURVE",
"461.295 452.558 OFFCURVE",
"485.555 485.461 CURVE",
"437.677 469.718 OFFCURVE",
"449.058 435.106 OFFCURVE",
"496.936 450.848 CURVE",
"444.562 447.217 OFFCURVE",
"446.626 417.448 OFFCURVE",
"499 421.079 CURVE",
"460.92 421.079 OFFCURVE",
"460.92 342.658 OFFCURVE",
"499 342.658 CURVE",
"463.72 342.658 OFFCURVE",
"463.72 276 OFFCURVE",
"499 276 CURVE",
"453.238 293.518 OFFCURVE",
"420.7 208.518 OFFCURVE",
"466.461 191 CURVE",
"449.811 225.868 OFFCURVE",
"399.089 201.648 OFFCURVE",
"415.739 166.779 CURVE",
"413.612 216.434 OFFCURVE",
"372.081 214.654 OFFCURVE",
"374.208 165 CURVE",
"374.208 198.6 OFFCURVE",
"322.75 198.6 OFFCURVE",
"322.75 165 CURVE",
"357.511 190.985 OFFCURVE",
"333.761 222.756 OFFCURVE",
"299 196.771 CURVE",
"344.5 196.771 OFFCURVE",
"344.5 276.2 OFFCURVE",
"299 276.2 CURVE"
);
}
);
width = 766;
},
{
associatedMasterId = "EC64484B-0978-4CB1-9EE9-C40A2D8C4059";
background = {
paths = (
{
closed = 1;
nodes = (
"395 0 LINE SMOOTH",
"586 0 OFFCURVE",
"729 87 OFFCURVE",
"729 276 CURVE SMOOTH",
"729 326 OFFCURVE",
"729 375 OFFCURVE",
"729 425 CURVE SMOOTH",
"729 604 OFFCURVE",
"581 700 OFFCURVE",
"394 700 CURVE SMOOTH",
"106 700 LINE SMOOTH",
"91 700 OFFCURVE",
"79 688 OFFCURVE",
"79 673 CURVE SMOOTH",
"79 429 LINE",
"41 429 LINE",
"26 429 OFFCURVE",
"14 417 OFFCURVE",
"14 402 CURVE SMOOTH",
"14 301 LINE SMOOTH",
"14 286 OFFCURVE",
"26 274 OFFCURVE",
"41 274 CURVE SMOOTH",
"79 274 LINE",
"79 27 LINE SMOOTH",
"79 12 OFFCURVE",
"91 0 OFFCURVE",
"106 0 CURVE SMOOTH"
);
},
{
closed = 1;
nodes = (
"329 274 LINE",
"385 274 LINE SMOOTH",
"400 274 OFFCURVE",
"412 286 OFFCURVE",
"412 301 CURVE SMOOTH",
"412 402 LINE SMOOTH",
"412 417 OFFCURVE",
"400 429 OFFCURVE",
"385 429 CURVE SMOOTH",
"329 429 LINE",
"329 505 LINE",
"394 505 LINE SMOOTH",
"439 505 OFFCURVE",
"469 481 OFFCURVE",
"469 425 CURVE SMOOTH",
"469 375 OFFCURVE",
"469 326 OFFCURVE",
"469 276 CURVE SMOOTH",
"469 220 OFFCURVE",
"438 195 OFFCURVE",
"394 195 CURVE SMOOTH",
"329 195 LINE"
);
}
);
};
hints = (
{
horizontal = 1;
place = "{-2147483648, 0}";
type = Tag;
name = hr00;
}
);
layerId = "CD0242A6-29AC-4D05-B69A-5CFD858D4DA1";
name = "Dec 6 20, 14:56";
paths = (
{
closed = 1;
nodes = (
"395 0 LINE SMOOTH",
"586 0 OFFCURVE",
"729 87 OFFCURVE",
"729 276 CURVE SMOOTH",
"729 326 OFFCURVE",
"729 375 OFFCURVE",
"729 425 CURVE SMOOTH",
"729 604 OFFCURVE",
"581 700 OFFCURVE",
"394 700 CURVE SMOOTH",
"106 700 LINE SMOOTH",
"91 700 OFFCURVE",
"79 688 OFFCURVE",
"79 673 CURVE SMOOTH",
"79 429 LINE",
"41 429 LINE",
"26 429 OFFCURVE",
"14 417 OFFCURVE",
"14 402 CURVE SMOOTH",
"14 301 LINE SMOOTH",
"14 286 OFFCURVE",
"26 274 OFFCURVE",
"41 274 CURVE SMOOTH",
"79 274 LINE",
"79 27 LINE SMOOTH",
"79 12 OFFCURVE",
"91 0 OFFCURVE",
"106 0 CURVE SMOOTH"
);
},
{
closed = 1;
nodes = (
"329 274 LINE",
"385 274 LINE SMOOTH",
"400 274 OFFCURVE",
"412 286 OFFCURVE",
"412 301 CURVE SMOOTH",
"412 402 LINE SMOOTH",
"412 417 OFFCURVE",
"400 429 OFFCURVE",
"385 429 CURVE SMOOTH",
"329 429 LINE",
"329 505 LINE",
"394 505 LINE SMOOTH",
"439 505 OFFCURVE",
"469 481 OFFCURVE",
"469 425 CURVE SMOOTH",
"469 375 OFFCURVE",
"469 326 OFFCURVE",
"469 276 CURVE SMOOTH",
"469 220 OFFCURVE",
"438 195 OFFCURVE",
"394 195 CURVE SMOOTH",
"329 195 LINE"
);
}
);
width = 766;
}
);
leftKerningGroup = I;
rightKerningGroup = D;
unicode = 00D0;
userData = {
com.typemytype.robofont.guides = (
{
angle = 0;
isGlobal = 0;
magnetic = 5;
x = 0;
y = 350;
}
);
};
},
{
color = 1;
glyphname = Dcroat;
layers = (
{
background = {
paths = (
{
closed = 1;
nodes = (
"395 0 LINE SMOOTH",
"586 0 OFFCURVE",
"720 87 OFFCURVE",
"728 276 CURVE SMOOTH",
"730 330 OFFCURVE",
"730 368 OFFCURVE",
"728 425 CURVE SMOOTH",
"721 604 OFFCURVE",
"581 700 OFFCURVE",
"394 700 CURVE",
"106 700 LINE SMOOTH",
"91 700 OFFCURVE",
"79 688 OFFCURVE",
"79 673 CURVE SMOOTH",
"79 430 LINE",
"41 430 LINE SMOOTH",
"26 430 OFFCURVE",
"14 418 OFFCURVE",
"14 403 CURVE SMOOTH",
"14 302 LINE SMOOTH",
"14 287 OFFCURVE",
"26 275 OFFCURVE",
"41 275 CURVE SMOOTH",
"79 275 LINE",
"79 27 LINE SMOOTH",
"79 12 OFFCURVE",
"91 0 OFFCURVE",
"106 0 CURVE SMOOTH"
);
},
{
closed = 1;
nodes = (
"329 275 LINE",
"385 275 LINE SMOOTH",
"400 275 OFFCURVE",
"412 287 OFFCURVE",
"412 302 CURVE SMOOTH",
"412 403 LINE SMOOTH",
"412 418 OFFCURVE",
"400 430 OFFCURVE",
"385 430 CURVE SMOOTH",
"329 430 LINE",
"329 505 LINE",
"394 505 LINE SMOOTH",
"439 505 OFFCURVE",
"471 481 OFFCURVE",
"474 425 CURVE SMOOTH",
"477 370 OFFCURVE",
"477 333 OFFCURVE",
"474 276 CURVE SMOOTH",
"471 220 OFFCURVE",
"438 195 OFFCURVE",
"394 195 CURVE SMOOTH",
"329 195 LINE"
);
}
);
};
hints = (
{
horizontal = 1;
place = "{-2147483648, 0}";
type = Tag;
name = hr00;
}
);
layerId = "EC64484B-0978-4CB1-9EE9-C40A2D8C4059";
paths = (
{
closed = 1;
nodes = (
"402.864 -31.499 OFFCURVE",
"529.891 -15.257 OFFCURVE",
"522.027 46.243 CURVE",
"552.722 -0.596 OFFCURVE",
"681.371 83.713 OFFCURVE",
"650.676 130.551 CURVE",
"713.885 105.479 OFFCURVE",
"757.842 216.298 OFFCURVE",
"694.633 241.37 CURVE",
"761.536 237.776 OFFCURVE",
"766.276 326.019 OFFCURVE",
"699.373 329.612 CURVE",
"772.365 330.674 OFFCURVE",
"770.992 425.062 OFFCURVE",
"698 424 CURVE",
"761.473 442.087 OFFCURVE",
"726.591 564.505 OFFCURVE",
"663.117 546.419 CURVE",
"698.546 587.7 OFFCURVE",
"590.389 680.525 OFFCURVE",
"554.96 639.244 CURVE",
"571.717 704.115 OFFCURVE",
"463.151 732.159 OFFCURVE",
"446.394 667.288 CURVE",
"448.64 727.246 OFFCURVE",
"376.246 729.958 OFFCURVE",
"374 670 CURVE",
"374 733 OFFCURVE",
"258 733 OFFCURVE",
"258 670 CURVE",
"258 735 OFFCURVE",
"214 735 OFFCURVE",
"214 670 CURVE",
"214 737 OFFCURVE",
"154 737 OFFCURVE",
"154 670 CURVE",
"110.697 713.811 OFFCURVE",
"65.697 669.333 OFFCURVE",
"109 625.522 CURVE",
"45 625.522 OFFCURVE",
"45 582 OFFCURVE",
"109 582 CURVE",
"49 582 OFFCURVE",
"49 518.696 OFFCURVE",
"109 518.696 CURVE",
"38.923 535.227 OFFCURVE",
"10.923 416.531 OFFCURVE",
"81 400 CURVE",
"58.534 466.297 OFFCURVE",
"21.534 453.758 OFFCURVE",
"44 387.462 CURVE",
"-8.074 369.148 OFFCURVE",
"20.926 286.687 OFFCURVE",
"73 305 CURVE",
"22.143 269.538 OFFCURVE",
"58.143 217.909 OFFCURVE",
"109 253.371 CURVE",
"48 253.371 OFFCURVE",
"48 122.314 OFFCURVE",
"109 122.314 CURVE",
"39 122.314 OFFCURVE",
"39 66.714 OFFCURVE",
"109 66.714 CURVE",
"47.764 51.909 OFFCURVE",
"56.641 15.195 OFFCURVE",
"117.877 30 CURVE",
"117.877 -41 OFFCURVE",
"228.726 -41 OFFCURVE",
"228.726 30 CURVE",
"228.726 -49 OFFCURVE",
"375.205 -49 OFFCURVE",
"375.205 30 CURVE"
);
},
{
closed = 1;
nodes = (
"299.442 263.562 OFFCURVE",
"382.442 264.447 OFFCURVE",
"382 305.885 CURVE",
"424 305.885 OFFCURVE",
"424 375.808 OFFCURVE",
"382 375.808 CURVE",
"423.97 377.385 OFFCURVE",
"423.061 401.577 OFFCURVE",
"381.091 400 CURVE",
"381.091 436.4 OFFCURVE",
"353.727 436.4 OFFCURVE",
"353.727 400 CURVE",
"379.467 429.565 OFFCURVE",
"324.74 477.212 OFFCURVE",
"299 447.647 CURVE",
"345.9 447.647 OFFCURVE",
"345.9 511.176 OFFCURVE",
"299 511.176 CURVE",
"321.057 463.535 OFFCURVE",
"372.515 487.358 OFFCURVE",
"350.458 535 CURVE",
"349.135 491.9 OFFCURVE",
"416.994 489.816 OFFCURVE",
"418.318 532.916 CURVE",
"407.126 497.104 OFFCURVE",
"434.264 488.623 OFFCURVE",
"445.455 524.435 CURVE",
"418.841 499.603 OFFCURVE",
"467.665 447.275 OFFCURVE",
"494.279 472.107 CURVE",
"442.177 465.657 OFFCURVE",
"453.849 371.382 OFFCURVE",
"505.951 377.832 CURVE",
"462.272 377.459 OFFCURVE",
"462.553 344.657 OFFCURVE",
"506.231 345.03 CURVE",
"467.599 345.824 OFFCURVE",
"466.84 308.928 OFFCURVE",
"505.472 308.133 CURVE",
"457.353 317.384 OFFCURVE",
"439.545 224.756 OFFCURVE",
"487.664 215.504 CURVE",
"466.819 242.567 OFFCURVE",
"406.925 196.434 OFFCURVE",
"427.77 169.372 CURVE",
"425.796 209.643 OFFCURVE",
"336.609 205.272 OFFCURVE",
"338.583 165 CURVE",
"375.791 205.911 OFFCURVE",
"336.207 241.911 OFFCURVE",
"299 201 CURVE"
);
}
);
width = 764;
},
{
associatedMasterId = "EC64484B-0978-4CB1-9EE9-C40A2D8C4059";
background = {
paths = (
{
closed = 1;
nodes = (
"395 0 LINE SMOOTH",
"586 0 OFFCURVE",
"720 87 OFFCURVE",
"728 276 CURVE SMOOTH",
"730 330 OFFCURVE",
"730 368 OFFCURVE",
"728 425 CURVE SMOOTH",
"721 604 OFFCURVE",
"581 700 OFFCURVE",
"394 700 CURVE",
"106 700 LINE SMOOTH",
"91 700 OFFCURVE",
"79 688 OFFCURVE",
"79 673 CURVE SMOOTH",
"79 430 LINE",
"41 430 LINE SMOOTH",
"26 430 OFFCURVE",
"14 418 OFFCURVE",
"14 403 CURVE SMOOTH",
"14 302 LINE SMOOTH",
"14 287 OFFCURVE",
"26 275 OFFCURVE",
"41 275 CURVE SMOOTH",
"79 275 LINE",
"79 27 LINE SMOOTH",
"79 12 OFFCURVE",
"91 0 OFFCURVE",
"106 0 CURVE SMOOTH"
);
},
{
closed = 1;
nodes = (
"329 275 LINE",
"385 275 LINE SMOOTH",
"400 275 OFFCURVE",
"412 287 OFFCURVE",
"412 302 CURVE SMOOTH",
"412 403 LINE SMOOTH",
"412 418 OFFCURVE",
"400 430 OFFCURVE",
"385 430 CURVE SMOOTH",
"329 430 LINE",
"329 505 LINE",
"394 505 LINE SMOOTH",
"439 505 OFFCURVE",
"471 481 OFFCURVE",
"474 425 CURVE SMOOTH",
"477 370 OFFCURVE",
"477 333 OFFCURVE",
"474 276 CURVE SMOOTH",
"471 220 OFFCURVE",
"438 195 OFFCURVE",
"394 195 CURVE SMOOTH",
"329 195 LINE"
);
}
);
};
hints = (
{
horizontal = 1;
place = "{-2147483648, 0}";
type = Tag;
name = hr00;
}
);
layerId = "64B36BEF-4DB3-428B-B648-48D3B3A70964";
name = "Dec 6 20, 14:56";
paths = (
{
closed = 1;
nodes = (
"395 0 LINE SMOOTH",
"586 0 OFFCURVE",
"720 87 OFFCURVE",
"728 276 CURVE SMOOTH",
"730 330 OFFCURVE",
"730 368 OFFCURVE",
"728 425 CURVE SMOOTH",
"721 604 OFFCURVE",
"581 700 OFFCURVE",
"394 700 CURVE",
"106 700 LINE SMOOTH",
"91 700 OFFCURVE",
"79 688 OFFCURVE",
"79 673 CURVE SMOOTH",
"79 430 LINE",
"41 430 LINE SMOOTH",
"26 430 OFFCURVE",
"14 418 OFFCURVE",
"14 403 CURVE SMOOTH",
"14 302 LINE SMOOTH",
"14 287 OFFCURVE",
"26 275 OFFCURVE",
"41 275 CURVE SMOOTH",
"79 275 LINE",
"79 27 LINE SMOOTH",
"79 12 OFFCURVE",
"91 0 OFFCURVE",
"106 0 CURVE SMOOTH"
);
},
{
closed = 1;
nodes = (
"329 275 LINE",
"385 275 LINE SMOOTH",
"400 275 OFFCURVE",
"412 287 OFFCURVE",
"412 302 CURVE SMOOTH",
"412 403 LINE SMOOTH",
"412 418 OFFCURVE",
"400 430 OFFCURVE",
"385 430 CURVE SMOOTH",
"329 430 LINE",
"329 505 LINE",
"394 505 LINE SMOOTH",
"439 505 OFFCURVE",
"471 481 OFFCURVE",
"474 425 CURVE SMOOTH",
"477 370 OFFCURVE",
"477 333 OFFCURVE",
"474 276 CURVE SMOOTH",
"471 220 OFFCURVE",
"438 195 OFFCURVE",
"394 195 CURVE SMOOTH",
"329 195 LINE"
);
}
);
width = 764;
}
);
leftKerningGroup = I;
rightKerningGroup = D;
unicode = 0110;
userData = {
com.typemytype.robofont.guides = (
{
angle = 0;
isGlobal = 0;
magnetic = 5;
x = 0;
y = 352;
},
{
angle = 90;
isGlobal = 0;
magnetic = 5;
x = 340;
y = 0;
},
{
angle = 90;
isGlobal = 0;
magnetic = 5;
x = 105;
y = 0;
}
);
};
},
{
color = 1;
glyphname = E;
layers = (
{
anchors = (
{
name = bottom;
position = "{334, 0}";
},
{
name = ogonek;
position = "{600, 10}";
},
{
name = top;
position = "{334, 700}";
},
{
name = topleft;
position = "{20, 700}";
}
);
background = {
anchors = (
{
name = bottom;
position = "{334, 0}";
},
{
name = ogonek;
position = "{600, 10}";
},
{
name = top;
position = "{334, 700}";
},
{
name = topleft;
position = "{20, 700}";
}
);
paths = (
{
closed = 1;
nodes = (
"603 0 LINE SMOOTH",
"618 0 OFFCURVE",
"630 12 OFFCURVE",
"630 27 CURVE SMOOTH",
"630 168 LINE SMOOTH",
"630 183 OFFCURVE",
"618 195 OFFCURVE",
"603 195 CURVE SMOOTH",
"295 195 LINE",
"295 258 LINE",
"573 258 LINE SMOOTH",
"588 258 OFFCURVE",
"600 270 OFFCURVE",
"600 285 CURVE SMOOTH",
"600 415 LINE SMOOTH",
"600 430 OFFCURVE",
"588 442 OFFCURVE",
"573 442 CURVE SMOOTH",
"295 442 LINE",
"295 505 LINE",
"595 505 LINE SMOOTH",
"610 505 OFFCURVE",
"622 517 OFFCURVE",
"622 532 CURVE SMOOTH",
"622 673 LINE SMOOTH",
"622 688 OFFCURVE",
"610 700 OFFCURVE",
"595 700 CURVE SMOOTH",
"82 700 LINE SMOOTH",
"67 700 OFFCURVE",
"55 688 OFFCURVE",
"55 673 CURVE SMOOTH",
"55 27 LINE SMOOTH",
"55 12 OFFCURVE",
"67 0 OFFCURVE",
"82 0 CURVE SMOOTH"
);
}
);
};
layerId = "EC64484B-0978-4CB1-9EE9-C40A2D8C4059";
paths = (
{
closed = 1;
nodes = (
"674.948 32.724 OFFCURVE",
"671.948 111.974 OFFCURVE",
"600 109.25 CURVE",
"661.377 123.458 OFFCURVE",
"648.471 179.208 OFFCURVE",
"587.094 165 CURVE",
"587.094 213 OFFCURVE",
"435.988 213 OFFCURVE",
"435.988 165 CURVE",
"435.988 220.2 OFFCURVE",
"372.365 220.2 OFFCURVE",
"372.365 165 CURVE",
"372.365 215.4 OFFCURVE",
"300.788 215.4 OFFCURVE",
"300.788 165 CURVE",
"343.295 190.56 OFFCURVE",
"307.507 250.076 OFFCURVE",
"265 224.516 CURVE",
"297.324 183.783 OFFCURVE",
"377.324 247.267 OFFCURVE",
"345 288 CURVE",
"345 240 OFFCURVE",
"485 240 OFFCURVE",
"485 288 CURVE",
"485 225.6 OFFCURVE",
"561 225.6 OFFCURVE",
"561 288 CURVE",
"620.829 283.48 OFFCURVE",
"629.829 402.601 OFFCURVE",
"570 407.121 CURVE",
"577.321 462.641 OFFCURVE",
"540.321 467.519 OFFCURVE",
"533 412 CURVE",
"533 460 OFFCURVE",
"417 460 OFFCURVE",
"417 412 CURVE",
"417 472.8 OFFCURVE",
"293 472.8 OFFCURVE",
"293 412 CURVE",
"337.441 440.51 OFFCURVE",
"309.441 484.156 OFFCURVE",
"265 455.645 CURVE",
"334 455.645 OFFCURVE",
"334 535 OFFCURVE",
"265 535 CURVE",
"265 480.6 OFFCURVE",
"388.253 480.6 OFFCURVE",
"388.253 535 CURVE",
"388.253 484.6 OFFCURVE",
"491.627 484.6 OFFCURVE",
"491.627 535 CURVE",
"494.474 475.869 OFFCURVE",
"594.847 480.702 OFFCURVE",
"592 539.833 CURVE",
"656 539.833 OFFCURVE",
"656 606.417 OFFCURVE",
"592 606.417 CURVE",
"660.923 603.165 OFFCURVE",
"663.923 666.748 OFFCURVE",
"595 670 CURVE",
"595 748 OFFCURVE",
"451.837 748 OFFCURVE",
"451.837 670 CURVE",
"451.837 746 OFFCURVE",
"384.233 746 OFFCURVE",
"384.233 670 CURVE",
"384.233 736 OFFCURVE",
"292.767 736 OFFCURVE",
"292.767 670 CURVE",
"292.767 746 OFFCURVE",
"193.349 746 OFFCURVE",
"193.349 670 CURVE",
"180.262 726.915 OFFCURVE",
"71.913 702.001 OFFCURVE",
"85 645.086 CURVE",
"22 645.086 OFFCURVE",
"22 565.333 OFFCURVE",
"85 565.333 CURVE",
"21 565.333 OFFCURVE",
"21 461.654 OFFCURVE",
"85 461.654 CURVE",
"21 461.654 OFFCURVE",
"21 389.877 OFFCURVE",
"85 389.877 CURVE",
"20 389.877 OFFCURVE",
"20 298.16 OFFCURVE",
"85 298.16 CURVE",
"15 298.16 OFFCURVE",
"15 150.617 OFFCURVE",
"85 150.617 CURVE",
"17 150.617 OFFCURVE",
"17 106.753 OFFCURVE",
"85 106.753 CURVE",
"11.496 98.2 OFFCURVE",
"20.427 21.447 OFFCURVE",
"93.931 30 CURVE",
"93.931 -46 OFFCURVE",
"229.153 -46 OFFCURVE",
"229.153 30 CURVE",
"229.153 -41 OFFCURVE",
"356.42 -41 OFFCURVE",
"356.42 30 CURVE",
"356.42 -45 OFFCURVE",
"404.145 -45 OFFCURVE",
"404.145 30 CURVE",
"404.145 -48 OFFCURVE",
"499.595 -48 OFFCURVE",
"499.595 30 CURVE"
);
}
);
width = 667;
},
{
anchors = (
{
name = bottom;
position = "{334, 0}";
},
{
name = ogonek;
position = "{600, 10}";
},
{
name = top;
position = "{334, 700}";
},
{
name = topleft;
position = "{20, 700}";
}
);
associatedMasterId = "EC64484B-0978-4CB1-9EE9-C40A2D8C4059";
background = {
anchors = (
{
name = bottom;
position = "{334, 0}";
},
{
name = ogonek;
position = "{600, 10}";
},
{
name = top;
position = "{334, 700}";
},
{
name = topleft;
position = "{20, 700}";
}
);
paths = (
{
closed = 1;
nodes = (
"603 0 LINE SMOOTH",
"618 0 OFFCURVE",
"630 12 OFFCURVE",
"630 27 CURVE SMOOTH",
"630 168 LINE SMOOTH",
"630 183 OFFCURVE",
"618 195 OFFCURVE",
"603 195 CURVE SMOOTH",
"295 195 LINE",
"295 258 LINE",
"573 258 LINE SMOOTH",
"588 258 OFFCURVE",
"600 270 OFFCURVE",
"600 285 CURVE SMOOTH",
"600 415 LINE SMOOTH",
"600 430 OFFCURVE",
"588 442 OFFCURVE",
"573 442 CURVE SMOOTH",
"295 442 LINE",
"295 505 LINE",
"595 505 LINE SMOOTH",
"610 505 OFFCURVE",
"622 517 OFFCURVE",
"622 532 CURVE SMOOTH",
"622 673 LINE SMOOTH",
"622 688 OFFCURVE",
"610 700 OFFCURVE",
"595 700 CURVE SMOOTH",
"82 700 LINE SMOOTH",
"67 700 OFFCURVE",
"55 688 OFFCURVE",
"55 673 CURVE SMOOTH",
"55 27 LINE SMOOTH",
"55 12 OFFCURVE",
"67 0 OFFCURVE",
"82 0 CURVE SMOOTH"
);
}
);
};
layerId = "4F01BD80-9A82-4C60-8149-D41429807A0B";
name = "Dec 6 20, 14:56";
paths = (
{
closed = 1;
nodes = (
"603 0 LINE SMOOTH",
"618 0 OFFCURVE",
"630 12 OFFCURVE",
"630 27 CURVE SMOOTH",
"630 168 LINE SMOOTH",
"630 183 OFFCURVE",
"618 195 OFFCURVE",
"603 195 CURVE SMOOTH",
"295 195 LINE",
"295 258 LINE",
"573 258 LINE SMOOTH",
"588 258 OFFCURVE",
"600 270 OFFCURVE",
"600 285 CURVE SMOOTH",
"600 415 LINE SMOOTH",
"600 430 OFFCURVE",
"588 442 OFFCURVE",
"573 442 CURVE SMOOTH",
"295 442 LINE",
"295 505 LINE",
"595 505 LINE SMOOTH",
"610 505 OFFCURVE",
"622 517 OFFCURVE",
"622 532 CURVE SMOOTH",
"622 673 LINE SMOOTH",
"622 688 OFFCURVE",
"610 700 OFFCURVE",
"595 700 CURVE SMOOTH",
"82 700 LINE SMOOTH",
"67 700 OFFCURVE",
"55 688 OFFCURVE",
"55 673 CURVE SMOOTH",
"55 27 LINE SMOOTH",
"55 12 OFFCURVE",
"67 0 OFFCURVE",
"82 0 CURVE SMOOTH"
);
}
);
width = 667;
}
);
leftKerningGroup = I;
rightKerningGroup = E;
unicode = 0045;
userData = {
com.typemytype.robofont.guides = (
{
angle = 0;
isGlobal = 0;
magnetic = 5;
x = 0;
y = 334;
},
{
angle = 0;
isGlobal = 0;
magnetic = 5;
x = 0;
y = 9;
},
{
angle = 0;
isGlobal = 0;
magnetic = 5;
x = 0;
y = 376;
},
{
angle = 0;
isGlobal = 0;
magnetic = 5;
x = 0;
y = 691;
},
{
angle = 0;
isGlobal = 0;
magnetic = 5;
x = 0;
y = 649;
},
{
angle = 90;
isGlobal = 0;
magnetic = 5;
x = 664;
y = 0;
},
{
angle = 90;
isGlobal = 0;
magnetic = 5;
x = 94;
y = 0;
},
{
angle = 90;
isGlobal = 0;
magnetic = 5;
x = 511;
y = 0;
}
);
};
},
{
color = 1;
glyphname = Eogonek;
layers = (
{
background = {
paths = (
{
closed = 1;
nodes = (
"603 -220 LINE SMOOTH",
"618 -220 OFFCURVE",
"630 -208 OFFCURVE",
"630 -193 CURVE SMOOTH",
"630 -125 LINE SMOOTH",
"630 -110 OFFCURVE",
"618 -98 OFFCURVE",
"603 -98 CURVE SMOOTH",
"593 -98 LINE SMOOTH",
"554 -98 OFFCURVE",
"543 -70 OFFCURVE",
"543 -49 CURVE SMOOTH",
"543 -28 OFFCURVE",
"554 0 OFFCURVE",
"593 0 CURVE SMOOTH",
"603 0 LINE SMOOTH",
"618 0 OFFCURVE",
"630 12 OFFCURVE",
"630 27 CURVE SMOOTH",
"630 168 LINE SMOOTH",
"630 183 OFFCURVE",
"618 195 OFFCURVE",
"603 195 CURVE SMOOTH",
"295 195 LINE",
"295 258 LINE",
"573 258 LINE SMOOTH",
"588 258 OFFCURVE",
"600 270 OFFCURVE",
"600 285 CURVE SMOOTH",
"600 415 LINE SMOOTH",
"600 430 OFFCURVE",
"588 442 OFFCURVE",
"573 442 CURVE SMOOTH",
"295 442 LINE",
"295 505 LINE",
"595 505 LINE SMOOTH",
"610 505 OFFCURVE",
"622 517 OFFCURVE",
"622 532 CURVE SMOOTH",
"622 673 LINE SMOOTH",
"622 688 OFFCURVE",
"610 700 OFFCURVE",
"595 700 CURVE SMOOTH",
"82 700 LINE SMOOTH",
"67 700 OFFCURVE",
"55 688 OFFCURVE",
"55 673 CURVE SMOOTH",
"55 27 LINE SMOOTH",
"55 12 OFFCURVE",
"67 0 OFFCURVE",
"82 0 CURVE SMOOTH",
"422 0 LINE",
"419 -16 OFFCURVE",
"417 -31 OFFCURVE",
"417 -49 CURVE SMOOTH",
"417 -144 OFFCURVE",
"468 -220 OFFCURVE",
"589 -220 CURVE SMOOTH"
);
}
);
};
hints = (
{
horizontal = 1;
place = "{-2147483648, 0}";
type = Tag;
name = hr01;
}
);
layerId = "EC64484B-0978-4CB1-9EE9-C40A2D8C4059";
paths = (
{
closed = 1;
nodes = (
"653.682 -166.181 OFFCURVE",
"623.592 -102.158 OFFCURVE",
"572.911 -125.978 CURVE",
"628.695 -74.363 OFFCURVE",
"569.665 -10.564 OFFCURVE",
"513.881 -62.179 CURVE",
"565.855 -110.549 OFFCURVE",
"651.641 -18.37 OFFCURVE",
"599.667 30 CURVE",
"672.666 29.721 OFFCURVE",
"673 116.804 OFFCURVE",
"600 117.083 CURVE",
"643.865 158.02 OFFCURVE",
"599.148 205.937 OFFCURVE",
"555.282 165 CURVE",
"555.282 227.4 OFFCURVE",
"451.894 227.4 OFFCURVE",
"451.894 165 CURVE",
"451.894 223.4 OFFCURVE",
"296.812 223.4 OFFCURVE",
"296.812 165 CURVE",
"340.548 190.047 OFFCURVE",
"308.736 245.595 OFFCURVE",
"265 220.548 CURVE",
"299.457 183.767 OFFCURVE",
"371.457 251.219 OFFCURVE",
"337 288 CURVE",
"337 225.6 OFFCURVE",
"381 225.6 OFFCURVE",
"381 288 CURVE",
"381 232.8 OFFCURVE",
"441 232.8 OFFCURVE",
"441 288 CURVE",
"441 235.2 OFFCURVE",
"509 235.2 OFFCURVE",
"509 288 CURVE",
"536.053 242.657 OFFCURVE",
"597.053 279.051 OFFCURVE",
"570 324.394 CURVE",
"618.606 340.484 OFFCURVE",
"589.606 428.09 OFFCURVE",
"541 412 CURVE",
"541 468.8 OFFCURVE",
"425 468.8 OFFCURVE",
"425 412 CURVE",
"425 464 OFFCURVE",
"345 464 OFFCURVE",
"345 412 CURVE",
"384.958 456.759 OFFCURVE",
"304.958 528.178 OFFCURVE",
"265 483.419 CURVE",
"329.303 468.55 OFFCURVE",
"341.231 520.13 OFFCURVE",
"276.928 535 CURVE",
"276.928 479 OFFCURVE",
"404.157 479 OFFCURVE",
"404.157 535 CURVE",
"404.157 486.2 OFFCURVE",
"463.795 486.2 OFFCURVE",
"463.795 535 CURVE",
"463.795 472.6 OFFCURVE",
"591.024 472.6 OFFCURVE",
"591.024 535 CURVE",
"651.019 534.223 OFFCURVE",
"651.995 609.556 OFFCURVE",
"592 610.333 CURVE",
"652 610.333 OFFCURVE",
"652 661.25 OFFCURVE",
"592 661.25 CURVE",
"596.424 730.108 OFFCURVE",
"460.238 738.858 OFFCURVE",
"455.814 670 CURVE",
"455.814 732 OFFCURVE",
"316.628 732 OFFCURVE",
"316.628 670 CURVE",
"316.628 747 OFFCURVE",
"177.442 747 OFFCURVE",
"177.442 670 CURVE",
"152.86 725.609 OFFCURVE",
"60.418 684.745 OFFCURVE",
"85 629.136 CURVE",
"13 629.136 OFFCURVE",
"13 569.321 OFFCURVE",
"85 569.321 CURVE",
"16 569.321 OFFCURVE",
"16 489.568 OFFCURVE",
"85 489.568 CURVE",
"12 489.568 OFFCURVE",
"12 365.951 OFFCURVE",
"85 365.951 CURVE",
"8 365.951 OFFCURVE",
"8 234.358 OFFCURVE",
"85 234.358 CURVE",
"15 234.358 OFFCURVE",
"15 134.667 OFFCURVE",
"85 134.667 CURVE",
"26.371 118.564 OFFCURVE",
"55.119 13.897 OFFCURVE",
"113.747 30 CURVE",
"113.747 -42 OFFCURVE",
"201.053 -42 OFFCURVE",
"201.053 30 CURVE",
"201.053 -31 OFFCURVE",
"351.853 -31 OFFCURVE",
"351.853 30 CURVE",
"351.853 -40 OFFCURVE",
"451.063 -40 OFFCURVE",
"451.063 30 CURVE",
"383.113 32.602 OFFCURVE",
"381.226 -16.692 OFFCURVE",
"449.176 -19.293 CURVE",
"380.185 -18.143 OFFCURVE",
"379.287 -72.043 OFFCURVE",
"448.277 -73.193 CURVE",
"384.159 -103.687 OFFCURVE",
"424.807 -189.153 OFFCURVE",
"488.924 -158.658 CURVE",
"469.199 -221.642 OFFCURVE",
"569.275 -252.983 OFFCURVE",
"589 -190 CURVE"
);
}
);
width = 667;
},
{
associatedMasterId = "EC64484B-0978-4CB1-9EE9-C40A2D8C4059";
background = {
paths = (
{
closed = 1;
nodes = (
"603 -220 LINE SMOOTH",
"618 -220 OFFCURVE",
"630 -208 OFFCURVE",
"630 -193 CURVE SMOOTH",
"630 -125 LINE SMOOTH",
"630 -110 OFFCURVE",
"618 -98 OFFCURVE",
"603 -98 CURVE SMOOTH",
"593 -98 LINE SMOOTH",
"554 -98 OFFCURVE",
"543 -70 OFFCURVE",
"543 -49 CURVE SMOOTH",
"543 -28 OFFCURVE",
"554 0 OFFCURVE",
"593 0 CURVE SMOOTH",
"603 0 LINE SMOOTH",
"618 0 OFFCURVE",
"630 12 OFFCURVE",
"630 27 CURVE SMOOTH",
"630 168 LINE SMOOTH",
"630 183 OFFCURVE",
"618 195 OFFCURVE",
"603 195 CURVE SMOOTH",
"295 195 LINE",
"295 258 LINE",
"573 258 LINE SMOOTH",
"588 258 OFFCURVE",
"600 270 OFFCURVE",
"600 285 CURVE SMOOTH",
"600 415 LINE SMOOTH",
"600 430 OFFCURVE",
"588 442 OFFCURVE",
"573 442 CURVE SMOOTH",
"295 442 LINE",
"295 505 LINE",
"595 505 LINE SMOOTH",
"610 505 OFFCURVE",
"622 517 OFFCURVE",
"622 532 CURVE SMOOTH",
"622 673 LINE SMOOTH",
"622 688 OFFCURVE",
"610 700 OFFCURVE",
"595 700 CURVE SMOOTH",
"82 700 LINE SMOOTH",
"67 700 OFFCURVE",
"55 688 OFFCURVE",
"55 673 CURVE SMOOTH",
"55 27 LINE SMOOTH",
"55 12 OFFCURVE",
"67 0 OFFCURVE",
"82 0 CURVE SMOOTH",
"422 0 LINE",
"419 -16 OFFCURVE",
"417 -31 OFFCURVE",
"417 -49 CURVE SMOOTH",
"417 -144 OFFCURVE",
"468 -220 OFFCURVE",
"589 -220 CURVE SMOOTH"
);
}
);
};
hints = (
{
horizontal = 1;
place = "{-2147483648, 0}";
type = Tag;
name = hr01;
}
);
layerId = "59C49397-D12F-4BF9-84DB-D392806D3910";
name = "Dec 6 20, 14:56";
paths = (
{
closed = 1;
nodes = (
"603 -220 LINE SMOOTH",
"618 -220 OFFCURVE",
"630 -208 OFFCURVE",
"630 -193 CURVE SMOOTH",
"630 -125 LINE SMOOTH",
"630 -110 OFFCURVE",
"618 -98 OFFCURVE",
"603 -98 CURVE SMOOTH",
"593 -98 LINE SMOOTH",
"554 -98 OFFCURVE",
"543 -70 OFFCURVE",
"543 -49 CURVE SMOOTH",
"543 -28 OFFCURVE",
"554 0 OFFCURVE",
"593 0 CURVE SMOOTH",
"603 0 LINE SMOOTH",
"618 0 OFFCURVE",
"630 12 OFFCURVE",
"630 27 CURVE SMOOTH",
"630 168 LINE SMOOTH",
"630 183 OFFCURVE",
"618 195 OFFCURVE",
"603 195 CURVE SMOOTH",
"295 195 LINE",
"295 258 LINE",
"573 258 LINE SMOOTH",
"588 258 OFFCURVE",
"600 270 OFFCURVE",
"600 285 CURVE SMOOTH",
"600 415 LINE SMOOTH",
"600 430 OFFCURVE",
"588 442 OFFCURVE",
"573 442 CURVE SMOOTH",
"295 442 LINE",
"295 505 LINE",
"595 505 LINE SMOOTH",
"610 505 OFFCURVE",
"622 517 OFFCURVE",
"622 532 CURVE SMOOTH",
"622 673 LINE SMOOTH",
"622 688 OFFCURVE",
"610 700 OFFCURVE",
"595 700 CURVE SMOOTH",
"82 700 LINE SMOOTH",
"67 700 OFFCURVE",
"55 688 OFFCURVE",
"55 673 CURVE SMOOTH",
"55 27 LINE SMOOTH",
"55 12 OFFCURVE",
"67 0 OFFCURVE",
"82 0 CURVE SMOOTH",
"422 0 LINE",
"419 -16 OFFCURVE",
"417 -31 OFFCURVE",
"417 -49 CURVE SMOOTH",
"417 -144 OFFCURVE",
"468 -220 OFFCURVE",
"589 -220 CURVE SMOOTH"
);
}
);
width = 667;
}
);
leftKerningGroup = I;
rightKerningGroup = E;
unicode = 0118;
userData = {
com.typemytype.robofont.guides = (
{
angle = 90;
isGlobal = 0;
magnetic = 5;
x = 355;
y = 0;
}
);
};
},
{
color = 1;
glyphname = F;
layers = (
{
background = {
paths = (
{
closed = 1;
nodes = (
"273 0 LINE SMOOTH",
"288 0 OFFCURVE",
"300 12 OFFCURVE",
"300 27 CURVE SMOOTH",
"300 215 LINE",
"566 215 LINE SMOOTH",
"581 215 OFFCURVE",
"593 227 OFFCURVE",
"593 242 CURVE SMOOTH",
"593 393 LINE SMOOTH",
"593 408 OFFCURVE",
"581 420 OFFCURVE",
"566 420 CURVE SMOOTH",
"300 420 LINE",
"300 494 LINE",
"586 494 LINE SMOOTH",
"601 494 OFFCURVE",
"613 506 OFFCURVE",
"613 521 CURVE SMOOTH",
"613 673 LINE SMOOTH",
"613 688 OFFCURVE",
"601 700 OFFCURVE",
"586 700 CURVE SMOOTH",
"82 700 LINE SMOOTH",
"67 700 OFFCURVE",
"55 688 OFFCURVE",
"55 673 CURVE SMOOTH",
"55 27 LINE SMOOTH",
"55 12 OFFCURVE",
"67 0 OFFCURVE",
"82 0 CURVE SMOOTH"
);
}
);
};
hints = (
{
horizontal = 1;
place = "{-2147483648, 0}";
type = Tag;
name = hr00;
}
);
layerId = "EC64484B-0978-4CB1-9EE9-C40A2D8C4059";
paths = (
{
closed = 1;
nodes = (
"337.966 32.116 OFFCURVE",
"334.966 124.243 OFFCURVE",
"270 122.127 CURVE",
"339 122.127 OFFCURVE",
"339 173.655 OFFCURVE",
"270 173.655 CURVE",
"322.843 123.29 OFFCURVE",
"390.843 194.635 OFFCURVE",
"338 245 CURVE",
"338 183 OFFCURVE",
"494 183 OFFCURVE",
"494 245 CURVE",
"494 181 OFFCURVE",
"566 181 OFFCURVE",
"566 245 CURVE",
"643.925 248.411 OFFCURVE",
"640.925 316.938 OFFCURVE",
"563 313.526 CURVE",
"612.314 347.704 OFFCURVE",
"559.314 424.177 OFFCURVE",
"510 390 CURVE",
"510 442.8 OFFCURVE",
"378 442.8 OFFCURVE",
"378 390 CURVE",
"394.725 440.924 OFFCURVE",
"286.725 476.394 OFFCURVE",
"270 425.471 CURVE",
"342 425.471 OFFCURVE",
"342 500.353 OFFCURVE",
"270 500.353 CURVE",
"281.839 438.272 OFFCURVE",
"405.839 461.919 OFFCURVE",
"394 524 CURVE",
"394 463.2 OFFCURVE",
"446 463.2 OFFCURVE",
"446 524 CURVE",
"446 469.6 OFFCURVE",
"486 469.6 OFFCURVE",
"486 524 CURVE",
"486 471.2 OFFCURVE",
"550 471.2 OFFCURVE",
"550 524 CURVE",
"594.746 506.628 OFFCURVE",
"627.746 591.628 OFFCURVE",
"583 609 CURVE",
"614.282 650.538 OFFCURVE",
"533.282 711.538 OFFCURVE",
"502 670 CURVE",
"502 749 OFFCURVE",
"390 749 OFFCURVE",
"390 670 CURVE",
"390 740 OFFCURVE",
"250 740 OFFCURVE",
"250 670 CURVE",
"250 735 OFFCURVE",
"142 735 OFFCURVE",
"142 670 CURVE",
"120.854 718.381 OFFCURVE",
"63.854 693.467 OFFCURVE",
"85 645.086 CURVE",
"17 645.086 OFFCURVE",
"17 489.568 OFFCURVE",
"85 489.568 CURVE",
"7 489.568 OFFCURVE",
"7 437.728 OFFCURVE",
"85 437.728 CURVE",
"15 437.728 OFFCURVE",
"15 306.136 OFFCURVE",
"85 306.136 CURVE",
"11 306.136 OFFCURVE",
"11 250.309 OFFCURVE",
"85 250.309 CURVE",
"10 250.309 OFFCURVE",
"10 170.556 OFFCURVE",
"85 170.556 CURVE",
"18.042 168.193 OFFCURVE",
"23 27.638 OFFCURVE",
"89.958 30 CURVE",
"89.958 -47 OFFCURVE",
"157.604 -47 OFFCURVE",
"157.604 30 CURVE",
"157.604 -49 OFFCURVE",
"257.083 -49 OFFCURVE",
"257.083 30 CURVE"
);
}
);
width = 646;
},
{
associatedMasterId = "EC64484B-0978-4CB1-9EE9-C40A2D8C4059";
background = {
paths = (
{
closed = 1;
nodes = (
"273 0 LINE SMOOTH",
"288 0 OFFCURVE",
"300 12 OFFCURVE",
"300 27 CURVE SMOOTH",
"300 215 LINE",
"566 215 LINE SMOOTH",
"581 215 OFFCURVE",
"593 227 OFFCURVE",
"593 242 CURVE SMOOTH",
"593 393 LINE SMOOTH",
"593 408 OFFCURVE",
"581 420 OFFCURVE",
"566 420 CURVE SMOOTH",
"300 420 LINE",
"300 494 LINE",
"586 494 LINE SMOOTH",
"601 494 OFFCURVE",
"613 506 OFFCURVE",
"613 521 CURVE SMOOTH",
"613 673 LINE SMOOTH",
"613 688 OFFCURVE",
"601 700 OFFCURVE",
"586 700 CURVE SMOOTH",
"82 700 LINE SMOOTH",
"67 700 OFFCURVE",
"55 688 OFFCURVE",
"55 673 CURVE SMOOTH",
"55 27 LINE SMOOTH",
"55 12 OFFCURVE",
"67 0 OFFCURVE",
"82 0 CURVE SMOOTH"
);
}
);
};
hints = (
{
horizontal = 1;
place = "{-2147483648, 0}";
type = Tag;
name = hr00;
}
);
layerId = "E590FED2-D4AA-46B5-A9B4-80D0D2EC27BB";
name = "Dec 6 20, 14:56";
paths = (
{
closed = 1;
nodes = (
"273 0 LINE SMOOTH",
"288 0 OFFCURVE",
"300 12 OFFCURVE",
"300 27 CURVE SMOOTH",
"300 215 LINE",
"566 215 LINE SMOOTH",
"581 215 OFFCURVE",
"593 227 OFFCURVE",
"593 242 CURVE SMOOTH",
"593 393 LINE SMOOTH",
"593 408 OFFCURVE",
"581 420 OFFCURVE",
"566 420 CURVE SMOOTH",
"300 420 LINE",
"300 494 LINE",
"586 494 LINE SMOOTH",
"601 494 OFFCURVE",
"613 506 OFFCURVE",
"613 521 CURVE SMOOTH",
"613 673 LINE SMOOTH",
"613 688 OFFCURVE",
"601 700 OFFCURVE",
"586 700 CURVE SMOOTH",
"82 700 LINE SMOOTH",
"67 700 OFFCURVE",
"55 688 OFFCURVE",
"55 673 CURVE SMOOTH",
"55 27 LINE SMOOTH",
"55 12 OFFCURVE",
"67 0 OFFCURVE",
"82 0 CURVE SMOOTH"
);
}
);
width = 646;
}
);
leftKerningGroup = I;
unicode = 0046;
userData = {
com.typemytype.robofont.guides = (
{
angle = 0;
isGlobal = 0;
magnetic = 5;
x = 0;
y = 320;
},
{
angle = 0;
isGlobal = 0;
magnetic = 5;
x = 0;
y = 691;
},
{
angle = 0;
isGlobal = 0;
magnetic = 5;
x = 0;
y = 649;
},
{
angle = 0;
isGlobal = 0;
magnetic = 5;
x = 0;
y = 362;
},
{
angle = 0;
isGlobal = 0;
magnetic = 5;
x = 0;
y = 9;
},
{
angle = 90;
isGlobal = 0;
magnetic = 5;
x = 761;
y = 0;
},
{
angle = 90;
isGlobal = 0;
magnetic = 5;
x = 94;
y = 0;
},
{
angle = 90;
isGlobal = 0;
magnetic = 5;
x = 487;
y = 0;
},
{
angle = 90;
isGlobal = 0;
magnetic = 5;
x = 139;
y = 0;
}
);
};
},
{
color = 1;
glyphname = G;
layers = (
{
background = {
paths = (
{
closed = 1;
nodes = (
"576 -10 OFFCURVE",
"718 85 OFFCURVE",
"718 265 CURVE SMOOTH",
"718 395 LINE SMOOTH",
"718 410 OFFCURVE",
"706 422 OFFCURVE",
"691 422 CURVE SMOOTH",
"416 422 LINE SMOOTH",
"401 422 OFFCURVE",
"389 410 OFFCURVE",
"389 395 CURVE SMOOTH",
"389 284 LINE SMOOTH",
"389 269 OFFCURVE",
"401 257 OFFCURVE",
"416 257 CURVE SMOOTH",
"463 257 LINE",
"463 256 LINE",
"463 205 OFFCURVE",
"428 185 OFFCURVE",
"378 185 CURVE SMOOTH",
"329 185 OFFCURVE",
"299 210 OFFCURVE",
"297 270 CURVE",
"295 327 OFFCURVE",
"295 385 OFFCURVE",
"297 440 CURVE",
"299 490 OFFCURVE",
"325 515 OFFCURVE",
"374 515 CURVE SMOOTH",
"423 515 OFFCURVE",
"438 486 OFFCURVE",
"446 476 CURVE SMOOTH",
"452 469 OFFCURVE",
"460 465 OFFCURVE",
"475 465 CURVE SMOOTH",
"696 465 LINE SMOOTH",
"708 465 OFFCURVE",
"718 475 OFFCURVE",
"718 487 CURVE SMOOTH",
"715 608 OFFCURVE",
"585 710 OFFCURVE",
"374 710 CURVE SMOOTH",
"177 710 OFFCURVE",
"44 622 OFFCURVE",
"37 445 CURVE",
"35 388 OFFCURVE",
"35 319 OFFCURVE",
"37 265 CURVE SMOOTH",
"45 79 OFFCURVE",
"172 -10 OFFCURVE",
"374 -10 CURVE SMOOTH"
);
}
);
};
hints = (
{
horizontal = 1;
place = "{-2147483648, 0}";
type = Tag;
name = hr01;
}
);
layerId = "EC64484B-0978-4CB1-9EE9-C40A2D8C4059";
paths = (
{
closed = 1;
nodes = (
"385.894 -55.064 OFFCURVE",
"544 -30.011 OFFCURVE",
"532.106 45.053 CURVE",
"566.591 -22.673 OFFCURVE",
"627.381 8.28 OFFCURVE",
"592.896 76.006 CURVE",
"643.976 25.263 OFFCURVE",
"703.131 84.811 OFFCURVE",
"652.051 135.554 CURVE",
"705.438 108.171 OFFCURVE",
"725.594 147.469 OFFCURVE",
"672.207 174.852 CURVE",
"732.886 168.596 OFFCURVE",
"748.678 321.774 OFFCURVE",
"688 328.03 CURVE",
"751.709 340.92 OFFCURVE",
"738.767 404.889 OFFCURVE",
"675.058 392 CURVE",
"675.058 448.8 OFFCURVE",
"611.29 448.8 OFFCURVE",
"611.29 392 CURVE",
"611.29 442.4 OFFCURVE",
"551.507 442.4 OFFCURVE",
"551.507 392 CURVE",
"551.507 440 OFFCURVE",
"479.768 440 OFFCURVE",
"479.768 392 CURVE",
"452.867 442.025 OFFCURVE",
"392.098 409.347 OFFCURVE",
"419 359.321 CURVE",
"368.177 328.963 OFFCURVE",
"411.377 256.642 OFFCURVE",
"462.2 287 CURVE",
"420.564 254.53 OFFCURVE",
"451.122 215.346 OFFCURVE",
"492.758 247.816 CURVE",
"422.698 277.272 OFFCURVE",
"396.341 214.582 OFFCURVE",
"466.4 185.126 CURVE",
"430.107 251.901 OFFCURVE",
"383.889 226.781 OFFCURVE",
"420.182 160.006 CURVE",
"429.704 232.383 OFFCURVE",
"318.468 247.016 OFFCURVE",
"308.946 174.64 CURVE",
"361.796 190.574 OFFCURVE",
"318.642 333.708 OFFCURVE",
"265.791 317.774 CURVE",
"323.36 315.857 OFFCURVE",
"328.4 467.221 OFFCURVE",
"270.832 469.138 CURVE",
"311.401 428.249 OFFCURVE",
"384.84 501.112 OFFCURVE",
"344.272 542.002 CURVE",
"318.05 467.48 OFFCURVE",
"439.959 424.585 OFFCURVE",
"466.181 499.107 CURVE",
"464.528 447.934 OFFCURVE",
"591.741 443.827 OFFCURVE",
"593.393 495 CURVE",
"593.393 446.2 OFFCURVE",
"688.107 446.2 OFFCURVE",
"688.107 495 CURVE",
"749.351 509.773 OFFCURVE",
"739.937 548.8 OFFCURVE",
"678.693 534.028 CURVE",
"716.354 568.713 OFFCURVE",
"628.356 664.262 OFFCURVE",
"590.694 629.577 CURVE",
"611.883 695.243 OFFCURVE",
"471.401 740.572 OFFCURVE",
"450.213 674.906 CURVE",
"450.264 736.905 OFFCURVE",
"298.174 737.03 OFFCURVE",
"298.123 675.03 CURVE",
"284.359 746.721 OFFCURVE",
"241.114 738.418 OFFCURVE",
"254.878 666.727 CURVE",
"230.521 735.544 OFFCURVE",
"170.212 714.199 OFFCURVE",
"194.569 645.382 CURVE",
"155.745 691.128 OFFCURVE",
"65.276 614.348 OFFCURVE",
"104.101 568.602 CURVE",
"44.621 597.206 OFFCURVE",
"20.39 546.82 OFFCURVE",
"79.869 518.216 CURVE",
"7.296 526.099 OFFCURVE",
"-6.874 395.65 OFFCURVE",
"65.699 387.767 CURVE",
"1.727 385.875 OFFCURVE",
"6.388 228.251 OFFCURVE",
"70.36 230.142 CURVE",
"11.927 216.52 OFFCURVE",
"22.821 169.79 OFFCURVE",
"81.254 183.412 CURVE",
"19.33 141.099 OFFCURVE",
"88.347 40.094 OFFCURVE",
"150.271 82.407 CURVE",
"121.53 28.603 OFFCURVE",
"198.822 -12.685 OFFCURVE",
"227.564 41.12 CURVE",
"215.431 -20.701 OFFCURVE",
"313.394 -39.927 OFFCURVE",
"325.527 21.894 CURVE"
);
}
);
width = 753;
},
{
associatedMasterId = "EC64484B-0978-4CB1-9EE9-C40A2D8C4059";
background = {
paths = (
{
closed = 1;
nodes = (
"576 -10 OFFCURVE",
"718 85 OFFCURVE",
"718 265 CURVE SMOOTH",
"718 395 LINE SMOOTH",
"718 410 OFFCURVE",
"706 422 OFFCURVE",
"691 422 CURVE SMOOTH",
"416 422 LINE SMOOTH",
"401 422 OFFCURVE",
"389 410 OFFCURVE",
"389 395 CURVE SMOOTH",
"389 284 LINE SMOOTH",
"389 269 OFFCURVE",
"401 257 OFFCURVE",
"416 257 CURVE SMOOTH",
"463 257 LINE",
"463 256 LINE",
"463 205 OFFCURVE",
"428 185 OFFCURVE",
"378 185 CURVE SMOOTH",
"329 185 OFFCURVE",
"299 210 OFFCURVE",
"297 270 CURVE",
"295 327 OFFCURVE",
"295 385 OFFCURVE",
"297 440 CURVE",
"299 490 OFFCURVE",
"325 515 OFFCURVE",
"374 515 CURVE SMOOTH",
"423 515 OFFCURVE",
"438 486 OFFCURVE",
"446 476 CURVE SMOOTH",
"452 469 OFFCURVE",
"460 465 OFFCURVE",
"475 465 CURVE SMOOTH",
"696 465 LINE SMOOTH",
"708 465 OFFCURVE",
"718 475 OFFCURVE",
"718 487 CURVE SMOOTH",
"715 608 OFFCURVE",
"585 710 OFFCURVE",
"374 710 CURVE SMOOTH",
"177 710 OFFCURVE",
"44 622 OFFCURVE",
"37 445 CURVE",
"35 388 OFFCURVE",
"35 319 OFFCURVE",
"37 265 CURVE SMOOTH",
"45 79 OFFCURVE",
"172 -10 OFFCURVE",
"374 -10 CURVE SMOOTH"
);
}
);
};
hints = (
{
horizontal = 1;
place = "{-2147483648, 0}";
type = Tag;
name = hr01;
}
);
layerId = "9AC13148-3F86-4605-A514-6B78B9EC711E";
name = "Dec 6 20, 14:56";
paths = (
{
closed = 1;
nodes = (
"576 -10 OFFCURVE",
"718 85 OFFCURVE",
"718 265 CURVE SMOOTH",
"718 395 LINE SMOOTH",
"718 410 OFFCURVE",
"706 422 OFFCURVE",
"691 422 CURVE SMOOTH",
"416 422 LINE SMOOTH",
"401 422 OFFCURVE",
"389 410 OFFCURVE",
"389 395 CURVE SMOOTH",
"389 284 LINE SMOOTH",
"389 269 OFFCURVE",
"401 257 OFFCURVE",
"416 257 CURVE SMOOTH",
"463 257 LINE",
"463 256 LINE",
"463 205 OFFCURVE",
"428 185 OFFCURVE",
"378 185 CURVE SMOOTH",
"329 185 OFFCURVE",
"299 210 OFFCURVE",
"297 270 CURVE",
"295 327 OFFCURVE",
"295 385 OFFCURVE",
"297 440 CURVE",
"299 490 OFFCURVE",
"325 515 OFFCURVE",
"374 515 CURVE SMOOTH",
"423 515 OFFCURVE",
"438 486 OFFCURVE",
"446 476 CURVE SMOOTH",
"452 469 OFFCURVE",
"460 465 OFFCURVE",
"475 465 CURVE SMOOTH",
"696 465 LINE SMOOTH",
"708 465 OFFCURVE",
"718 475 OFFCURVE",
"718 487 CURVE SMOOTH",
"715 608 OFFCURVE",
"585 710 OFFCURVE",
"374 710 CURVE SMOOTH",
"177 710 OFFCURVE",
"44 622 OFFCURVE",
"37 445 CURVE",
"35 388 OFFCURVE",
"35 319 OFFCURVE",
"37 265 CURVE SMOOTH",
"45 79 OFFCURVE",
"172 -10 OFFCURVE",
"374 -10 CURVE SMOOTH"
);
}
);
width = 753;
}
);
leftKerningGroup = O;
rightKerningGroup = G;
unicode = 0047;
userData = {
com.typemytype.robofont.guides = (
{
angle = 0;
isGlobal = 0;
magnetic = 5;
x = 0;
y = "-10";
},
{
angle = 0;
isGlobal = 0;
magnetic = 5;
x = 0;
y = 260;
},
{
angle = 0;
isGlobal = 0;
magnetic = 5;
x = 0;
y = 440;
},
{
angle = 90;
isGlobal = 0;
magnetic = 5;
x = 334;
y = 0;
},
{
angle = 90;
isGlobal = 0;
magnetic = 5;
x = 133;
y = 0;
},
{
angle = 90;
isGlobal = 0;
magnetic = 5;
x = 604;
y = 0;
},
{
angle = 90;
isGlobal = 0;
magnetic = 5;
x = 67;
y = 0;
}
);
};
},
{
color = 1;
glyphname = H;
layers = (
{
background = {
paths = (
{
closed = 1;
nodes = (
"278 0 LINE SMOOTH",
"293 0 OFFCURVE",
"305 12 OFFCURVE",
"305 27 CURVE SMOOTH",
"305 243 LINE",
"467 243 LINE",
"467 27 LINE SMOOTH",
"467 12 OFFCURVE",
"479 0 OFFCURVE",
"494 0 CURVE SMOOTH",
"690 0 LINE SMOOTH",
"705 0 OFFCURVE",
"717 12 OFFCURVE",
"717 27 CURVE SMOOTH",
"717 673 LINE SMOOTH",
"717 688 OFFCURVE",
"705 700 OFFCURVE",
"690 700 CURVE SMOOTH",
"494 700 LINE SMOOTH",
"479 700 OFFCURVE",
"467 688 OFFCURVE",
"467 673 CURVE SMOOTH",
"467 463 LINE",
"305 463 LINE",
"305 673 LINE SMOOTH",
"305 688 OFFCURVE",
"293 700 OFFCURVE",
"278 700 CURVE SMOOTH",
"82 700 LINE SMOOTH",
"67 700 OFFCURVE",
"55 688 OFFCURVE",
"55 673 CURVE SMOOTH",
"55 27 LINE SMOOTH",
"55 11 OFFCURVE",
"67 0 OFFCURVE",
"82 0 CURVE SMOOTH"
);
}
);
};
layerId = "EC64484B-0978-4CB1-9EE9-C40A2D8C4059";
paths = (
{
closed = 1;
nodes = (
"350.972 32.025 OFFCURVE",
"347.972 140.122 OFFCURVE",
"275 138.097 CURVE",
"353 138.097 OFFCURVE",
"353 181.742 OFFCURVE",
"275 181.742 CURVE",
"330.837 142.932 OFFCURVE",
"394.266 234.19 OFFCURVE",
"338.429 273 CURVE",
"338.429 210 OFFCURVE",
"493.036 210 OFFCURVE",
"493.036 273 CURVE",
"423.066 270.944 OFFCURVE",
"427.03 136.041 OFFCURVE",
"497 138.097 CURVE",
"419.03 140.261 OFFCURVE",
"416.03 32.164 OFFCURVE",
"494 30 CURVE",
"494 -44 OFFCURVE",
"614 -44 OFFCURVE",
"614 30 CURVE",
"614 -42 OFFCURVE",
"690 -42 OFFCURVE",
"690 30 CURVE",
"759.941 32.884 OFFCURVE",
"756.941 105.649 OFFCURVE",
"687 102.765 CURVE",
"749 102.765 OFFCURVE",
"749 198.469 OFFCURVE",
"687 198.469 CURVE",
"761 198.469 OFFCURVE",
"761 278.222 OFFCURVE",
"687 278.222 CURVE",
"759 278.222 OFFCURVE",
"759 373.926 OFFCURVE",
"687 373.926 CURVE",
"749 373.926 OFFCURVE",
"749 505.519 OFFCURVE",
"687 505.519 CURVE",
"757 505.519 OFFCURVE",
"757 597.235 OFFCURVE",
"687 597.235 CURVE",
"750 597.235 OFFCURVE",
"750 673 OFFCURVE",
"687 673 CURVE",
"685.402 745.983 OFFCURVE",
"548.402 742.983 OFFCURVE",
"550 670 CURVE",
"548.868 729.989 OFFCURVE",
"495.868 728.989 OFFCURVE",
"497 669 CURVE",
"420 669 OFFCURVE",
"420 629 OFFCURVE",
"497 629 CURVE",
"419 629 OFFCURVE",
"419 477 OFFCURVE",
"497 477 CURVE",
"450.407 535.771 OFFCURVE",
"394.907 491.771 OFFCURVE",
"441.5 433 CURVE",
"441.5 494 OFFCURVE",
"302.75 494 OFFCURVE",
"302.75 433 CURVE",
"354.694 463.03 OFFCURVE",
"326.944 511.03 OFFCURVE",
"275 481 CURVE",
"338 481 OFFCURVE",
"338 597 OFFCURVE",
"275 597 CURVE",
"328.215 621.056 OFFCURVE",
"295.215 694.056 OFFCURVE",
"242 670 CURVE",
"242 741 OFFCURVE",
"142 741 OFFCURVE",
"142 670 CURVE",
"96.656 705.52 OFFCURVE",
"39.656 632.754 OFFCURVE",
"85 597.235 CURVE",
"23 597.235 OFFCURVE",
"23 453.679 OFFCURVE",
"85 453.679 CURVE",
"13 453.679 OFFCURVE",
"13 338.037 OFFCURVE",
"85 338.037 CURVE",
"21 338.037 OFFCURVE",
"21 266.259 OFFCURVE",
"85 266.259 CURVE",
"13 266.259 OFFCURVE",
"13 170.556 OFFCURVE",
"85 170.556 CURVE",
"22 170.556 OFFCURVE",
"22 34.975 OFFCURVE",
"85 34.975 CURVE",
"72.656 -36.974 OFFCURVE",
"101.656 -41.949 OFFCURVE",
"114 30 CURVE",
"114 -42 OFFCURVE",
"234 -42 OFFCURVE",
"234 30 CURVE"
);
}
);
width = 772;
},
{
associatedMasterId = "EC64484B-0978-4CB1-9EE9-C40A2D8C4059";
background = {
paths = (
{
closed = 1;
nodes = (
"278 0 LINE SMOOTH",
"293 0 OFFCURVE",
"305 12 OFFCURVE",
"305 27 CURVE SMOOTH",
"305 243 LINE",
"467 243 LINE",
"467 27 LINE SMOOTH",
"467 12 OFFCURVE",
"479 0 OFFCURVE",
"494 0 CURVE SMOOTH",
"690 0 LINE SMOOTH",
"705 0 OFFCURVE",
"717 12 OFFCURVE",
"717 27 CURVE SMOOTH",
"717 673 LINE SMOOTH",
"717 688 OFFCURVE",
"705 700 OFFCURVE",
"690 700 CURVE SMOOTH",
"494 700 LINE SMOOTH",
"479 700 OFFCURVE",
"467 688 OFFCURVE",
"467 673 CURVE SMOOTH",
"467 463 LINE",
"305 463 LINE",
"305 673 LINE SMOOTH",
"305 688 OFFCURVE",
"293 700 OFFCURVE",
"278 700 CURVE SMOOTH",
"82 700 LINE SMOOTH",
"67 700 OFFCURVE",
"55 688 OFFCURVE",
"55 673 CURVE SMOOTH",
"55 27 LINE SMOOTH",
"55 11 OFFCURVE",
"67 0 OFFCURVE",
"82 0 CURVE SMOOTH"
);
}
);
};
layerId = "D9B11C4D-1D2A-4F8A-BF95-02B4826CCA80";
name = "Dec 6 20, 14:56";
paths = (
{
closed = 1;
nodes = (
"278 0 LINE SMOOTH",
"293 0 OFFCURVE",
"305 12 OFFCURVE",
"305 27 CURVE SMOOTH",
"305 243 LINE",
"467 243 LINE",
"467 27 LINE SMOOTH",
"467 12 OFFCURVE",
"479 0 OFFCURVE",
"494 0 CURVE SMOOTH",
"690 0 LINE SMOOTH",
"705 0 OFFCURVE",
"717 12 OFFCURVE",
"717 27 CURVE SMOOTH",
"717 673 LINE SMOOTH",
"717 688 OFFCURVE",
"705 700 OFFCURVE",
"690 700 CURVE SMOOTH",
"494 700 LINE SMOOTH",
"479 700 OFFCURVE",
"467 688 OFFCURVE",
"467 673 CURVE SMOOTH",
"467 463 LINE",
"305 463 LINE",
"305 673 LINE SMOOTH",
"305 688 OFFCURVE",
"293 700 OFFCURVE",
"278 700 CURVE SMOOTH",
"82 700 LINE SMOOTH",
"67 700 OFFCURVE",
"55 688 OFFCURVE",
"55 673 CURVE SMOOTH",
"55 27 LINE SMOOTH",
"55 11 OFFCURVE",
"67 0 OFFCURVE",
"82 0 CURVE SMOOTH"
);
}
);
width = 772;
}
);
leftKerningGroup = I;
rightKerningGroup = I;
unicode = 0048;
userData = {
com.typemytype.robofont.guides = (
{
angle = 0;
isGlobal = 0;
magnetic = 5;
x = 0;
y = 350;
},
{
angle = 0;
isGlobal = 0;
magnetic = 5;
x = 0;
y = 9;
},
{
angle = 0;
isGlobal = 0;
magnetic = 5;
x = 0;
y = 691;
},
{
angle = 90;
isGlobal = 0;
magnetic = 5;
x = 94;
y = 0;
},
{
angle = 90;
isGlobal = 0;
magnetic = 5;
x = 139;
y = 0;
},
{
angle = 90;
isGlobal = 0;
magnetic = 5;
x = 543;
y = 0;
},
{
angle = 90;
isGlobal = 0;
magnetic = 5;
x = 588;
y = 0;
}
);
};
},
{
color = 1;
glyphname = Hbar;
layers = (
{
background = {
paths = (
{
closed = 1;
nodes = (
"479 700 OFFCURVE",
"467 688 OFFCURVE",
"467 673 CURVE SMOOTH",
"467 643 LINE",
"305 643 LINE",
"305 673 LINE SMOOTH",
"305 688 OFFCURVE",
"293 700 OFFCURVE",
"278 700 CURVE SMOOTH",
"82 700 LINE SMOOTH",
"67 700 OFFCURVE",
"55 688 OFFCURVE",
"55 673 CURVE SMOOTH",
"55 27 LINE SMOOTH",
"55 11 OFFCURVE",
"67 0 OFFCURVE",
"82 0 CURVE SMOOTH",
"278 0 LINE SMOOTH",
"293 0 OFFCURVE",
"305 12 OFFCURVE",
"305 27 CURVE SMOOTH",
"305 243 LINE",
"467 243 LINE",
"467 27 LINE SMOOTH",
"467 12 OFFCURVE",
"479 0 OFFCURVE",
"494 0 CURVE SMOOTH",
"690 0 LINE SMOOTH",
"705 0 OFFCURVE",
"717 12 OFFCURVE",
"717 27 CURVE SMOOTH",
"717 673 LINE SMOOTH",
"717 688 OFFCURVE",
"705 700 OFFCURVE",
"690 700 CURVE SMOOTH",
"494 700 LINE SMOOTH"
);
},
{
closed = 1;
nodes = (
"467 521 LINE",
"467 463 LINE",
"305 463 LINE",
"305 521 LINE"
);
}
);
};
hints = (
{
horizontal = 1;
place = "{-2147483648, 0}";
type = Tag;
name = hr00;
}
);
layerId = "EC64484B-0978-4CB1-9EE9-C40A2D8C4059";
paths = (
{
closed = 1;
nodes = (
"447.911 731.683 OFFCURVE",
"371.625 674.683 OFFCURVE",
"417.714 613 CURVE",
"417.714 676 OFFCURVE",
"342.393 676 OFFCURVE",
"342.393 613 CURVE",
"342.393 673 OFFCURVE",
"302.75 673 OFFCURVE",
"302.75 613 CURVE",
"348.348 651.998 OFFCURVE",
"299.598 708.998 OFFCURVE",
"254 670 CURVE",
"254 738 OFFCURVE",
"150 738 OFFCURVE",
"150 670 CURVE",
"125.525 713.141 OFFCURVE",
"60.525 676.264 OFFCURVE",
"85 633.123 CURVE",
"19 633.123 OFFCURVE",
"19 513.494 OFFCURVE",
"85 513.494 CURVE",
"8 513.494 OFFCURVE",
"8 449.691 OFFCURVE",
"85 449.691 CURVE",
"7 449.691 OFFCURVE",
"7 318.099 OFFCURVE",
"85 318.099 CURVE",
"17 318.099 OFFCURVE",
"17 166.568 OFFCURVE",
"85 166.568 CURVE",
"12 166.568 OFFCURVE",
"12 82.827 OFFCURVE",
"85 82.827 CURVE",
"46.149 35.024 OFFCURVE",
"111.149 -17.803 OFFCURVE",
"150 30 CURVE",
"150 -47 OFFCURVE",
"242 -47 OFFCURVE",
"242 30 CURVE",
"259.973 -36.618 OFFCURVE",
"292.973 -27.715 OFFCURVE",
"275 38.903 CURVE",
"346 38.903 OFFCURVE",
"346 90.484 OFFCURVE",
"275 90.484 CURVE",
"344 90.484 OFFCURVE",
"344 165.871 OFFCURVE",
"275 165.871 CURVE",
"338 165.871 OFFCURVE",
"338 261.097 OFFCURVE",
"275 261.097 CURVE",
"282.448 201.561 OFFCURVE",
"377.591 213.464 OFFCURVE",
"370.143 273 CURVE",
"370.143 195 OFFCURVE",
"489.071 195 OFFCURVE",
"489.071 273 CURVE",
"414.529 264.725 OFFCURVE",
"422.458 193.305 OFFCURVE",
"497 201.581 CURVE",
"429 201.581 OFFCURVE",
"429 102.387 OFFCURVE",
"497 102.387 CURVE",
"450.507 63.208 OFFCURVE",
"511.507 -9.179 OFFCURVE",
"558 30 CURVE",
"558 -40 OFFCURVE",
"674 -40 OFFCURVE",
"674 30 CURVE",
"744.003 18.143 OFFCURVE",
"757.003 94.896 OFFCURVE",
"687 106.753 CURVE",
"752 106.753 OFFCURVE",
"752 214.42 OFFCURVE",
"687 214.42 CURVE",
"766 214.42 OFFCURVE",
"766 298.16 OFFCURVE",
"687 298.16 CURVE",
"754 298.16 OFFCURVE",
"754 429.753 OFFCURVE",
"687 429.753 CURVE",
"750 429.753 OFFCURVE",
"750 581.284 OFFCURVE",
"687 581.284 CURVE",
"734.988 599.134 OFFCURVE",
"701.988 687.85 OFFCURVE",
"654 670 CURVE",
"654 738 OFFCURVE",
"606 738 OFFCURVE",
"606 670 CURVE",
"606 737 OFFCURVE",
"562 737 OFFCURVE",
"562 670 CURVE"
);
},
{
closed = 1;
nodes = (
"447.3 551 OFFCURVE",
"447.3 444.8 OFFCURVE",
"497 444.8 CURVE",
"487.501 486.286 OFFCURVE",
"435.965 474.486 OFFCURVE",
"445.464 433 CURVE",
"445.464 472.2 OFFCURVE",
"397.893 472.2 OFFCURVE",
"397.893 433 CURVE",
"397.893 475 OFFCURVE",
"298.786 475 OFFCURVE",
"298.786 433 CURVE",
"315.958 467.615 OFFCURVE",
"292.172 479.415 OFFCURVE",
"275 444.8 CURVE",
"330.3 444.8 OFFCURVE",
"330.3 543.133 OFFCURVE",
"275 543.133 CURVE",
"280.238 500.897 OFFCURVE",
"343.667 508.764 OFFCURVE",
"338.429 551 CURVE",
"338.429 510.68 OFFCURVE",
"409.786 510.68 OFFCURVE",
"409.786 551 CURVE",
"409.786 513.48 OFFCURVE",
"457.357 513.48 OFFCURVE",
"457.357 551 CURVE"
);
}
);
width = 772;
},
{
associatedMasterId = "EC64484B-0978-4CB1-9EE9-C40A2D8C4059";
background = {
paths = (
{
closed = 1;
nodes = (
"479 700 OFFCURVE",
"467 688 OFFCURVE",
"467 673 CURVE SMOOTH",
"467 643 LINE",
"305 643 LINE",
"305 673 LINE SMOOTH",
"305 688 OFFCURVE",
"293 700 OFFCURVE",
"278 700 CURVE SMOOTH",
"82 700 LINE SMOOTH",
"67 700 OFFCURVE",
"55 688 OFFCURVE",
"55 673 CURVE SMOOTH",
"55 27 LINE SMOOTH",
"55 11 OFFCURVE",
"67 0 OFFCURVE",
"82 0 CURVE SMOOTH",
"278 0 LINE SMOOTH",
"293 0 OFFCURVE",
"305 12 OFFCURVE",
"305 27 CURVE SMOOTH",
"305 243 LINE",
"467 243 LINE",
"467 27 LINE SMOOTH",
"467 12 OFFCURVE",
"479 0 OFFCURVE",
"494 0 CURVE SMOOTH",
"690 0 LINE SMOOTH",
"705 0 OFFCURVE",
"717 12 OFFCURVE",
"717 27 CURVE SMOOTH",
"717 673 LINE SMOOTH",
"717 688 OFFCURVE",
"705 700 OFFCURVE",
"690 700 CURVE SMOOTH",
"494 700 LINE SMOOTH"
);
},
{
closed = 1;
nodes = (
"467 521 LINE",
"467 463 LINE",
"305 463 LINE",
"305 521 LINE"
);
}
);
};
hints = (
{
horizontal = 1;
place = "{-2147483648, 0}";
type = Tag;
name = hr00;
}
);
layerId = "61F5E40F-3B76-47CA-8E7B-E94EF918BE35";
name = "Dec 6 20, 14:56";
paths = (
{
closed = 1;
nodes = (
"479 700 OFFCURVE",
"467 688 OFFCURVE",
"467 673 CURVE SMOOTH",
"467 643 LINE",
"305 643 LINE",
"305 673 LINE SMOOTH",
"305 688 OFFCURVE",
"293 700 OFFCURVE",
"278 700 CURVE SMOOTH",
"82 700 LINE SMOOTH",
"67 700 OFFCURVE",
"55 688 OFFCURVE",
"55 673 CURVE SMOOTH",
"55 27 LINE SMOOTH",
"55 11 OFFCURVE",
"67 0 OFFCURVE",
"82 0 CURVE SMOOTH",
"278 0 LINE SMOOTH",
"293 0 OFFCURVE",
"305 12 OFFCURVE",
"305 27 CURVE SMOOTH",
"305 243 LINE",
"467 243 LINE",
"467 27 LINE SMOOTH",
"467 12 OFFCURVE",
"479 0 OFFCURVE",
"494 0 CURVE SMOOTH",
"690 0 LINE SMOOTH",
"705 0 OFFCURVE",
"717 12 OFFCURVE",
"717 27 CURVE SMOOTH",
"717 673 LINE SMOOTH",
"717 688 OFFCURVE",
"705 700 OFFCURVE",
"690 700 CURVE SMOOTH",
"494 700 LINE SMOOTH"
);
},
{
closed = 1;
nodes = (
"467 521 LINE",
"467 463 LINE",
"305 463 LINE",
"305 521 LINE"
);
}
);
width = 772;
}
);
leftKerningGroup = I;
rightKerningGroup = I;
unicode = 0126;
},
{
color = 1;
glyphname = I;
layers = (
{
anchors = (
{
name = bottom;
position = "{184, 0}";
},
{
name = ogonek;
position = "{331, 10}";
},
{
name = top;
position = "{184, 700}";
},
{
name = topleft;
position = "{20, 700}";
}
);
background = {
anchors = (
{
name = bottom;
position = "{184, 0}";
},
{
name = ogonek;
position = "{331, 10}";
},
{
name = top;
position = "{184, 700}";
},
{
name = topleft;
position = "{20, 700}";
}
);
paths = (
{
closed = 1;
nodes = (
"286 0 LINE SMOOTH",
"301 0 OFFCURVE",
"313 12 OFFCURVE",
"313 27 CURVE SMOOTH",
"313 673 LINE SMOOTH",
"313 688 OFFCURVE",
"301 700 OFFCURVE",
"286 700 CURVE SMOOTH",
"82 700 LINE SMOOTH",
"67 700 OFFCURVE",
"55 688 OFFCURVE",
"55 673 CURVE SMOOTH",
"55 27 LINE SMOOTH",
"55 12 OFFCURVE",
"67 0 OFFCURVE",
"82 0 CURVE SMOOTH"
);
}
);
};
layerId = "EC64484B-0978-4CB1-9EE9-C40A2D8C4059";
paths = (
{
closed = 1;
nodes = (
"351.954 32.451 OFFCURVE",
"348.954 113.191 OFFCURVE",
"283 110.741 CURVE",
"349 110.741 OFFCURVE",
"349 262.272 OFFCURVE",
"283 262.272 CURVE",
"362 262.272 OFFCURVE",
"362 334.049 OFFCURVE",
"283 334.049 CURVE",
"348 334.049 OFFCURVE",
"348 425.765 OFFCURVE",
"283 425.765 CURVE",
"354 425.765 OFFCURVE",
"354 577.296 OFFCURVE",
"283 577.296 CURVE",
"361 577.296 OFFCURVE",
"361 649.074 OFFCURVE",
"283 649.074 CURVE",
"314.836 687.108 OFFCURVE",
"289.836 708.034 OFFCURVE",
"258 670 CURVE",
"258 743 OFFCURVE",
"130 743 OFFCURVE",
"130 670 CURVE",
"84.451 696.705 OFFCURVE",
"39.451 619.952 OFFCURVE",
"85 593.247 CURVE",
"6 593.247 OFFCURVE",
"6 457.667 OFFCURVE",
"85 457.667 CURVE",
"8 457.667 OFFCURVE",
"8 397.852 OFFCURVE",
"85 397.852 CURVE",
"12 397.852 OFFCURVE",
"12 298.16 OFFCURVE",
"85 298.16 CURVE",
"16 298.16 OFFCURVE",
"16 150.617 OFFCURVE",
"85 150.617 CURVE",
"23 150.617 OFFCURVE",
"23 27 OFFCURVE",
"85 27 CURVE",
"89.583 -47.86 OFFCURVE",
"138.583 -44.86 OFFCURVE",
"134 30 CURVE",
"134 -34 OFFCURVE",
"202 -34 OFFCURVE",
"202 30 CURVE"
);
}
);
width = 368;
},
{
anchors = (
{
name = bottom;
position = "{184, 0}";
},
{
name = ogonek;
position = "{331, 10}";
},
{
name = top;
position = "{184, 700}";
},
{
name = topleft;
position = "{20, 700}";
}
);
associatedMasterId = "EC64484B-0978-4CB1-9EE9-C40A2D8C4059";
background = {
anchors = (
{
name = bottom;
position = "{184, 0}";
},
{
name = ogonek;
position = "{331, 10}";
},
{
name = top;
position = "{184, 700}";
},
{
name = topleft;
position = "{20, 700}";
}
);
paths = (
{
closed = 1;
nodes = (
"286 0 LINE SMOOTH",
"301 0 OFFCURVE",
"313 12 OFFCURVE",
"313 27 CURVE SMOOTH",
"313 673 LINE SMOOTH",
"313 688 OFFCURVE",
"301 700 OFFCURVE",
"286 700 CURVE SMOOTH",
"82 700 LINE SMOOTH",
"67 700 OFFCURVE",
"55 688 OFFCURVE",
"55 673 CURVE SMOOTH",
"55 27 LINE SMOOTH",
"55 12 OFFCURVE",
"67 0 OFFCURVE",
"82 0 CURVE SMOOTH"
);
}
);
};
layerId = "C4E575F1-AC77-4B9B-96F2-28EDD94352D3";
name = "Dec 6 20, 14:56";
paths = (
{
closed = 1;
nodes = (
"286 0 LINE SMOOTH",
"301 0 OFFCURVE",
"313 12 OFFCURVE",
"313 27 CURVE SMOOTH",
"313 673 LINE SMOOTH",
"313 688 OFFCURVE",
"301 700 OFFCURVE",
"286 700 CURVE SMOOTH",
"82 700 LINE SMOOTH",
"67 700 OFFCURVE",
"55 688 OFFCURVE",
"55 673 CURVE SMOOTH",
"55 27 LINE SMOOTH",
"55 12 OFFCURVE",
"67 0 OFFCURVE",
"82 0 CURVE SMOOTH"
);
}
);
width = 368;
}
);
leftKerningGroup = I;
rightKerningGroup = I;
unicode = 0049;
userData = {
com.typemytype.robofont.guides = (
{
angle = 90;
isGlobal = 0;
magnetic = 5;
x = 85;
y = 0;
},
{
angle = 90;
isGlobal = 0;
magnetic = 5;
x = 148;
y = 0;
}
);
};
},
{
color = 1;
glyphname = IJ;
layers = (
{
background = {
paths = (
{
closed = 1;
nodes = (
"628 -10 OFFCURVE",
"758 45 OFFCURVE",
"758 258 CURVE SMOOTH",
"758 673 LINE SMOOTH",
"758 688 OFFCURVE",
"746 700 OFFCURVE",
"731 700 CURVE SMOOTH",
"526 700 LINE SMOOTH",
"511 700 OFFCURVE",
"499 688 OFFCURVE",
"499 673 CURVE",
"499 298 LINE SMOOTH",
"499 227 OFFCURVE",
"476 205 OFFCURVE",
"420 205 CURVE SMOOTH",
"405 205 OFFCURVE",
"393 193 OFFCURVE",
"393 178 CURVE SMOOTH",
"393 17 LINE SMOOTH",
"393 2 OFFCURVE",
"405 -10 OFFCURVE",
"420 -10 CURVE SMOOTH"
);
},
{
closed = 1;
nodes = (
"286 0 LINE SMOOTH",
"301 0 OFFCURVE",
"313 12 OFFCURVE",
"313 27 CURVE SMOOTH",
"313 673 LINE SMOOTH",
"313 688 OFFCURVE",
"301 700 OFFCURVE",
"286 700 CURVE SMOOTH",
"82 700 LINE SMOOTH",
"67 700 OFFCURVE",
"55 688 OFFCURVE",
"55 673 CURVE SMOOTH",
"55 27 LINE SMOOTH",
"55 12 OFFCURVE",
"67 0 OFFCURVE",
"82 0 CURVE SMOOTH"
);
}
);
};
hints = (
{
horizontal = 1;
place = "{-2147483648, 0}";
type = Tag;
name = hr01;
}
);
layerId = "EC64484B-0978-4CB1-9EE9-C40A2D8C4059";
paths = (
{
closed = 1;
nodes = (
"347.484 33.777 OFFCURVE",
"344.484 82.616 OFFCURVE",
"283 78.84 CURVE",
"338.2 78.84 OFFCURVE",
"338.2 214.42 OFFCURVE",
"283 214.42 CURVE",
"353 214.42 OFFCURVE",
"353 306.136 OFFCURVE",
"283 306.136 CURVE",
"352 306.136 OFFCURVE",
"352 377.914 OFFCURVE",
"283 377.914 CURVE",
"348 377.914 OFFCURVE",
"348 461.654 OFFCURVE",
"283 461.654 CURVE",
"343 461.654 OFFCURVE",
"343 613.185 OFFCURVE",
"283 613.185 CURVE",
"330.859 654.461 OFFCURVE",
"281.859 711.276 OFFCURVE",
"234 670 CURVE",
"234 733 OFFCURVE",
"166 733 OFFCURVE",
"166 670 CURVE",
"153.193 719.572 OFFCURVE",
"72.193 698.647 OFFCURVE",
"85 649.074 CURVE",
"12 649.074 OFFCURVE",
"12 605.21 OFFCURVE",
"85 605.21 CURVE",
"25 605.21 OFFCURVE",
"25 557.358 OFFCURVE",
"85 557.358 CURVE",
"24 557.358 OFFCURVE",
"24 441.716 OFFCURVE",
"85 441.716 CURVE",
"21 441.716 OFFCURVE",
"21 294.173 OFFCURVE",
"85 294.173 CURVE",
"19 294.173 OFFCURVE",
"19 234.358 OFFCURVE",
"85 234.358 CURVE",
"14 234.358 OFFCURVE",
"14 130.679 OFFCURVE",
"85 130.679 CURVE",
"24 130.679 OFFCURVE",
"24 82.827 OFFCURVE",
"85 82.827 CURVE",
"11.065 70.231 OFFCURVE",
"20.065 17.404 OFFCURVE",
"94 30 CURVE",
"94 -35 OFFCURVE",
"250 -35 OFFCURVE",
"250 30 CURVE"
);
},
{
closed = 1;
nodes = (
"424.024 -47.881 OFFCURVE",
"527.775 -41.73 OFFCURVE",
"523.751 26.151 CURVE",
"548.685 -46.7 OFFCURVE",
"676.159 -3.07 OFFCURVE",
"651.224 69.781 CURVE",
"704.947 36.493 OFFCURVE",
"774.787 149.207 OFFCURVE",
"721.064 182.495 CURVE",
"794.947 178.342 OFFCURVE",
"801.883 301.731 OFFCURVE",
"728 305.885 CURVE",
"791 305.885 OFFCURVE",
"791 405.644 OFFCURVE",
"728 405.644 CURVE",
"790 405.644 OFFCURVE",
"790 461.51 OFFCURVE",
"728 461.51 CURVE",
"794 461.51 OFFCURVE",
"794 601.173 OFFCURVE",
"728 601.173 CURVE",
"801 601.173 OFFCURVE",
"801 669.01 OFFCURVE",
"728 669.01 CURVE",
"729.864 744.987 OFFCURVE",
"689.499 745.977 OFFCURVE",
"687.635 670 CURVE",
"687.635 749 OFFCURVE",
"596.962 749 OFFCURVE",
"596.962 670 CURVE",
"570.626 718.513 OFFCURVE",
"502.664 681.619 OFFCURVE",
"529 633.106 CURVE",
"465 633.106 OFFCURVE",
"465 513.426 OFFCURVE",
"529 513.426 CURVE",
"466 513.426 OFFCURVE",
"466 397.734 OFFCURVE",
"529 397.734 CURVE",
"454.004 398.543 OFFCURVE",
"452.626 270.823 OFFCURVE",
"527.622 270.014 CURVE",
"476.852 307.315 OFFCURVE",
"410.617 217.165 OFFCURVE",
"461.387 179.864 CURVE",
"416.969 209.863 OFFCURVE",
"378.581 153.023 OFFCURVE",
"423 123.024 CURVE"
);
}
);
width = 807;
},
{
associatedMasterId = "EC64484B-0978-4CB1-9EE9-C40A2D8C4059";
background = {
paths = (
{
closed = 1;
nodes = (
"628 -10 OFFCURVE",
"758 45 OFFCURVE",
"758 258 CURVE SMOOTH",
"758 673 LINE SMOOTH",
"758 688 OFFCURVE",
"746 700 OFFCURVE",
"731 700 CURVE SMOOTH",
"526 700 LINE SMOOTH",
"511 700 OFFCURVE",
"499 688 OFFCURVE",
"499 673 CURVE",
"499 298 LINE SMOOTH",
"499 227 OFFCURVE",
"476 205 OFFCURVE",
"420 205 CURVE SMOOTH",
"405 205 OFFCURVE",
"393 193 OFFCURVE",
"393 178 CURVE SMOOTH",
"393 17 LINE SMOOTH",
"393 2 OFFCURVE",
"405 -10 OFFCURVE",
"420 -10 CURVE SMOOTH"
);
},
{
closed = 1;
nodes = (
"286 0 LINE SMOOTH",
"301 0 OFFCURVE",
"313 12 OFFCURVE",
"313 27 CURVE SMOOTH",
"313 673 LINE SMOOTH",
"313 688 OFFCURVE",
"301 700 OFFCURVE",
"286 700 CURVE SMOOTH",
"82 700 LINE SMOOTH",
"67 700 OFFCURVE",
"55 688 OFFCURVE",
"55 673 CURVE SMOOTH",
"55 27 LINE SMOOTH",
"55 12 OFFCURVE",
"67 0 OFFCURVE",
"82 0 CURVE SMOOTH"
);
}
);
};
hints = (
{
horizontal = 1;
place = "{-2147483648, 0}";
type = Tag;
name = hr01;
}
);
layerId = "714EC926-97E5-4672-9504-249BFB039572";
name = "Dec 6 20, 14:56";
paths = (
{
closed = 1;
nodes = (
"628 -10 OFFCURVE",
"758 45 OFFCURVE",
"758 258 CURVE SMOOTH",
"758 673 LINE SMOOTH",
"758 688 OFFCURVE",
"746 700 OFFCURVE",
"731 700 CURVE SMOOTH",
"526 700 LINE SMOOTH",
"511 700 OFFCURVE",
"499 688 OFFCURVE",
"499 673 CURVE",
"499 298 LINE SMOOTH",
"499 227 OFFCURVE",
"476 205 OFFCURVE",
"420 205 CURVE SMOOTH",
"405 205 OFFCURVE",
"393 193 OFFCURVE",
"393 178 CURVE SMOOTH",
"393 17 LINE SMOOTH",
"393 2 OFFCURVE",
"405 -10 OFFCURVE",
"420 -10 CURVE SMOOTH"
);
},
{
closed = 1;
nodes = (
"286 0 LINE SMOOTH",
"301 0 OFFCURVE",
"313 12 OFFCURVE",
"313 27 CURVE SMOOTH",
"313 673 LINE SMOOTH",
"313 688 OFFCURVE",
"301 700 OFFCURVE",
"286 700 CURVE SMOOTH",
"82 700 LINE SMOOTH",
"67 700 OFFCURVE",
"55 688 OFFCURVE",
"55 673 CURVE SMOOTH",
"55 27 LINE SMOOTH",
"55 12 OFFCURVE",
"67 0 OFFCURVE",
"82 0 CURVE SMOOTH"
);
}
);
width = 807;
}
);
leftKerningGroup = I;
unicode = 0132;
userData = {
com.typemytype.robofont.guides = (
{
angle = 90;
isGlobal = 0;
magnetic = 5;
x = 642;
y = 0;
}
);
};
},
{
color = 1;
glyphname = Iogonek;
layers = (
{
background = {
paths = (
{
closed = 1;
nodes = (
"286 -222 LINE SMOOTH",
"301 -222 OFFCURVE",
"313 -210 OFFCURVE",
"313 -195 CURVE SMOOTH",
"313 -127 LINE SMOOTH",
"313 -112 OFFCURVE",
"301 -100 OFFCURVE",
"286 -100 CURVE SMOOTH",
"276 -100 LINE",
"237 -100 OFFCURVE",
"226 -71 OFFCURVE",
"226 -50 CURVE SMOOTH",
"226 -29 OFFCURVE",
"237 0 OFFCURVE",
"276 0 CURVE SMOOTH",
"286 0 LINE SMOOTH",
"301 0 OFFCURVE",
"313 12 OFFCURVE",
"313 27 CURVE SMOOTH",
"313 673 LINE SMOOTH",
"313 688 OFFCURVE",
"301 700 OFFCURVE",
"286 700 CURVE SMOOTH",
"82 700 LINE SMOOTH",
"67 700 OFFCURVE",
"55 688 OFFCURVE",
"55 673 CURVE SMOOTH",
"55 27 LINE SMOOTH",
"55 12 OFFCURVE",
"67 0 OFFCURVE",
"82 0 CURVE SMOOTH",
"105 0 LINE",
"102 -16 OFFCURVE",
"100 -32 OFFCURVE",
"100 -50 CURVE SMOOTH",
"100 -145 OFFCURVE",
"151 -222 OFFCURVE",
"272 -222 CURVE SMOOTH"
);
}
);
};
hints = (
{
horizontal = 1;
place = "{-2147483648, 0}";
type = Tag;
name = hr01;
}
);
layerId = "EC64484B-0978-4CB1-9EE9-C40A2D8C4059";
paths = (
{
closed = 1;
nodes = (
"347.797 -186.989 OFFCURVE",
"344.797 -149.989 OFFCURVE",
"283 -155 CURVE",
"319.433 -104.834 OFFCURVE",
"256.658 -59.244 OFFCURVE",
"220.225 -109.41 CURVE",
"293.758 -83.393 OFFCURVE",
"269.869 -15.873 OFFCURVE",
"196.336 -41.89 CURVE",
"243.326 -88.235 OFFCURVE",
"313.803 -16.778 OFFCURVE",
"266.812 29.568 CURVE",
"336.67 16.883 OFFCURVE",
"352.858 106.031 OFFCURVE",
"283 118.716 CURVE",
"353 118.716 OFFCURVE",
"353 270.247 OFFCURVE",
"283 270.247 CURVE",
"354 270.247 OFFCURVE",
"354 310.123 OFFCURVE",
"283 310.123 CURVE",
"362 310.123 OFFCURVE",
"362 409.815 OFFCURVE",
"283 409.815 CURVE",
"352 409.815 OFFCURVE",
"352 489.568 OFFCURVE",
"283 489.568 CURVE",
"362 489.568 OFFCURVE",
"362 621.16 OFFCURVE",
"283 621.16 CURVE",
"334.273 647.406 OFFCURVE",
"309.273 696.246 OFFCURVE",
"258 670 CURVE",
"258 730 OFFCURVE",
"202 730 OFFCURVE",
"202 670 CURVE",
"202 742 OFFCURVE",
"98 742 OFFCURVE",
"98 670 CURVE",
"25.524 689.292 OFFCURVE",
"12.524 640.452 OFFCURVE",
"85 621.16 CURVE",
"7 621.16 OFFCURVE",
"7 505.519 OFFCURVE",
"85 505.519 CURVE",
"14 505.519 OFFCURVE",
"14 465.642 OFFCURVE",
"85 465.642 CURVE",
"11 465.642 OFFCURVE",
"11 397.852 OFFCURVE",
"85 397.852 CURVE",
"22 397.852 OFFCURVE",
"22 338.037 OFFCURVE",
"85 338.037 CURVE",
"17 338.037 OFFCURVE",
"17 286.198 OFFCURVE",
"85 286.198 CURVE",
"13 286.198 OFFCURVE",
"13 202.457 OFFCURVE",
"85 202.457 CURVE",
"22 202.457 OFFCURVE",
"22 62.889 OFFCURVE",
"85 62.889 CURVE",
"25.245 32.584 OFFCURVE",
"71.209 -58.048 OFFCURVE",
"130.964 -27.743 CURVE",
"75.965 -41.934 OFFCURVE",
"107.974 -165.989 OFFCURVE",
"162.973 -151.799 CURVE"
);
}
);
width = 368;
},
{
associatedMasterId = "EC64484B-0978-4CB1-9EE9-C40A2D8C4059";
background = {
paths = (
{
closed = 1;
nodes = (
"286 -222 LINE SMOOTH",
"301 -222 OFFCURVE",
"313 -210 OFFCURVE",
"313 -195 CURVE SMOOTH",
"313 -127 LINE SMOOTH",
"313 -112 OFFCURVE",
"301 -100 OFFCURVE",
"286 -100 CURVE SMOOTH",
"276 -100 LINE",
"237 -100 OFFCURVE",
"226 -71 OFFCURVE",
"226 -50 CURVE SMOOTH",
"226 -29 OFFCURVE",
"237 0 OFFCURVE",
"276 0 CURVE SMOOTH",
"286 0 LINE SMOOTH",
"301 0 OFFCURVE",
"313 12 OFFCURVE",
"313 27 CURVE SMOOTH",
"313 673 LINE SMOOTH",
"313 688 OFFCURVE",
"301 700 OFFCURVE",
"286 700 CURVE SMOOTH",
"82 700 LINE SMOOTH",
"67 700 OFFCURVE",
"55 688 OFFCURVE",
"55 673 CURVE SMOOTH",
"55 27 LINE SMOOTH",
"55 12 OFFCURVE",
"67 0 OFFCURVE",
"82 0 CURVE SMOOTH",
"105 0 LINE",
"102 -16 OFFCURVE",
"100 -32 OFFCURVE",
"100 -50 CURVE SMOOTH",
"100 -145 OFFCURVE",
"151 -222 OFFCURVE",
"272 -222 CURVE SMOOTH"
);
}
);
};
hints = (
{
horizontal = 1;
place = "{-2147483648, 0}";
type = Tag;
name = hr01;
}
);
layerId = "707EB1DA-726A-44B2-8996-280EA6319508";
name = "Dec 6 20, 14:56";
paths = (
{
closed = 1;
nodes = (
"286 -222 LINE SMOOTH",
"301 -222 OFFCURVE",
"313 -210 OFFCURVE",
"313 -195 CURVE SMOOTH",
"313 -127 LINE SMOOTH",
"313 -112 OFFCURVE",
"301 -100 OFFCURVE",
"286 -100 CURVE SMOOTH",
"276 -100 LINE",
"237 -100 OFFCURVE",
"226 -71 OFFCURVE",
"226 -50 CURVE SMOOTH",
"226 -29 OFFCURVE",
"237 0 OFFCURVE",
"276 0 CURVE SMOOTH",
"286 0 LINE SMOOTH",
"301 0 OFFCURVE",
"313 12 OFFCURVE",
"313 27 CURVE SMOOTH",
"313 673 LINE SMOOTH",
"313 688 OFFCURVE",
"301 700 OFFCURVE",
"286 700 CURVE SMOOTH",
"82 700 LINE SMOOTH",
"67 700 OFFCURVE",
"55 688 OFFCURVE",
"55 673 CURVE SMOOTH",
"55 27 LINE SMOOTH",
"55 12 OFFCURVE",
"67 0 OFFCURVE",
"82 0 CURVE SMOOTH",
"105 0 LINE",
"102 -16 OFFCURVE",
"100 -32 OFFCURVE",
"100 -50 CURVE SMOOTH",
"100 -145 OFFCURVE",
"151 -222 OFFCURVE",
"272 -222 CURVE SMOOTH"
);
}
);
width = 368;
}
);
leftKerningGroup = I;
rightKerningGroup = I;
unicode = 012E;
userData = {
com.typemytype.robofont.guides = (
{
angle = 90;
isGlobal = 0;
magnetic = 5;
x = 110;
y = 0;
}
);
};
},
{
color = 1;
glyphname = J;
layers = (
{
background = {
paths = (
{
closed = 1;
nodes = (
"509 -10 OFFCURVE",
"653 73 OFFCURVE",
"653 258 CURVE SMOOTH",
"653 673 LINE SMOOTH",
"653 688 OFFCURVE",
"641 700 OFFCURVE",
"626 700 CURVE SMOOTH",
"97 700 LINE SMOOTH",
"82 700 OFFCURVE",
"70 688 OFFCURVE",
"70 673 CURVE SMOOTH",
"70 524 LINE SMOOTH",
"70 509 OFFCURVE",
"82 497 OFFCURVE",
"97 497 CURVE SMOOTH",
"394 497 LINE",
"394 266 LINE SMOOTH",
"394 205 OFFCURVE",
"371 185 OFFCURVE",
"335 185 CURVE SMOOTH",
"302 185 OFFCURVE",
"290 198 OFFCURVE",
"277 225 CURVE SMOOTH",
"267 247 OFFCURVE",
"258 257 OFFCURVE",
"236 257 CURVE SMOOTH",
"32 257 LINE SMOOTH",
"20 257 OFFCURVE",
"10 247 OFFCURVE",
"10 235 CURVE SMOOTH",
"13 78 OFFCURVE",
"162 -10 OFFCURVE",
"327 -10 CURVE SMOOTH"
);
}
);
};
hints = (
{
horizontal = 1;
place = "{-2147483648, 0}";
type = Tag;
name = hr00;
}
);
layerId = "EC64484B-0978-4CB1-9EE9-C40A2D8C4059";
paths = (
{
closed = 1;
nodes = (
"336.073 -58.477 OFFCURVE",
"451.756 -45.103 OFFCURVE",
"442.683 33.374 CURVE",
"474.331 -26.812 OFFCURVE",
"590.639 34.346 OFFCURVE",
"558.991 94.532 CURVE",
"611.528 59.765 OFFCURVE",
"660.007 133.022 OFFCURVE",
"607.47 167.789 CURVE",
"672.72 157.872 OFFCURVE",
"688.251 260.054 OFFCURVE",
"623 269.971 CURVE",
"688 269.971 OFFCURVE",
"688 357.76 OFFCURVE",
"623 357.76 CURVE",
"684 357.76 OFFCURVE",
"684 437.567 OFFCURVE",
"623 437.567 CURVE",
"697 437.567 OFFCURVE",
"697 505.404 OFFCURVE",
"623 505.404 CURVE",
"692 505.404 OFFCURVE",
"692 661.029 OFFCURVE",
"623 661.029 CURVE",
"629.947 735.706 OFFCURVE",
"533.511 744.678 OFFCURVE",
"526.564 670 CURVE",
"526.564 737 OFFCURVE",
"431.105 737 OFFCURVE",
"431.105 670 CURVE",
"431.105 746 OFFCURVE",
"355.534 746 OFFCURVE",
"355.534 670 CURVE",
"355.534 738 OFFCURVE",
"315.759 738 OFFCURVE",
"315.759 670 CURVE",
"315.759 730 OFFCURVE",
"168.594 730 OFFCURVE",
"168.594 670 CURVE",
"154.229 747.683 OFFCURVE",
"85.635 734.999 OFFCURVE",
"100 657.316 CURVE",
"31 657.316 OFFCURVE",
"31 543.605 OFFCURVE",
"100 543.605 CURVE",
"83.719 468.346 OFFCURVE",
"160.475 451.741 OFFCURVE",
"176.756 527 CURVE",
"176.756 459 OFFCURVE",
"232.585 459 OFFCURVE",
"232.585 527 CURVE",
"232.585 457 OFFCURVE",
"292.402 457 OFFCURVE",
"292.402 527 CURVE",
"286.925 466.246 OFFCURVE",
"418.523 454.383 OFFCURVE",
"424 515.136 CURVE",
"355 515.136 OFFCURVE",
"355 475.591 OFFCURVE",
"424 475.591 CURVE",
"355 475.591 OFFCURVE",
"355 360.909 OFFCURVE",
"424 360.909 CURVE",
"364.049 363.324 OFFCURVE",
"358.306 220.721 OFFCURVE",
"418.257 218.306 CURVE",
"379.595 274.246 OFFCURVE",
"288.315 211.158 OFFCURVE",
"326.977 155.219 CURVE",
"372.195 212.528 OFFCURVE",
"281.217 284.31 OFFCURVE",
"236 227 CURVE",
"236 288 OFFCURVE",
"116 288 OFFCURVE",
"116 227 CURVE",
"84.922 281.11 OFFCURVE",
"15.653 241.327 OFFCURVE",
"46.731 187.216 CURVE",
"-7.014 152.467 OFFCURVE",
"55.538 55.723 OFFCURVE",
"109.283 90.472 CURVE",
"75.926 25.539 OFFCURVE",
"186.2 -31.11 OFFCURVE",
"219.557 33.824 CURVE",
"204.867 -37.683 OFFCURVE",
"252.228 -47.412 OFFCURVE",
"266.917 24.095 CURVE"
);
}
);
width = 702;
},
{
associatedMasterId = "EC64484B-0978-4CB1-9EE9-C40A2D8C4059";
background = {
paths = (
{
closed = 1;
nodes = (
"509 -10 OFFCURVE",
"653 73 OFFCURVE",
"653 258 CURVE SMOOTH",
"653 673 LINE SMOOTH",
"653 688 OFFCURVE",
"641 700 OFFCURVE",
"626 700 CURVE SMOOTH",
"97 700 LINE SMOOTH",
"82 700 OFFCURVE",
"70 688 OFFCURVE",
"70 673 CURVE SMOOTH",
"70 524 LINE SMOOTH",
"70 509 OFFCURVE",
"82 497 OFFCURVE",
"97 497 CURVE SMOOTH",
"394 497 LINE",
"394 266 LINE SMOOTH",
"394 205 OFFCURVE",
"371 185 OFFCURVE",
"335 185 CURVE SMOOTH",
"302 185 OFFCURVE",
"290 198 OFFCURVE",
"277 225 CURVE SMOOTH",
"267 247 OFFCURVE",
"258 257 OFFCURVE",
"236 257 CURVE SMOOTH",
"32 257 LINE SMOOTH",
"20 257 OFFCURVE",
"10 247 OFFCURVE",
"10 235 CURVE SMOOTH",
"13 78 OFFCURVE",
"162 -10 OFFCURVE",
"327 -10 CURVE SMOOTH"
);
}
);
};
hints = (
{
horizontal = 1;
place = "{-2147483648, 0}";
type = Tag;
name = hr00;
}
);
layerId = "510ED7C6-585D-40E1-B720-2BC29728E5DF";
name = "Dec 6 20, 14:56";
paths = (
{
closed = 1;
nodes = (
"509 -10 OFFCURVE",
"653 73 OFFCURVE",
"653 258 CURVE SMOOTH",
"653 673 LINE SMOOTH",
"653 688 OFFCURVE",
"641 700 OFFCURVE",
"626 700 CURVE SMOOTH",
"97 700 LINE SMOOTH",
"82 700 OFFCURVE",
"70 688 OFFCURVE",
"70 673 CURVE SMOOTH",
"70 524 LINE SMOOTH",
"70 509 OFFCURVE",
"82 497 OFFCURVE",
"97 497 CURVE SMOOTH",
"394 497 LINE",
"394 266 LINE SMOOTH",
"394 205 OFFCURVE",
"371 185 OFFCURVE",
"335 185 CURVE SMOOTH",
"302 185 OFFCURVE",
"290 198 OFFCURVE",
"277 225 CURVE SMOOTH",
"267 247 OFFCURVE",
"258 257 OFFCURVE",
"236 257 CURVE SMOOTH",
"32 257 LINE SMOOTH",
"20 257 OFFCURVE",
"10 247 OFFCURVE",
"10 235 CURVE SMOOTH",
"13 78 OFFCURVE",
"162 -10 OFFCURVE",
"327 -10 CURVE SMOOTH"
);
}
);
width = 702;
}
);
leftKerningGroup = J;
rightKerningGroup = U;
unicode = 004A;
userData = {
com.typemytype.robofont.guides = (
{
angle = 0;
isGlobal = 0;
magnetic = 5;
x = 0;
y = "-10";
},
{
angle = 0;
isGlobal = 0;
magnetic = 5;
x = 0;
y = 133;
},
{
angle = 0;
isGlobal = 0;
magnetic = 5;
x = 0;
y = 677;
},
{
angle = 90;
isGlobal = 0;
magnetic = 5;
x = 303;
y = 0;
},
{
angle = 90;
isGlobal = 0;
magnetic = 5;
x = 60;
y = 0;
},
{
angle = 90;
isGlobal = 0;
magnetic = 5;
x = 91;
y = 0;
}
);
};
},
{
color = 1;
glyphname = K;
layers = (
{
background = {
paths = (
{
closed = 1;
nodes = (
"273 0 LINE SMOOTH",
"288 0 OFFCURVE",
"300 12 OFFCURVE",
"300 27 CURVE SMOOTH",
"300 241 LINE",
"422 23 LINE SMOOTH",
"425 17 OFFCURVE",
"436 0 OFFCURVE",
"463 0 CURVE SMOOTH",
"691 0 LINE SMOOTH",
"703 0 OFFCURVE",
"713 10 OFFCURVE",
"713 22 CURVE SMOOTH",
"713 25 OFFCURVE",
"712 30 OFFCURVE",
"710 33 CURVE SMOOTH",
"513 365 LINE",
"693 667 LINE SMOOTH",
"695 670 OFFCURVE",
"696 674 OFFCURVE",
"696 678 CURVE SMOOTH",
"696 690 OFFCURVE",
"686 700 OFFCURVE",
"674 700 CURVE SMOOTH",
"453 700 LINE SMOOTH",
"431 700 OFFCURVE",
"419 689 OFFCURVE",
"413 678 CURVE SMOOTH",
"300 475 LINE",
"300 673 LINE SMOOTH",
"300 688 OFFCURVE",
"288 700 OFFCURVE",
"273 700 CURVE SMOOTH",
"82 700 LINE SMOOTH",
"67 700 OFFCURVE",
"55 688 OFFCURVE",
"55 673 CURVE SMOOTH",
"55 27 LINE SMOOTH",
"55 12 OFFCURVE",
"67 0 OFFCURVE",
"82 0 CURVE SMOOTH"
);
}
);
};
layerId = "EC64484B-0978-4CB1-9EE9-C40A2D8C4059";
paths = (
{
closed = 1;
nodes = (
"328.188 31.153 OFFCURVE",
"325.188 174.782 OFFCURVE",
"270 173.63 CURVE",
"323.6 173.63 OFFCURVE",
"323.6 213.259 OFFCURVE",
"270 213.259 CURVE",
"322.124 183.542 OFFCURVE",
"340.79 216.282 OFFCURVE",
"288.667 246 CURVE",
"261.57 200.683 OFFCURVE",
"326.237 162.017 OFFCURVE",
"353.333 207.333 CURVE",
"306.6 181.086 OFFCURVE",
"371.028 66.371 OFFCURVE",
"417.762 92.619 CURVE",
"378.589 49.306 OFFCURVE",
"447.827 -13.313 OFFCURVE",
"487 30 CURVE",
"487 -39 OFFCURVE",
"575 -39 OFFCURVE",
"575 30 CURVE",
"575 -45 OFFCURVE",
"675 -45 OFFCURVE",
"675 30 CURVE",
"733.361 53.727 OFFCURVE",
"728.084 66.707 OFFCURVE",
"669.723 42.98 CURVE",
"737.603 83.394 OFFCURVE",
"715.167 121.077 OFFCURVE",
"647.287 80.663 CURVE",
"703.997 114.427 OFFCURVE",
"681.561 152.11 OFFCURVE",
"624.851 118.347 CURVE",
"684.998 154.157 OFFCURVE",
"627.889 250.077 OFFCURVE",
"567.743 214.267 CURVE",
"620.156 245.473 OFFCURVE",
"577.325 317.414 OFFCURVE",
"524.911 286.208 CURVE",
"592.791 326.622 OFFCURVE",
"570.355 364.305 OFFCURVE",
"502.475 323.891 CURVE",
"570.732 313.791 OFFCURVE",
"586.902 423.072 OFFCURVE",
"518.645 433.172 CURVE",
"585.641 393.228 OFFCURVE",
"636.448 478.443 OFFCURVE",
"569.452 518.387 CURVE",
"630.435 482.028 OFFCURVE",
"697.5 594.512 OFFCURVE",
"636.516 630.871 CURVE",
"695.048 639.737 OFFCURVE",
"689.122 678.866 OFFCURVE",
"630.589 670 CURVE",
"630.589 734 OFFCURVE",
"484.571 734 OFFCURVE",
"484.571 670 CURVE",
"457.227 711.382 OFFCURVE",
"390.588 667.348 OFFCURVE",
"417.932 625.966 CURVE",
"368.246 653.489 OFFCURVE",
"318.449 563.59 OFFCURVE",
"368.136 536.068 CURVE",
"326.115 569.343 OFFCURVE",
"269.046 497.275 OFFCURVE",
"311.067 464 CURVE",
"350.067 516 OFFCURVE",
"309 546.8 OFFCURVE",
"270 494.8 CURVE",
"318.8 494.8 OFFCURVE",
"318.8 538.36 OFFCURVE",
"270 538.36 CURVE",
"325.2 538.36 OFFCURVE",
"325.2 641.32 OFFCURVE",
"270 641.32 CURVE",
"294.089 685.591 OFFCURVE",
"241.38 714.271 OFFCURVE",
"217.292 670 CURVE",
"217.292 749 OFFCURVE",
"105.875 749 OFFCURVE",
"105.875 670 CURVE",
"59.558 682.597 OFFCURVE",
"38.683 605.844 OFFCURVE",
"85 593.247 CURVE",
"21 593.247 OFFCURVE",
"21 501.531 OFFCURVE",
"85 501.531 CURVE",
"23 501.531 OFFCURVE",
"23 429.753 OFFCURVE",
"85 429.753 CURVE",
"22 429.753 OFFCURVE",
"22 318.099 OFFCURVE",
"85 318.099 CURVE",
"13 318.099 OFFCURVE",
"13 190.494 OFFCURVE",
"85 190.494 CURVE",
"11 190.494 OFFCURVE",
"11 118.716 OFFCURVE",
"85 118.716 CURVE",
"39.423 93.682 OFFCURVE",
"88.152 4.966 OFFCURVE",
"133.729 30 CURVE",
"133.729 -44 OFFCURVE",
"201.375 -44 OFFCURVE",
"201.375 30 CURVE"
);
}
);
width = 715;
},
{
associatedMasterId = "EC64484B-0978-4CB1-9EE9-C40A2D8C4059";
background = {
paths = (
{
closed = 1;
nodes = (
"273 0 LINE SMOOTH",
"288 0 OFFCURVE",
"300 12 OFFCURVE",
"300 27 CURVE SMOOTH",
"300 241 LINE",
"422 23 LINE SMOOTH",
"425 17 OFFCURVE",
"436 0 OFFCURVE",
"463 0 CURVE SMOOTH",
"691 0 LINE SMOOTH",
"703 0 OFFCURVE",
"713 10 OFFCURVE",
"713 22 CURVE SMOOTH",
"713 25 OFFCURVE",
"712 30 OFFCURVE",
"710 33 CURVE SMOOTH",
"513 365 LINE",
"693 667 LINE SMOOTH",
"695 670 OFFCURVE",
"696 674 OFFCURVE",
"696 678 CURVE SMOOTH",
"696 690 OFFCURVE",
"686 700 OFFCURVE",
"674 700 CURVE SMOOTH",
"453 700 LINE SMOOTH",
"431 700 OFFCURVE",
"419 689 OFFCURVE",
"413 678 CURVE SMOOTH",
"300 475 LINE",
"300 673 LINE SMOOTH",
"300 688 OFFCURVE",
"288 700 OFFCURVE",
"273 700 CURVE SMOOTH",
"82 700 LINE SMOOTH",
"67 700 OFFCURVE",
"55 688 OFFCURVE",
"55 673 CURVE SMOOTH",
"55 27 LINE SMOOTH",
"55 12 OFFCURVE",
"67 0 OFFCURVE",
"82 0 CURVE SMOOTH"
);
}
);
};
layerId = "23542D03-0D91-4768-932C-725F4E61089F";
name = "Dec 6 20, 14:56";
paths = (
{
closed = 1;
nodes = (
"273 0 LINE SMOOTH",
"288 0 OFFCURVE",
"300 12 OFFCURVE",
"300 27 CURVE SMOOTH",
"300 241 LINE",
"422 23 LINE SMOOTH",
"425 17 OFFCURVE",
"436 0 OFFCURVE",
"463 0 CURVE SMOOTH",
"691 0 LINE SMOOTH",
"703 0 OFFCURVE",
"713 10 OFFCURVE",
"713 22 CURVE SMOOTH",
"713 25 OFFCURVE",
"712 30 OFFCURVE",
"710 33 CURVE SMOOTH",
"513 365 LINE",
"693 667 LINE SMOOTH",
"695 670 OFFCURVE",
"696 674 OFFCURVE",
"696 678 CURVE SMOOTH",
"696 690 OFFCURVE",
"686 700 OFFCURVE",
"674 700 CURVE SMOOTH",
"453 700 LINE SMOOTH",
"431 700 OFFCURVE",
"419 689 OFFCURVE",
"413 678 CURVE SMOOTH",
"300 475 LINE",
"300 673 LINE SMOOTH",
"300 688 OFFCURVE",
"288 700 OFFCURVE",
"273 700 CURVE SMOOTH",
"82 700 LINE SMOOTH",
"67 700 OFFCURVE",
"55 688 OFFCURVE",
"55 673 CURVE SMOOTH",
"55 27 LINE SMOOTH",
"55 12 OFFCURVE",
"67 0 OFFCURVE",
"82 0 CURVE SMOOTH"
);
}
);
width = 715;
}
);
leftKerningGroup = I;
rightKerningGroup = K;
unicode = 004B;
userData = {
com.typemytype.robofont.guides = (
{
angle = 0;
isGlobal = 0;
magnetic = 5;
x = 0;
y = 365;
},
{
angle = 90;
isGlobal = 0;
magnetic = 5;
x = 547;
y = 0;
},
{
angle = 90;
isGlobal = 0;
magnetic = 5;
x = 94;
y = 0;
},
{
angle = 90;
isGlobal = 0;
magnetic = 5;
x = 139;
y = 0;
}
);
};
},
{
color = 1;
glyphname = L;
layers = (
{
anchors = (
{
name = bottom;
position = "{313, 0}";
},
{
name = center;
position = "{313, 350}";
},
{
name = top;
position = "{173, 700}";
},
{
name = topright;
position = "{606, 700}";
}
);
background = {
anchors = (
{
name = bottom;
position = "{313, 0}";
},
{
name = center;
position = "{313, 350}";
},
{
name = top;
position = "{173, 700}";
},
{
name = topright;
position = "{606, 700}";
}
);
paths = (
{
closed = 1;
nodes = (
"586 0 LINE SMOOTH",
"601 0 OFFCURVE",
"613 12 OFFCURVE",
"613 27 CURVE SMOOTH",
"613 178 LINE SMOOTH",
"613 193 OFFCURVE",
"601 205 OFFCURVE",
"586 205 CURVE SMOOTH",
"309 205 LINE",
"309 673 LINE SMOOTH",
"309 688 OFFCURVE",
"297 700 OFFCURVE",
"282 700 CURVE SMOOTH",
"82 700 LINE SMOOTH",
"67 700 OFFCURVE",
"55 688 OFFCURVE",
"55 673 CURVE SMOOTH",
"55 27 LINE SMOOTH",
"55 12 OFFCURVE",
"67 0 OFFCURVE",
"82 0 CURVE SMOOTH"
);
}
);
};
layerId = "EC64484B-0978-4CB1-9EE9-C40A2D8C4059";
paths = (
{
closed = 1;
nodes = (
"652.961 32.273 OFFCURVE",
"649.961 120.667 OFFCURVE",
"583 118.395 CURVE",
"658 118.395 OFFCURVE",
"658 158.132 OFFCURVE",
"583 158.132 CURVE",
"593.577 221.251 OFFCURVE",
"492.915 238.12 OFFCURVE",
"482.338 175 CURVE",
"482.338 235 OFFCURVE",
"342.792 235 OFFCURVE",
"342.792 175 CURVE",
"377.207 243.881 OFFCURVE",
"313.415 275.753 OFFCURVE",
"279 206.872 CURVE",
"357 206.872 OFFCURVE",
"357 342.328 OFFCURVE",
"279 342.328 CURVE",
"344 342.328 OFFCURVE",
"344 477.784 OFFCURVE",
"279 477.784 CURVE",
"346 477.784 OFFCURVE",
"346 521.608 OFFCURVE",
"279 521.608 CURVE",
"349 521.608 OFFCURVE",
"349 637.144 OFFCURVE",
"279 637.144 CURVE",
"295.581 688.115 OFFCURVE",
"194.581 720.971 OFFCURVE",
"178 670 CURVE",
"178 746 OFFCURVE",
"94 746 OFFCURVE",
"94 670 CURVE",
"34.748 691.405 OFFCURVE",
"25.748 666.491 OFFCURVE",
"85 645.086 CURVE",
"11 645.086 OFFCURVE",
"11 565.333 OFFCURVE",
"85 565.333 CURVE",
"12 565.333 OFFCURVE",
"12 421.778 OFFCURVE",
"85 421.778 CURVE",
"9 421.778 OFFCURVE",
"9 282.21 OFFCURVE",
"85 282.21 CURVE",
"13 282.21 OFFCURVE",
"13 194.481 OFFCURVE",
"85 194.481 CURVE",
"23 194.481 OFFCURVE",
"23 66.877 OFFCURVE",
"85 66.877 CURVE",
"65.002 7.768 OFFCURVE",
"174.002 -29.109 OFFCURVE",
"194 30 CURVE",
"194 -46 OFFCURVE",
"246 -46 OFFCURVE",
"246 30 CURVE",
"246 -42 OFFCURVE",
"374 -42 OFFCURVE",
"374 30 CURVE",
"374 -40 OFFCURVE",
"474 -40 OFFCURVE",
"474 30 CURVE",
"474 -40 OFFCURVE",
"578 -40 OFFCURVE",
"578 30 CURVE"
);
}
);
width = 626;
},
{
anchors = (
{
name = bottom;
position = "{313, 0}";
},
{
name = center;
position = "{313, 350}";
},
{
name = top;
position = "{173, 700}";
},
{
name = topright;
position = "{606, 700}";
}
);
associatedMasterId = "EC64484B-0978-4CB1-9EE9-C40A2D8C4059";
background = {
anchors = (
{
name = bottom;
position = "{313, 0}";
},
{
name = center;
position = "{313, 350}";
},
{
name = top;
position = "{173, 700}";
},
{
name = topright;
position = "{606, 700}";
}
);
paths = (
{
closed = 1;
nodes = (
"586 0 LINE SMOOTH",
"601 0 OFFCURVE",
"613 12 OFFCURVE",
"613 27 CURVE SMOOTH",
"613 178 LINE SMOOTH",
"613 193 OFFCURVE",
"601 205 OFFCURVE",
"586 205 CURVE SMOOTH",
"309 205 LINE",
"309 673 LINE SMOOTH",
"309 688 OFFCURVE",
"297 700 OFFCURVE",
"282 700 CURVE SMOOTH",
"82 700 LINE SMOOTH",
"67 700 OFFCURVE",
"55 688 OFFCURVE",
"55 673 CURVE SMOOTH",
"55 27 LINE SMOOTH",
"55 12 OFFCURVE",
"67 0 OFFCURVE",
"82 0 CURVE SMOOTH"
);
}
);
};
layerId = "0CC6E406-FF41-49C0-9FFB-ED42D4299402";
name = "Dec 6 20, 14:56";
paths = (
{
closed = 1;
nodes = (
"586 0 LINE SMOOTH",
"601 0 OFFCURVE",
"613 12 OFFCURVE",
"613 27 CURVE SMOOTH",
"613 178 LINE SMOOTH",
"613 193 OFFCURVE",
"601 205 OFFCURVE",
"586 205 CURVE SMOOTH",
"309 205 LINE",
"309 673 LINE SMOOTH",
"309 688 OFFCURVE",
"297 700 OFFCURVE",
"282 700 CURVE SMOOTH",
"82 700 LINE SMOOTH",
"67 700 OFFCURVE",
"55 688 OFFCURVE",
"55 673 CURVE SMOOTH",
"55 27 LINE SMOOTH",
"55 12 OFFCURVE",
"67 0 OFFCURVE",
"82 0 CURVE SMOOTH"
);
}
);
width = 626;
}
);
leftKerningGroup = I;
rightKerningGroup = L;
unicode = 004C;
},
{
color = 1;
glyphname = Lslash;
layers = (
{
background = {
paths = (
{
closed = 1;
nodes = (
"594 0 LINE SMOOTH",
"609 0 OFFCURVE",
"621 12 OFFCURVE",
"621 27 CURVE SMOOTH",
"621 178 LINE SMOOTH",
"621 193 OFFCURVE",
"609 205 OFFCURVE",
"594 205 CURVE SMOOTH",
"317 205 LINE",
"317 325 LINE",
"472 386 LINE SMOOTH",
"488 392 OFFCURVE",
"494 401 OFFCURVE",
"494 419 CURVE SMOOTH",
"494 527 LINE SMOOTH",
"494 539 OFFCURVE",
"485 548 OFFCURVE",
"473 548 CURVE SMOOTH",
"471 548 OFFCURVE",
"467 547 OFFCURVE",
"462 545 CURVE SMOOTH",
"317 488 LINE",
"317 673 LINE SMOOTH",
"317 688 OFFCURVE",
"305 700 OFFCURVE",
"290 700 CURVE SMOOTH",
"90 700 LINE SMOOTH",
"75 700 OFFCURVE",
"63 688 OFFCURVE",
"63 673 CURVE SMOOTH",
"63 388 LINE",
"35 377 LINE SMOOTH",
"19 371 OFFCURVE",
"13 362 OFFCURVE",
"13 344 CURVE SMOOTH",
"13 236 LINE SMOOTH",
"13 224 OFFCURVE",
"22 215 OFFCURVE",
"34 215 CURVE SMOOTH",
"36 215 OFFCURVE",
"40 216 OFFCURVE",
"45 218 CURVE SMOOTH",
"63 225 LINE",
"63 27 LINE SMOOTH",
"63 12 OFFCURVE",
"75 0 OFFCURVE",
"90 0 CURVE SMOOTH"
);
}
);
};
hints = (
{
horizontal = 1;
place = "{-2147483648, 0}";
type = Tag;
name = hr00;
}
);
layerId = "EC64484B-0978-4CB1-9EE9-C40A2D8C4059";
paths = (
{
closed = 1;
nodes = (
"664.945 32.783 OFFCURVE",
"661.945 109.257 OFFCURVE",
"591 106.474 CURVE",
"638.528 137.576 OFFCURVE",
"593.683 206.102 OFFCURVE",
"546.156 175 CURVE",
"546.156 248 OFFCURVE",
"434.519 248 OFFCURVE",
"434.519 175 CURVE",
"434.519 239 OFFCURVE",
"386.675 239 OFFCURVE",
"386.675 175 CURVE",
"389.291 240.948 OFFCURVE",
"289.616 244.902 OFFCURVE",
"287 178.953 CURVE",
"355 178.953 OFFCURVE",
"355 238.256 OFFCURVE",
"287 238.256 CURVE",
"354.846 233.676 OFFCURVE",
"362.25 343.356 OFFCURVE",
"294.404 347.936 CURVE",
"320.208 282.866 OFFCURVE",
"434.974 328.376 OFFCURVE",
"409.17 393.447 CURVE",
"457.818 369.099 OFFCURVE",
"512.647 478.653 OFFCURVE",
"464 503 CURVE",
"497.881 551.546 OFFCURVE",
"488.281 558.246 OFFCURVE",
"454.4 509.7 CURVE",
"432.479 565.552 OFFCURVE",
"346.919 531.972 OFFCURVE",
"368.84 476.12 CURVE",
"360.95 552.715 OFFCURVE",
"279.11 544.284 OFFCURVE",
"287 467.69 CURVE",
"335.8 467.69 OFFCURVE",
"335.8 519.017 OFFCURVE",
"287 519.017 CURVE",
"347 519.017 OFFCURVE",
"347 574.293 OFFCURVE",
"287 574.293 CURVE",
"357 574.293 OFFCURVE",
"357 661.155 OFFCURVE",
"287 661.155 CURVE",
"292.257 725.942 OFFCURVE",
"183.257 734.787 OFFCURVE",
"178 670 CURVE",
"146.59 717.325 OFFCURVE",
"61.59 660.909 OFFCURVE",
"93 613.584 CURVE",
"17 613.584 OFFCURVE",
"17 502.675 OFFCURVE",
"93 502.675 CURVE",
"18 502.675 OFFCURVE",
"18 427.416 OFFCURVE",
"93 427.416 CURVE",
"32.107 431.032 OFFCURVE",
"28.492 370.155 OFFCURVE",
"89.385 366.538 CURVE",
"39.1 396.237 OFFCURVE",
"-7.285 317.698 OFFCURVE",
"43 288 CURVE",
"-33.971 290.13 OFFCURVE",
"-35.289 242.49 OFFCURVE",
"41.682 240.361 CURVE",
"65.329 181.751 OFFCURVE",
"116.647 202.456 OFFCURVE",
"93 261.066 CURVE",
"27 261.066 OFFCURVE",
"27 201.557 OFFCURVE",
"93 201.557 CURVE",
"32 201.557 OFFCURVE",
"32 54.77 OFFCURVE",
"93 54.77 CURVE",
"77.77 0.05 OFFCURVE",
"166.77 -24.72 OFFCURVE",
"182 30 CURVE",
"182 -45 OFFCURVE",
"286 -45 OFFCURVE",
"286 30 CURVE",
"286 -49 OFFCURVE",
"394 -49 OFFCURVE",
"394 30 CURVE",
"394 -33 OFFCURVE",
"446 -33 OFFCURVE",
"446 30 CURVE"
);
}
);
width = 634;
},
{
associatedMasterId = "EC64484B-0978-4CB1-9EE9-C40A2D8C4059";
background = {
paths = (
{
closed = 1;
nodes = (
"594 0 LINE SMOOTH",
"609 0 OFFCURVE",
"621 12 OFFCURVE",
"621 27 CURVE SMOOTH",
"621 178 LINE SMOOTH",
"621 193 OFFCURVE",
"609 205 OFFCURVE",
"594 205 CURVE SMOOTH",
"317 205 LINE",
"317 325 LINE",
"472 386 LINE SMOOTH",
"488 392 OFFCURVE",
"494 401 OFFCURVE",
"494 419 CURVE SMOOTH",
"494 527 LINE SMOOTH",
"494 539 OFFCURVE",
"485 548 OFFCURVE",
"473 548 CURVE SMOOTH",
"471 548 OFFCURVE",
"467 547 OFFCURVE",
"462 545 CURVE SMOOTH",
"317 488 LINE",
"317 673 LINE SMOOTH",
"317 688 OFFCURVE",
"305 700 OFFCURVE",
"290 700 CURVE SMOOTH",
"90 700 LINE SMOOTH",
"75 700 OFFCURVE",
"63 688 OFFCURVE",
"63 673 CURVE SMOOTH",
"63 388 LINE",
"35 377 LINE SMOOTH",
"19 371 OFFCURVE",
"13 362 OFFCURVE",
"13 344 CURVE SMOOTH",
"13 236 LINE SMOOTH",
"13 224 OFFCURVE",
"22 215 OFFCURVE",
"34 215 CURVE SMOOTH",
"36 215 OFFCURVE",
"40 216 OFFCURVE",
"45 218 CURVE SMOOTH",
"63 225 LINE",
"63 27 LINE SMOOTH",
"63 12 OFFCURVE",
"75 0 OFFCURVE",
"90 0 CURVE SMOOTH"
);
}
);
};
hints = (
{
horizontal = 1;
place = "{-2147483648, 0}";
type = Tag;
name = hr00;
}
);
layerId = "A3A321B5-6934-4542-838C-A7F40EC80FF9";
name = "Dec 6 20, 14:56";
paths = (
{
closed = 1;
nodes = (
"594 0 LINE SMOOTH",
"609 0 OFFCURVE",
"621 12 OFFCURVE",
"621 27 CURVE SMOOTH",
"621 178 LINE SMOOTH",
"621 193 OFFCURVE",
"609 205 OFFCURVE",
"594 205 CURVE SMOOTH",
"317 205 LINE",
"317 325 LINE",
"472 386 LINE SMOOTH",
"488 392 OFFCURVE",
"494 401 OFFCURVE",
"494 419 CURVE SMOOTH",
"494 527 LINE SMOOTH",
"494 539 OFFCURVE",
"485 548 OFFCURVE",
"473 548 CURVE SMOOTH",
"471 548 OFFCURVE",
"467 547 OFFCURVE",
"462 545 CURVE SMOOTH",
"317 488 LINE",
"317 673 LINE SMOOTH",
"317 688 OFFCURVE",
"305 700 OFFCURVE",
"290 700 CURVE SMOOTH",
"90 700 LINE SMOOTH",
"75 700 OFFCURVE",
"63 688 OFFCURVE",
"63 673 CURVE SMOOTH",
"63 388 LINE",
"35 377 LINE SMOOTH",
"19 371 OFFCURVE",
"13 362 OFFCURVE",
"13 344 CURVE SMOOTH",
"13 236 LINE SMOOTH",
"13 224 OFFCURVE",
"22 215 OFFCURVE",
"34 215 CURVE SMOOTH",
"36 215 OFFCURVE",
"40 216 OFFCURVE",
"45 218 CURVE SMOOTH",
"63 225 LINE",
"63 27 LINE SMOOTH",
"63 12 OFFCURVE",
"75 0 OFFCURVE",
"90 0 CURVE SMOOTH"
);
}
);
width = 634;
}
);
leftKerningGroup = I;
rightKerningGroup = L;
unicode = 0141;
userData = {
com.typemytype.robofont.guides = (
{
angle = 0;
isGlobal = 0;
magnetic = 5;
x = 0;
y = 215;
},
{
angle = 0;
isGlobal = 0;
magnetic = 5;
x = 0;
y = 548;
},
{
angle = 0;
isGlobal = 0;
magnetic = 5;
x = 0;
y = 438;
},
{
angle = 0;
isGlobal = 0;
magnetic = 5;
x = 0;
y = 267;
},
{
angle = 0;
isGlobal = 0;
magnetic = 5;
x = 0;
y = 353;
},
{
angle = 90;
isGlobal = 0;
magnetic = 5;
x = 129;
y = 0;
},
{
angle = 90;
isGlobal = 0;
magnetic = 5;
x = 325;
y = 0;
},
{
angle = 90;
isGlobal = 0;
magnetic = 5;
x = "-5";
y = 0;
}
);
};
},
{
color = 1;
glyphname = M;
layers = (
{
background = {
paths = (
{
closed = 1;
nodes = (
"263 0 LINE SMOOTH",
"278 0 OFFCURVE",
"290 12 OFFCURVE",
"290 27 CURVE SMOOTH",
"290 301 LINE",
"356 193 LINE SMOOTH",
"363 182 OFFCURVE",
"373 168 OFFCURVE",
"393 168 CURVE SMOOTH",
"463 168 LINE SMOOTH",
"483 168 OFFCURVE",
"493 182 OFFCURVE",
"500 193 CURVE SMOOTH",
"566 301 LINE",
"566 27 LINE SMOOTH",
"566 12 OFFCURVE",
"578 0 OFFCURVE",
"593 0 CURVE SMOOTH",
"774 0 LINE SMOOTH",
"789 0 OFFCURVE",
"801 12 OFFCURVE",
"801 27 CURVE SMOOTH",
"801 673 LINE SMOOTH",
"801 688 OFFCURVE",
"789 700 OFFCURVE",
"774 700 CURVE SMOOTH",
"616 700 LINE SMOOTH",
"589 700 OFFCURVE",
"577 680 OFFCURVE",
"573 673 CURVE SMOOTH",
"428 433 LINE",
"283 673 LINE SMOOTH",
"279 680 OFFCURVE",
"267 700 OFFCURVE",
"240 700 CURVE SMOOTH",
"82 700 LINE SMOOTH",
"67 700 OFFCURVE",
"55 688 OFFCURVE",
"55 673 CURVE SMOOTH",
"55 27 LINE SMOOTH",
"55 12 OFFCURVE",
"67 0 OFFCURVE",
"82 0 CURVE SMOOTH"
);
}
);
};
hints = (
{
horizontal = 1;
place = "{-2147483648, 0}";
type = Tag;
name = hr00;
}
);
layerId = "EC64484B-0978-4CB1-9EE9-C40A2D8C4059";
paths = (
{
closed = 1;
nodes = (
"333.985 31.48 OFFCURVE",
"330.985 175.407 OFFCURVE",
"260 173.928 CURVE",
"310.4 173.928 OFFCURVE",
"310.4 229.522 OFFCURVE",
"260 229.522 CURVE",
"312.084 216.864 OFFCURVE",
"330.751 293.676 OFFCURVE",
"278.667 306.333 CURVE",
"239.312 262.108 OFFCURVE",
"333.52 178.275 OFFCURVE",
"372.875 222.5 CURVE",
"342.553 173.527 OFFCURVE",
"382.122 149.027 OFFCURVE",
"412.444 198 CURVE",
"442.821 144.411 OFFCURVE",
"527.721 192.536 OFFCURVE",
"497.344 246.125 CURVE",
"541.212 219.723 OFFCURVE",
"571.68 270.348 OFFCURVE",
"527.812 296.75 CURVE",
"474.084 238.834 OFFCURVE",
"542.272 175.577 OFFCURVE",
"596 233.493 CURVE",
"548 233.493 OFFCURVE",
"548 165.986 OFFCURVE",
"596 165.986 CURVE",
"524 165.986 OFFCURVE",
"524 110.391 OFFCURVE",
"596 110.391 CURVE",
"552.371 88.53 OFFCURVE",
"592.653 8.138 OFFCURVE",
"636.283 30 CURVE",
"636.283 -33 OFFCURVE",
"754.326 -33 OFFCURVE",
"754.326 30 CURVE",
"810.517 1.512 OFFCURVE",
"827.191 34.401 OFFCURVE",
"771 62.889 CURVE",
"834 62.889 OFFCURVE",
"834 154.605 OFFCURVE",
"771 154.605 CURVE",
"846 154.605 OFFCURVE",
"846 294.173 OFFCURVE",
"771 294.173 CURVE",
"842 294.173 OFFCURVE",
"842 421.778 OFFCURVE",
"771 421.778 CURVE",
"837 421.778 OFFCURVE",
"837 521.469 OFFCURVE",
"771 521.469 CURVE",
"835 521.469 OFFCURVE",
"835 569.321 OFFCURVE",
"771 569.321 CURVE",
"843.914 572.87 OFFCURVE",
"839.014 673.549 OFFCURVE",
"766.1 670 CURVE",
"766.1 734 OFFCURVE",
"679.2 734 OFFCURVE",
"679.2 670 CURVE",
"646.529 722.223 OFFCURVE",
"529.245 648.849 OFFCURVE",
"561.916 596.627 CURVE",
"495.156 636.965 OFFCURVE",
"439.53 544.905 OFFCURVE",
"506.289 504.566 CURVE",
"460.414 532.286 OFFCURVE",
"390.365 416.358 OFFCURVE",
"436.241 388.639 CURVE",
"476.414 420.381 OFFCURVE",
"406.365 509.032 OFFCURVE",
"366.193 477.289 CURVE",
"433.808 518.145 OFFCURVE",
"394.663 582.928 OFFCURVE",
"327.048 542.072 CURVE",
"386.96 578.274 OFFCURVE",
"347.816 643.057 OFFCURVE",
"287.904 606.855 CURVE",
"329.579 648.9 OFFCURVE",
"265.876 712.045 OFFCURVE",
"224.2 670 CURVE",
"224.2 735 OFFCURVE",
"149.15 735 OFFCURVE",
"149.15 670 CURVE",
"149.15 734 OFFCURVE",
"101.75 734 OFFCURVE",
"101.75 670 CURVE",
"41.33 683.908 OFFCURVE",
"24.58 611.143 OFFCURVE",
"85 597.235 CURVE",
"6 597.235 OFFCURVE",
"6 517.481 OFFCURVE",
"85 517.481 CURVE",
"13 517.481 OFFCURVE",
"13 461.654 OFFCURVE",
"85 461.654 CURVE",
"23 461.654 OFFCURVE",
"23 365.951 OFFCURVE",
"85 365.951 CURVE",
"11 365.951 OFFCURVE",
"11 258.284 OFFCURVE",
"85 258.284 CURVE",
"20 258.284 OFFCURVE",
"20 150.617 OFFCURVE",
"85 150.617 CURVE",
"17 150.617 OFFCURVE",
"17 27 OFFCURVE",
"85 27 CURVE",
"86.963 -37.97 OFFCURVE",
"186.267 -34.97 OFFCURVE",
"184.304 30 CURVE",
"184.304 -46 OFFCURVE",
"231.522 -46 OFFCURVE",
"231.522 30 CURVE"
);
}
);
width = 856;
},
{
associatedMasterId = "EC64484B-0978-4CB1-9EE9-C40A2D8C4059";
background = {
paths = (
{
closed = 1;
nodes = (
"263 0 LINE SMOOTH",
"278 0 OFFCURVE",
"290 12 OFFCURVE",
"290 27 CURVE SMOOTH",
"290 301 LINE",
"356 193 LINE SMOOTH",
"363 182 OFFCURVE",
"373 168 OFFCURVE",
"393 168 CURVE SMOOTH",
"463 168 LINE SMOOTH",
"483 168 OFFCURVE",
"493 182 OFFCURVE",
"500 193 CURVE SMOOTH",
"566 301 LINE",
"566 27 LINE SMOOTH",
"566 12 OFFCURVE",
"578 0 OFFCURVE",
"593 0 CURVE SMOOTH",
"774 0 LINE SMOOTH",
"789 0 OFFCURVE",
"801 12 OFFCURVE",
"801 27 CURVE SMOOTH",
"801 673 LINE SMOOTH",
"801 688 OFFCURVE",
"789 700 OFFCURVE",
"774 700 CURVE SMOOTH",
"616 700 LINE SMOOTH",
"589 700 OFFCURVE",
"577 680 OFFCURVE",
"573 673 CURVE SMOOTH",
"428 433 LINE",
"283 673 LINE SMOOTH",
"279 680 OFFCURVE",
"267 700 OFFCURVE",
"240 700 CURVE SMOOTH",
"82 700 LINE SMOOTH",
"67 700 OFFCURVE",
"55 688 OFFCURVE",
"55 673 CURVE SMOOTH",
"55 27 LINE SMOOTH",
"55 12 OFFCURVE",
"67 0 OFFCURVE",
"82 0 CURVE SMOOTH"
);
}
);
};
hints = (
{
horizontal = 1;
place = "{-2147483648, 0}";
type = Tag;
name = hr00;
}
);
layerId = "E66656D3-03A3-4FF8-9AF3-78C1ECE6B43A";
name = "Dec 6 20, 14:56";
paths = (
{
closed = 1;
nodes = (
"263 0 LINE SMOOTH",
"278 0 OFFCURVE",
"290 12 OFFCURVE",
"290 27 CURVE SMOOTH",
"290 301 LINE",
"356 193 LINE SMOOTH",
"363 182 OFFCURVE",
"373 168 OFFCURVE",
"393 168 CURVE SMOOTH",
"463 168 LINE SMOOTH",
"483 168 OFFCURVE",
"493 182 OFFCURVE",
"500 193 CURVE SMOOTH",
"566 301 LINE",
"566 27 LINE SMOOTH",
"566 12 OFFCURVE",
"578 0 OFFCURVE",
"593 0 CURVE SMOOTH",
"774 0 LINE SMOOTH",
"789 0 OFFCURVE",
"801 12 OFFCURVE",
"801 27 CURVE SMOOTH",
"801 673 LINE SMOOTH",
"801 688 OFFCURVE",
"789 700 OFFCURVE",
"774 700 CURVE SMOOTH",
"616 700 LINE SMOOTH",
"589 700 OFFCURVE",
"577 680 OFFCURVE",
"573 673 CURVE SMOOTH",
"428 433 LINE",
"283 673 LINE SMOOTH",
"279 680 OFFCURVE",
"267 700 OFFCURVE",
"240 700 CURVE SMOOTH",
"82 700 LINE SMOOTH",
"67 700 OFFCURVE",
"55 688 OFFCURVE",
"55 673 CURVE SMOOTH",
"55 27 LINE SMOOTH",
"55 12 OFFCURVE",
"67 0 OFFCURVE",
"82 0 CURVE SMOOTH"
);
}
);
width = 856;
}
);
leftKerningGroup = I;
rightKerningGroup = I;
unicode = 004D;
userData = {
com.typemytype.robofont.guides = (
{
angle = 0;
isGlobal = 0;
magnetic = 5;
x = 0;
y = 168;
},
{
angle = 0;
isGlobal = 0;
magnetic = 5;
x = 0;
y = 9;
},
{
angle = 0;
isGlobal = 0;
magnetic = 5;
x = 0;
y = 691;
},
{
angle = 90;
isGlobal = 0;
magnetic = 5;
x = 126;
y = 0;
},
{
angle = 90;
isGlobal = 0;
magnetic = 5;
x = 636;
y = 0;
}
);
};
},
{
color = 1;
glyphname = N;
layers = (
{
anchors = (
{
name = bottom;
position = "{370, 0}";
},
{
name = top;
position = "{370, 700}";
}
);
background = {
anchors = (
{
name = bottom;
position = "{370, 0}";
},
{
name = top;
position = "{370, 700}";
}
);
paths = (
{
closed = 1;
nodes = (
"263 0 LINE SMOOTH",
"278 0 OFFCURVE",
"290 12 OFFCURVE",
"290 27 CURVE SMOOTH",
"290 278 LINE",
"459 23 LINE SMOOTH",
"463 17 OFFCURVE",
"473 0 OFFCURVE",
"500 0 CURVE SMOOTH",
"658 0 LINE SMOOTH",
"673 0 OFFCURVE",
"685 12 OFFCURVE",
"685 27 CURVE SMOOTH",
"685 673 LINE SMOOTH",
"685 688 OFFCURVE",
"673 700 OFFCURVE",
"658 700 CURVE SMOOTH",
"477 700 LINE SMOOTH",
"462 700 OFFCURVE",
"450 688 OFFCURVE",
"450 673 CURVE SMOOTH",
"450 400 LINE",
"281 677 LINE SMOOTH",
"277 684 OFFCURVE",
"267 700 OFFCURVE",
"240 700 CURVE SMOOTH",
"82 700 LINE SMOOTH",
"67 700 OFFCURVE",
"55 688 OFFCURVE",
"55 673 CURVE SMOOTH",
"55 27 LINE SMOOTH",
"55 12 OFFCURVE",
"67 0 OFFCURVE",
"82 0 CURVE SMOOTH"
);
}
);
};
layerId = "EC64484B-0978-4CB1-9EE9-C40A2D8C4059";
paths = (
{
closed = 1;
nodes = (
"340.905 33.847 OFFCURVE",
"337.905 94.593 OFFCURVE",
"260 90.746 CURVE",
"312 90.746 OFFCURVE",
"312 190.349 OFFCURVE",
"260 190.349 CURVE",
"309.558 188.303 OFFCURVE",
"313.224 277.087 OFFCURVE",
"263.667 279.133 CURVE",
"242.812 227.161 OFFCURVE",
"327.068 193.353 OFFCURVE",
"347.922 245.325 CURVE",
"297.909 212.179 OFFCURVE",
"339.61 149.256 OFFCURVE",
"389.623 182.403 CURVE",
"333.775 145.389 OFFCURVE",
"417.178 19.545 OFFCURVE",
"473.026 56.558 CURVE",
"450.765 0.841 OFFCURVE",
"517.239 -25.718 OFFCURVE",
"539.5 30 CURVE",
"539.5 -45 OFFCURVE",
"658 -45 OFFCURVE",
"658 30 CURVE",
"735.926 33.399 OFFCURVE",
"732.926 102.177 OFFCURVE",
"655 98.778 CURVE",
"721 98.778 OFFCURVE",
"721 226.383 OFFCURVE",
"655 226.383 CURVE",
"722 226.383 OFFCURVE",
"722 302.148 OFFCURVE",
"655 302.148 CURVE",
"716 302.148 OFFCURVE",
"716 421.778 OFFCURVE",
"655 421.778 CURVE",
"730 421.778 OFFCURVE",
"730 501.531 OFFCURVE",
"655 501.531 CURVE",
"732 501.531 OFFCURVE",
"732 621.16 OFFCURVE",
"655 621.16 CURVE",
"685.115 670.261 OFFCURVE",
"605.484 719.101 OFFCURVE",
"575.37 670 CURVE",
"575.37 743 OFFCURVE",
"477 743 OFFCURVE",
"477 670 CURVE",
"424.222 668.475 OFFCURVE",
"427.222 564.649 OFFCURVE",
"480 566.174 CURVE",
"425.6 566.174 OFFCURVE",
"425.6 427.696 OFFCURVE",
"480 427.696 CURVE",
"445.601 461.172 OFFCURVE",
"408.267 422.81 OFFCURVE",
"442.667 389.333 CURVE",
"484.029 425.888 OFFCURVE",
"413.838 505.31 OFFCURVE",
"372.476 468.756 CURVE",
"425.796 501.17 OFFCURVE",
"372.211 589.317 OFFCURVE",
"318.89 556.902 CURVE",
"375.483 596.378 OFFCURVE",
"296.592 709.475 OFFCURVE",
"240 670 CURVE",
"240 744 OFFCURVE",
"117.55 744 OFFCURVE",
"117.55 670 CURVE",
"70.502 688.074 OFFCURVE",
"37.952 603.346 OFFCURVE",
"85 585.272 CURVE",
"16 585.272 OFFCURVE",
"16 493.556 OFFCURVE",
"85 493.556 CURVE",
"11 493.556 OFFCURVE",
"11 405.827 OFFCURVE",
"85 405.827 CURVE",
"21 405.827 OFFCURVE",
"21 318.099 OFFCURVE",
"85 318.099 CURVE",
"9 318.099 OFFCURVE",
"9 162.58 OFFCURVE",
"85 162.58 CURVE",
"24 162.58 OFFCURVE",
"24 46.938 OFFCURVE",
"85 46.938 CURVE",
"74.152 -19.178 OFFCURVE",
"177.392 -36.116 OFFCURVE",
"188.239 30 CURVE"
);
}
);
width = 740;
},
{
anchors = (
{
name = bottom;
position = "{370, 0}";
},
{
name = top;
position = "{370, 700}";
}
);
associatedMasterId = "EC64484B-0978-4CB1-9EE9-C40A2D8C4059";
background = {
anchors = (
{
name = bottom;
position = "{370, 0}";
},
{
name = top;
position = "{370, 700}";
}
);
paths = (
{
closed = 1;
nodes = (
"263 0 LINE SMOOTH",
"278 0 OFFCURVE",
"290 12 OFFCURVE",
"290 27 CURVE SMOOTH",
"290 278 LINE",
"459 23 LINE SMOOTH",
"463 17 OFFCURVE",
"473 0 OFFCURVE",
"500 0 CURVE SMOOTH",
"658 0 LINE SMOOTH",
"673 0 OFFCURVE",
"685 12 OFFCURVE",
"685 27 CURVE SMOOTH",
"685 673 LINE SMOOTH",
"685 688 OFFCURVE",
"673 700 OFFCURVE",
"658 700 CURVE SMOOTH",
"477 700 LINE SMOOTH",
"462 700 OFFCURVE",
"450 688 OFFCURVE",
"450 673 CURVE SMOOTH",
"450 400 LINE",
"281 677 LINE SMOOTH",
"277 684 OFFCURVE",
"267 700 OFFCURVE",
"240 700 CURVE SMOOTH",
"82 700 LINE SMOOTH",
"67 700 OFFCURVE",
"55 688 OFFCURVE",
"55 673 CURVE SMOOTH",
"55 27 LINE SMOOTH",
"55 12 OFFCURVE",
"67 0 OFFCURVE",
"82 0 CURVE SMOOTH"
);
}
);
};
layerId = "9E1A80D6-27AF-4512-A4B4-90B2ED3A34A3";
name = "Dec 6 20, 14:56";
paths = (
{
closed = 1;
nodes = (
"263 0 LINE SMOOTH",
"278 0 OFFCURVE",
"290 12 OFFCURVE",
"290 27 CURVE SMOOTH",
"290 278 LINE",
"459 23 LINE SMOOTH",
"463 17 OFFCURVE",
"473 0 OFFCURVE",
"500 0 CURVE SMOOTH",
"658 0 LINE SMOOTH",
"673 0 OFFCURVE",
"685 12 OFFCURVE",
"685 27 CURVE SMOOTH",
"685 673 LINE SMOOTH",
"685 688 OFFCURVE",
"673 700 OFFCURVE",
"658 700 CURVE SMOOTH",
"477 700 LINE SMOOTH",
"462 700 OFFCURVE",
"450 688 OFFCURVE",
"450 673 CURVE SMOOTH",
"450 400 LINE",
"281 677 LINE SMOOTH",
"277 684 OFFCURVE",
"267 700 OFFCURVE",
"240 700 CURVE SMOOTH",
"82 700 LINE SMOOTH",
"67 700 OFFCURVE",
"55 688 OFFCURVE",
"55 673 CURVE SMOOTH",
"55 27 LINE SMOOTH",
"55 12 OFFCURVE",
"67 0 OFFCURVE",
"82 0 CURVE SMOOTH"
);
}
);
width = 740;
}
);
leftKerningGroup = I;
rightKerningGroup = I;
unicode = 004E;
userData = {
com.typemytype.robofont.guides = (
{
angle = 0;
isGlobal = 0;
magnetic = 5;
x = 0;
y = 9;
},
{
angle = 0;
isGlobal = 0;
magnetic = 5;
x = 0;
y = 691;
},
{
angle = 90;
isGlobal = 0;
magnetic = 5;
x = 540;
y = 0;
},
{
angle = 90;
isGlobal = 0;
magnetic = 5;
x = 125;
y = 0;
}
);
};
},
{
color = 1;
glyphname = Eng;
layers = (
{
background = {
paths = (
{
closed = 1;
nodes = (
"359 -225 LINE SMOOTH",
"541 -225 OFFCURVE",
"685 -145 OFFCURVE",
"685 26 CURVE SMOOTH",
"685 673 LINE SMOOTH",
"685 688 OFFCURVE",
"673 700 OFFCURVE",
"658 700 CURVE SMOOTH",
"477 700 LINE SMOOTH",
"462 700 OFFCURVE",
"450 688 OFFCURVE",
"450 673 CURVE SMOOTH",
"450 400 LINE",
"281 677 LINE SMOOTH",
"277 684 OFFCURVE",
"267 700 OFFCURVE",
"240 700 CURVE SMOOTH",
"82 700 LINE SMOOTH",
"67 700 OFFCURVE",
"55 688 OFFCURVE",
"55 673 CURVE SMOOTH",
"55 27 LINE SMOOTH",
"55 12 OFFCURVE",
"67 0 OFFCURVE",
"82 0 CURVE SMOOTH",
"263 0 LINE SMOOTH",
"278 0 OFFCURVE",
"290 12 OFFCURVE",
"290 27 CURVE SMOOTH",
"290 278 LINE",
"450 38 LINE",
"450 36 LINE",
"450 2 OFFCURVE",
"426 -22 OFFCURVE",
"383 -22 CURVE SMOOTH",
"343 -22 LINE SMOOTH",
"328 -22 OFFCURVE",
"316 -34 OFFCURVE",
"316 -49 CURVE",
"316 -198 LINE SMOOTH",
"316 -213 OFFCURVE",
"328 -225 OFFCURVE",
"343 -225 CURVE SMOOTH"
);
}
);
};
hints = (
{
horizontal = 1;
place = "{-2147483648, 0}";
type = Tag;
name = hr00;
}
);
layerId = "EC64484B-0978-4CB1-9EE9-C40A2D8C4059";
paths = (
{
closed = 1;
nodes = (
"367.436 -271.536 OFFCURVE",
"482.859 -258.814 OFFCURVE",
"474.422 -182.277 CURVE",
"501.428 -242.499 OFFCURVE",
"603.29 -196.82 OFFCURVE",
"576.284 -136.598 CURVE",
"635.729 -188.63 OFFCURVE",
"690.797 -125.715 OFFCURVE",
"631.352 -73.683 CURVE",
"705.605 -94.067 OFFCURVE",
"728.796 -9.592 OFFCURVE",
"654.543 10.792 CURVE",
"719.54 10.211 OFFCURVE",
"719.997 61.364 OFFCURVE",
"655 61.944 CURVE",
"733 61.944 OFFCURVE",
"733 117.858 OFFCURVE",
"655 117.858 CURVE",
"720 117.858 OFFCURVE",
"720 185.753 OFFCURVE",
"655 185.753 CURVE",
"724 185.753 OFFCURVE",
"724 241.667 OFFCURVE",
"655 241.667 CURVE",
"717 241.667 OFFCURVE",
"717 365.475 OFFCURVE",
"655 365.475 CURVE",
"730 365.475 OFFCURVE",
"730 501.265 OFFCURVE",
"655 501.265 CURVE",
"723 501.265 OFFCURVE",
"723 649.037 OFFCURVE",
"655 649.037 CURVE",
"674.065 699.987 OFFCURVE",
"618.043 720.95 OFFCURVE",
"598.978 670 CURVE",
"598.978 739 OFFCURVE",
"516.348 739 OFFCURVE",
"516.348 670 CURVE",
"490.578 715.165 OFFCURVE",
"454.23 694.426 OFFCURVE",
"480 649.261 CURVE",
"404 649.261 OFFCURVE",
"404 597.826 OFFCURVE",
"480 597.826 CURVE",
"421.6 597.826 OFFCURVE",
"421.6 502.87 OFFCURVE",
"480 502.87 CURVE",
"429 516.542 OFFCURVE",
"399.134 405.139 OFFCURVE",
"450.133 391.467 CURVE",
"485.898 440.635 OFFCURVE",
"430.911 480.632 OFFCURVE",
"395.146 431.463 CURVE",
"438.213 457.644 OFFCURVE",
"411.42 501.717 OFFCURVE",
"368.354 475.537 CURVE",
"422.358 508.366 OFFCURVE",
"358.468 613.464 OFFCURVE",
"304.463 580.634 CURVE",
"355.733 611.802 OFFCURVE",
"335.123 645.704 OFFCURVE",
"283.854 614.537 CURVE",
"347.941 653.496 OFFCURVE",
"321.148 697.569 OFFCURVE",
"257.061 658.61 CURVE",
"272.459 735.075 OFFCURVE",
"215.899 746.465 OFFCURVE",
"200.5 670 CURVE",
"188.692 724.741 OFFCURVE",
"73.192 699.827 OFFCURVE",
"85 645.086 CURVE",
"7 645.086 OFFCURVE",
"7 505.519 OFFCURVE",
"85 505.519 CURVE",
"8 505.519 OFFCURVE",
"8 365.951 OFFCURVE",
"85 365.951 CURVE",
"20 365.951 OFFCURVE",
"20 282.21 OFFCURVE",
"85 282.21 CURVE",
"14 282.21 OFFCURVE",
"14 222.395 OFFCURVE",
"85 222.395 CURVE",
"20 222.395 OFFCURVE",
"20 122.704 OFFCURVE",
"85 122.704 CURVE",
"42.456 98.799 OFFCURVE",
"94.543 6.096 OFFCURVE",
"137.087 30 CURVE",
"137.087 -37 OFFCURVE",
"219.717 -37 OFFCURVE",
"219.717 30 CURVE",
"274.96 8.72 OFFCURVE",
"315.243 113.291 OFFCURVE",
"260 134.571 CURVE",
"310.4 134.571 OFFCURVE",
"310.4 250.111 OFFCURVE",
"260 250.111 CURVE",
"294.666 196.313 OFFCURVE",
"354.066 234.588 OFFCURVE",
"319.4 288.387 CURVE",
"267.448 253.822 OFFCURVE",
"291.648 217.448 OFFCURVE",
"343.6 252.013 CURVE",
"301.639 224.096 OFFCURVE",
"347.839 154.656 OFFCURVE",
"389.8 182.573 CURVE",
"334.851 146.014 OFFCURVE",
"400.851 46.814 OFFCURVE",
"455.8 83.373 CURVE",
"402.237 85.359 OFFCURVE",
"398.087 -26.602 OFFCURVE",
"451.65 -28.587 CURVE",
"422.12 32.666 OFFCURVE",
"378.874 11.818 OFFCURVE",
"408.404 -49.436 CURVE",
"367.375 -2.421 OFFCURVE",
"304.971 -56.88 OFFCURVE",
"346 -103.895 CURVE"
);
}
);
width = 740;
},
{
associatedMasterId = "EC64484B-0978-4CB1-9EE9-C40A2D8C4059";
background = {
paths = (
{
closed = 1;
nodes = (
"359 -225 LINE SMOOTH",
"541 -225 OFFCURVE",
"685 -145 OFFCURVE",
"685 26 CURVE SMOOTH",
"685 673 LINE SMOOTH",
"685 688 OFFCURVE",
"673 700 OFFCURVE",
"658 700 CURVE SMOOTH",
"477 700 LINE SMOOTH",
"462 700 OFFCURVE",
"450 688 OFFCURVE",
"450 673 CURVE SMOOTH",
"450 400 LINE",
"281 677 LINE SMOOTH",
"277 684 OFFCURVE",
"267 700 OFFCURVE",
"240 700 CURVE SMOOTH",
"82 700 LINE SMOOTH",
"67 700 OFFCURVE",
"55 688 OFFCURVE",
"55 673 CURVE SMOOTH",
"55 27 LINE SMOOTH",
"55 12 OFFCURVE",
"67 0 OFFCURVE",
"82 0 CURVE SMOOTH",
"263 0 LINE SMOOTH",
"278 0 OFFCURVE",
"290 12 OFFCURVE",
"290 27 CURVE SMOOTH",
"290 278 LINE",
"450 38 LINE",
"450 36 LINE",
"450 2 OFFCURVE",
"426 -22 OFFCURVE",
"383 -22 CURVE SMOOTH",
"343 -22 LINE SMOOTH",
"328 -22 OFFCURVE",
"316 -34 OFFCURVE",
"316 -49 CURVE",
"316 -198 LINE SMOOTH",
"316 -213 OFFCURVE",
"328 -225 OFFCURVE",
"343 -225 CURVE SMOOTH"
);
}
);
};
hints = (
{
horizontal = 1;
place = "{-2147483648, 0}";
type = Tag;
name = hr00;
}
);
layerId = "6C6887AC-9B3C-469E-8672-A4F26AECF370";
name = "Dec 6 20, 14:56";
paths = (
{
closed = 1;
nodes = (
"359 -225 LINE SMOOTH",
"541 -225 OFFCURVE",
"685 -145 OFFCURVE",
"685 26 CURVE SMOOTH",
"685 673 LINE SMOOTH",
"685 688 OFFCURVE",
"673 700 OFFCURVE",
"658 700 CURVE SMOOTH",
"477 700 LINE SMOOTH",
"462 700 OFFCURVE",
"450 688 OFFCURVE",
"450 673 CURVE SMOOTH",
"450 400 LINE",
"281 677 LINE SMOOTH",
"277 684 OFFCURVE",
"267 700 OFFCURVE",
"240 700 CURVE SMOOTH",
"82 700 LINE SMOOTH",
"67 700 OFFCURVE",
"55 688 OFFCURVE",
"55 673 CURVE SMOOTH",
"55 27 LINE SMOOTH",
"55 12 OFFCURVE",
"67 0 OFFCURVE",
"82 0 CURVE SMOOTH",
"263 0 LINE SMOOTH",
"278 0 OFFCURVE",
"290 12 OFFCURVE",
"290 27 CURVE SMOOTH",
"290 278 LINE",
"450 38 LINE",
"450 36 LINE",
"450 2 OFFCURVE",
"426 -22 OFFCURVE",
"383 -22 CURVE SMOOTH",
"343 -22 LINE SMOOTH",
"328 -22 OFFCURVE",
"316 -34 OFFCURVE",
"316 -49 CURVE",
"316 -198 LINE SMOOTH",
"316 -213 OFFCURVE",
"328 -225 OFFCURVE",
"343 -225 CURVE SMOOTH"
);
}
);
width = 740;
}
);
leftKerningGroup = I;
rightKerningGroup = I;
unicode = 014A;
},
{
color = 1;
glyphname = O;
layers = (
{
anchors = (
{
name = bottom;
position = "{371, 0}";
},
{
name = center;
position = "{371, 350}";
},
{
name = ogonek;
position = "{668, 10}";
},
{
name = top;
position = "{371, 700}";
},
{
name = topleft;
position = "{20, 700}";
},
{
name = topright;
position = "{722, 700}";
}
);
background = {
anchors = (
{
name = bottom;
position = "{371, 0}";
},
{
name = center;
position = "{371, 350}";
},
{
name = ogonek;
position = "{668, 10}";
},
{
name = top;
position = "{371, 700}";
},
{
name = topleft;
position = "{20, 700}";
},
{
name = topright;
position = "{722, 700}";
}
);
paths = (
{
closed = 1;
nodes = (
"567 -10 OFFCURVE",
"697 81 OFFCURVE",
"705 260 CURVE SMOOTH",
"707 314 OFFCURVE",
"707 379 OFFCURVE",
"705 436 CURVE SMOOTH",
"698 611 OFFCURVE",
"567 710 OFFCURVE",
"371 710 CURVE SMOOTH",
"175 710 OFFCURVE",
"44 611 OFFCURVE",
"37 436 CURVE SMOOTH",
"35 379 OFFCURVE",
"35 314 OFFCURVE",
"37 260 CURVE SMOOTH",
"45 81 OFFCURVE",
"175 -10 OFFCURVE",
"371 -10 CURVE SMOOTH"
);
},
{
closed = 1;
nodes = (
"327 185 OFFCURVE",
"299 210 OFFCURVE",
"297 266 CURVE SMOOTH",
"295 323 OFFCURVE",
"295 379 OFFCURVE",
"297 434 CURVE SMOOTH",
"299 490 OFFCURVE",
"328 515 OFFCURVE",
"371 515 CURVE SMOOTH",
"414 515 OFFCURVE",
"443 490 OFFCURVE",
"445 434 CURVE SMOOTH",
"447 379 OFFCURVE",
"447 323 OFFCURVE",
"445 266 CURVE SMOOTH",
"443 210 OFFCURVE",
"415 185 OFFCURVE",
"371 185 CURVE SMOOTH"
);
}
);
};
layerId = "EC64484B-0978-4CB1-9EE9-C40A2D8C4059";
paths = (
{
closed = 1;
nodes = (
"375.177 -48.873 OFFCURVE",
"443.229 -44.747 OFFCURVE",
"439.053 24.127 CURVE",
"453.554 -51.495 OFFCURVE",
"504.753 -41.677 OFFCURVE",
"490.252 33.945 CURVE",
"516.126 -22.398 OFFCURVE",
"610.382 20.887 OFFCURVE",
"584.508 77.23 CURVE",
"624.943 31.557 OFFCURVE",
"654.946 58.12 OFFCURVE",
"614.51 103.792 CURVE",
"678.046 72.103 OFFCURVE",
"732.852 181.985 OFFCURVE",
"669.316 213.675 CURVE",
"741.242 210.401 OFFCURVE",
"748.333 366.173 OFFCURVE",
"676.407 369.447 CURVE",
"745.396 370.675 OFFCURVE",
"744.538 418.874 OFFCURVE",
"675.549 417.646 CURVE",
"745.739 428.343 OFFCURVE",
"731.069 524.598 OFFCURVE",
"660.879 513.9 CURVE",
"715.166 553.168 OFFCURVE",
"638.55 659.089 OFFCURVE",
"584.263 619.821 CURVE",
"621.936 685.826 OFFCURVE",
"566.191 717.644 OFFCURVE",
"528.518 651.638 CURVE",
"551.47 718.826 OFFCURVE",
"509.637 733.117 OFFCURVE",
"486.684 665.929 CURVE",
"494.493 737.505 OFFCURVE",
"366.723 751.444 OFFCURVE",
"358.914 679.869 CURVE",
"352.578 752.593 OFFCURVE",
"288.416 747.003 OFFCURVE",
"294.752 674.279 CURVE",
"269.99 736.535 OFFCURVE",
"132.869 681.997 OFFCURVE",
"157.63 619.74 CURVE",
"109.296 655.29 OFFCURVE",
"34.005 552.92 OFFCURVE",
"82.339 517.371 CURVE",
"7.814 532.271 OFFCURVE",
"-7.141 457.466 OFFCURVE",
"67.384 442.566 CURVE",
"-5.595 444.31 OFFCURVE",
"-7.408 368.45 OFFCURVE",
"65.571 366.706 CURVE",
"-12.427 366.136 OFFCURVE",
"-11.869 289.793 OFFCURVE",
"66.129 290.364 CURVE",
"-4.485 282.975 OFFCURVE",
"4.802 194.217 OFFCURVE",
"75.416 201.606 CURVE",
"23.074 169.127 OFFCURVE",
"95.705 52.077 OFFCURVE",
"148.047 84.555 CURVE",
"115.695 25.884 OFFCURVE",
"192.482 -16.456 OFFCURVE",
"224.833 42.215 CURVE",
"210.347 -31.372 OFFCURVE",
"316.143 -52.199 OFFCURVE",
"330.63 21.388 CURVE"
);
},
{
closed = 1;
nodes = (
"397.988 203.267 OFFCURVE",
"308.14 253.504 OFFCURVE",
"281.152 205.237 CURVE",
"331.05 212.335 OFFCURVE",
"315.692 320.301 OFFCURVE",
"265.794 313.203 CURVE",
"320.394 313.375 OFFCURVE",
"320.204 373.646 OFFCURVE",
"265.604 373.474 CURVE",
"311.794 372.521 OFFCURVE",
"312.872 424.746 OFFCURVE",
"266.681 425.699 CURVE",
"316.955 422.136 OFFCURVE",
"319.033 451.458 OFFCURVE",
"268.759 455.02 CURVE",
"315.029 438.891 OFFCURVE",
"330.808 484.158 OFFCURVE",
"284.538 500.286 CURVE",
"310.395 461.158 OFFCURVE",
"375.396 504.112 OFFCURVE",
"349.539 543.241 CURVE",
"341.034 498.543 OFFCURVE",
"423.359 482.879 OFFCURVE",
"431.864 527.577 CURVE",
"387.894 497.629 OFFCURVE",
"425.582 442.296 OFFCURVE",
"469.551 472.245 CURVE",
"417.854 468.978 OFFCURVE",
"424.775 359.453 OFFCURVE",
"476.472 362.72 CURVE",
"429.582 363.669 OFFCURVE",
"427.359 253.894 OFFCURVE",
"474.249 252.944 CURVE",
"427.466 273.501 OFFCURVE",
"395.762 201.349 OFFCURVE",
"442.545 180.792 CURVE",
"419.493 228.738 OFFCURVE",
"369.439 204.673 OFFCURVE",
"392.491 156.727 CURVE"
);
}
);
width = 742;
},
{
anchors = (
{
name = bottom;
position = "{371, 0}";
},
{
name = center;
position = "{371, 350}";
},
{
name = ogonek;
position = "{668, 10}";
},
{
name = top;
position = "{371, 700}";
},
{
name = topleft;
position = "{20, 700}";
},
{
name = topright;
position = "{722, 700}";
}
);
associatedMasterId = "EC64484B-0978-4CB1-9EE9-C40A2D8C4059";
background = {
anchors = (
{
name = bottom;
position = "{371, 0}";
},
{
name = center;
position = "{371, 350}";
},
{
name = ogonek;
position = "{668, 10}";
},
{
name = top;
position = "{371, 700}";
},
{
name = topleft;
position = "{20, 700}";
},
{
name = topright;
position = "{722, 700}";
}
);
paths = (
{
closed = 1;
nodes = (
"567 -10 OFFCURVE",
"697 81 OFFCURVE",
"705 260 CURVE SMOOTH",
"707 314 OFFCURVE",
"707 379 OFFCURVE",
"705 436 CURVE SMOOTH",
"698 611 OFFCURVE",
"567 710 OFFCURVE",
"371 710 CURVE SMOOTH",
"175 710 OFFCURVE",
"44 611 OFFCURVE",
"37 436 CURVE SMOOTH",
"35 379 OFFCURVE",
"35 314 OFFCURVE",
"37 260 CURVE SMOOTH",
"45 81 OFFCURVE",
"175 -10 OFFCURVE",
"371 -10 CURVE SMOOTH"
);
},
{
closed = 1;
nodes = (
"327 185 OFFCURVE",
"299 210 OFFCURVE",
"297 266 CURVE SMOOTH",
"295 323 OFFCURVE",
"295 379 OFFCURVE",
"297 434 CURVE SMOOTH",
"299 490 OFFCURVE",
"328 515 OFFCURVE",
"371 515 CURVE SMOOTH",
"414 515 OFFCURVE",
"443 490 OFFCURVE",
"445 434 CURVE SMOOTH",
"447 379 OFFCURVE",
"447 323 OFFCURVE",
"445 266 CURVE SMOOTH",
"443 210 OFFCURVE",
"415 185 OFFCURVE",
"371 185 CURVE SMOOTH"
);
}
);
};
layerId = "ECAA8B28-1924-4762-9E3D-7D7748CC8402";
name = "Dec 6 20, 14:56";
paths = (
{
closed = 1;
nodes = (
"567 -10 OFFCURVE",
"697 81 OFFCURVE",
"705 260 CURVE SMOOTH",
"707 314 OFFCURVE",
"707 379 OFFCURVE",
"705 436 CURVE SMOOTH",
"698 611 OFFCURVE",
"567 710 OFFCURVE",
"371 710 CURVE SMOOTH",
"175 710 OFFCURVE",
"44 611 OFFCURVE",
"37 436 CURVE SMOOTH",
"35 379 OFFCURVE",
"35 314 OFFCURVE",
"37 260 CURVE SMOOTH",
"45 81 OFFCURVE",
"175 -10 OFFCURVE",
"371 -10 CURVE SMOOTH"
);
},
{
closed = 1;
nodes = (
"327 185 OFFCURVE",
"299 210 OFFCURVE",
"297 266 CURVE SMOOTH",
"295 323 OFFCURVE",
"295 379 OFFCURVE",
"297 434 CURVE SMOOTH",
"299 490 OFFCURVE",
"328 515 OFFCURVE",
"371 515 CURVE SMOOTH",
"414 515 OFFCURVE",
"443 490 OFFCURVE",
"445 434 CURVE SMOOTH",
"447 379 OFFCURVE",
"447 323 OFFCURVE",
"445 266 CURVE SMOOTH",
"443 210 OFFCURVE",
"415 185 OFFCURVE",
"371 185 CURVE SMOOTH"
);
}
);
width = 742;
}
);
leftKerningGroup = O;
rightKerningGroup = O;
unicode = 004F;
userData = {
com.typemytype.robofont.guides = (
{
angle = 0;
isGlobal = 0;
magnetic = 5;
x = 0;
y = "-10";
},
{
angle = 0;
isGlobal = 0;
magnetic = 5;
x = 0;
y = 710;
},
{
angle = 0;
isGlobal = 0;
magnetic = 5;
x = 0;
y = 335;
},
{
angle = 0;
isGlobal = 0;
magnetic = 5;
x = 0;
y = 434;
},
{
angle = 0;
isGlobal = 0;
magnetic = 5;
x = 0;
y = 266;
},
{
angle = 90;
isGlobal = 0;
magnetic = 5;
x = 496;
y = 0;
}
);
};
},
{
color = 1;
glyphname = Oslash;
layers = (
{
anchors = (
{
name = bottom;
position = "{390, 0}";
},
{
name = top;
position = "{390, 700}";
}
);
background = {
anchors = (
{
name = bottom;
position = "{390, 0}";
},
{
name = top;
position = "{390, 700}";
}
);
paths = (
{
closed = 1;
nodes = (
"589 -10 OFFCURVE",
"719 81 OFFCURVE",
"727 260 CURVE",
"728 305 OFFCURVE",
"729 359 OFFCURVE",
"728 409 CURVE",
"748 417 LINE",
"764 423 OFFCURVE",
"770 432 OFFCURVE",
"770 450 CURVE",
"770 558 LINE",
"770 570 OFFCURVE",
"761 579 OFFCURVE",
"749 579 CURVE SMOOTH",
"747 579 OFFCURVE",
"743 578 OFFCURVE",
"738 576 CURVE",
"696 559 LINE",
"645 656 OFFCURVE",
"536 710 OFFCURVE",
"393 710 CURVE SMOOTH",
"197 710 OFFCURVE",
"66 611 OFFCURVE",
"59 436 CURVE SMOOTH",
"57 395 OFFCURVE",
"57 351 OFFCURVE",
"57 309 CURVE",
"34 300 LINE",
"18 294 OFFCURVE",
"12 285 OFFCURVE",
"12 267 CURVE",
"12 159 LINE",
"12 147 OFFCURVE",
"21 138 OFFCURVE",
"33 138 CURVE SMOOTH",
"35 138 OFFCURVE",
"39 139 OFFCURVE",
"44 141 CURVE",
"81 155 LINE",
"126 45 OFFCURVE",
"239 -10 OFFCURVE",
"393 -10 CURVE SMOOTH"
);
},
{
closed = 1;
nodes = (
"353 185 OFFCURVE",
"327 205 OFFCURVE",
"320 249 CURVE",
"468 307 LINE",
"468 293 OFFCURVE",
"467 280 OFFCURVE",
"467 266 CURVE SMOOTH",
"465 210 OFFCURVE",
"437 185 OFFCURVE",
"393 185 CURVE SMOOTH"
);
},
{
closed = 1;
nodes = (
"318 418 OFFCURVE",
"318 426 OFFCURVE",
"319 434 CURVE",
"321 490 OFFCURVE",
"350 515 OFFCURVE",
"393 515 CURVE SMOOTH",
"426 515 OFFCURVE",
"451 500 OFFCURVE",
"461 467 CURVE",
"318 411 LINE"
);
}
);
};
layerId = "EC64484B-0978-4CB1-9EE9-C40A2D8C4059";
paths = (
{
closed = 1;
nodes = (
"397.36 -56.876 OFFCURVE",
"461.43 -53.243 OFFCURVE",
"457.07 23.633 CURVE",
"477.252 -33.931 OFFCURVE",
"623.433 17.32 OFFCURVE",
"603.251 74.884 CURVE",
"647.061 32.438 OFFCURVE",
"702.574 89.733 OFFCURVE",
"658.764 132.18 CURVE",
"721.463 103.374 OFFCURVE",
"748.176 161.518 OFFCURVE",
"685.477 190.324 CURVE",
"760.724 179.649 OFFCURVE",
"772.481 262.524 OFFCURVE",
"697.234 273.199 CURVE",
"769.234 273.223 OFFCURVE",
"769.184 423.689 OFFCURVE",
"697.184 423.665 CURVE",
"746.199 387.69 OFFCURVE",
"789.015 446.025 OFFCURVE",
"740 482 CURVE",
"804.482 496.072 OFFCURVE",
"792.009 553.23 OFFCURVE",
"727.526 539.158 CURVE",
"764.656 599.676 OFFCURVE",
"665.948 660.236 OFFCURVE",
"628.818 599.718 CURVE",
"658.115 654.36 OFFCURVE",
"532.615 721.647 OFFCURVE",
"503.318 667.006 CURVE",
"510.145 740.69 OFFCURVE",
"375.662 753.151 OFFCURVE",
"368.835 679.466 CURVE",
"362.397 747.161 OFFCURVE",
"314.296 742.587 OFFCURVE",
"320.733 674.892 CURVE",
"303.242 737.495 OFFCURVE",
"214.267 712.636 OFFCURVE",
"231.758 650.033 CURVE",
"185.952 714.398 OFFCURVE",
"101.278 654.14 OFFCURVE",
"147.083 589.775 CURVE",
"82.067 625.115 OFFCURVE",
"34.377 537.378 OFFCURVE",
"99.393 502.038 CURVE",
"32.704 508.491 OFFCURVE",
"20.766 385.119 OFFCURVE",
"87.455 378.666 CURVE",
"23.458 379.237 OFFCURVE",
"23.062 334.959 OFFCURVE",
"87.06 334.388 CURVE",
"25.312 357.694 OFFCURVE",
"-19.748 238.305 OFFCURVE",
"42 215 CURVE",
"18.386 159.842 OFFCURVE",
"76.483 134.97 OFFCURVE",
"100.096 190.128 CURVE",
"28.17 157.455 OFFCURVE",
"54.693 99.067 OFFCURVE",
"126.62 131.741 CURVE",
"69.327 84.905 OFFCURVE",
"97.278 50.714 OFFCURVE",
"154.57 97.549 CURVE",
"119.202 32.549 OFFCURVE",
"234.518 -30.196 OFFCURVE",
"269.886 34.805 CURVE",
"255.523 -33.706 OFFCURVE",
"298.808 -42.78 OFFCURVE",
"313.17 25.731 CURVE"
);
},
{
closed = 1;
nodes = (
"369.393 401.043 OFFCURVE",
"333.047 482.41 OFFCURVE",
"292.654 464.366 CURVE",
"323.664 446.398 OFFCURVE",
"357.883 505.452 OFFCURVE",
"326.873 523.42 CURVE",
"344.863 492.423 OFFCURVE",
"369.528 506.738 OFFCURVE",
"351.537 537.735 CURVE",
"350.973 494.619 OFFCURVE",
"436.292 493.502 OFFCURVE",
"436.856 536.619 CURVE",
"414.494 502.397 OFFCURVE",
"441.711 484.612 OFFCURVE",
"464.073 518.833 CURVE",
"427.33 493.201 OFFCURVE",
"448.239 463.23 OFFCURVE",
"484.982 488.862 CURVE",
"438.794 489.933 OFFCURVE",
"437.746 444.738 OFFCURVE",
"483.933 443.667 CURVE",
"470.866 477.039 OFFCURVE",
"419.221 456.817 OFFCURVE",
"432.289 423.444 CURVE",
"418.2 459.424 OFFCURVE",
"344.423 430.536 OFFCURVE",
"358.511 394.556 CURVE"
);
},
{
closed = 1;
nodes = (
"409.925 185.315 OFFCURVE",
"319.953 235.548 OFFCURVE",
"303.027 205.232 CURVE",
"355.354 220.822 OFFCURVE",
"341.633 266.879 OFFCURVE",
"289.306 251.289 CURVE",
"314.571 225.086 OFFCURVE",
"346.331 255.71 OFFCURVE",
"321.065 281.913 CURVE",
"336.344 242.791 OFFCURVE",
"395.126 265.747 OFFCURVE",
"379.848 304.87 CURVE",
"388.593 268.383 OFFCURVE",
"478.36 289.898 OFFCURVE",
"469.615 326.385 CURVE",
"426.577 302.961 OFFCURVE",
"453.962 252.645 OFFCURVE",
"497 276.069 CURVE",
"460.162 279.068 OFFCURVE",
"457.121 241.707 OFFCURVE",
"493.959 238.709 CURVE",
"466.548 260.018 OFFCURVE",
"406.932 183.334 OFFCURVE",
"434.344 162.024 CURVE"
);
}
);
width = 780;
},
{
anchors = (
{
name = bottom;
position = "{390, 0}";
},
{
name = top;
position = "{390, 700}";
}
);
associatedMasterId = "EC64484B-0978-4CB1-9EE9-C40A2D8C4059";
background = {
anchors = (
{
name = bottom;
position = "{390, 0}";
},
{
name = top;
position = "{390, 700}";
}
);
paths = (
{
closed = 1;
nodes = (
"589 -10 OFFCURVE",
"719 81 OFFCURVE",
"727 260 CURVE",
"728 305 OFFCURVE",
"729 359 OFFCURVE",
"728 409 CURVE",
"748 417 LINE",
"764 423 OFFCURVE",
"770 432 OFFCURVE",
"770 450 CURVE",
"770 558 LINE",
"770 570 OFFCURVE",
"761 579 OFFCURVE",
"749 579 CURVE SMOOTH",
"747 579 OFFCURVE",
"743 578 OFFCURVE",
"738 576 CURVE",
"696 559 LINE",
"645 656 OFFCURVE",
"536 710 OFFCURVE",
"393 710 CURVE SMOOTH",
"197 710 OFFCURVE",
"66 611 OFFCURVE",
"59 436 CURVE SMOOTH",
"57 395 OFFCURVE",
"57 351 OFFCURVE",
"57 309 CURVE",
"34 300 LINE",
"18 294 OFFCURVE",
"12 285 OFFCURVE",
"12 267 CURVE",
"12 159 LINE",
"12 147 OFFCURVE",
"21 138 OFFCURVE",
"33 138 CURVE SMOOTH",
"35 138 OFFCURVE",
"39 139 OFFCURVE",
"44 141 CURVE",
"81 155 LINE",
"126 45 OFFCURVE",
"239 -10 OFFCURVE",
"393 -10 CURVE SMOOTH"
);
},
{
closed = 1;
nodes = (
"353 185 OFFCURVE",
"327 205 OFFCURVE",
"320 249 CURVE",
"468 307 LINE",
"468 293 OFFCURVE",
"467 280 OFFCURVE",
"467 266 CURVE SMOOTH",
"465 210 OFFCURVE",
"437 185 OFFCURVE",
"393 185 CURVE SMOOTH"
);
},
{
closed = 1;
nodes = (
"318 418 OFFCURVE",
"318 426 OFFCURVE",
"319 434 CURVE",
"321 490 OFFCURVE",
"350 515 OFFCURVE",
"393 515 CURVE SMOOTH",
"426 515 OFFCURVE",
"451 500 OFFCURVE",
"461 467 CURVE",
"318 411 LINE"
);
}
);
};
layerId = "9B21EC89-023D-415E-AC9D-7F6D07EAC0EF";
name = "Dec 6 20, 14:56";
paths = (
{
closed = 1;
nodes = (
"589 -10 OFFCURVE",
"719 81 OFFCURVE",
"727 260 CURVE",
"728 305 OFFCURVE",
"729 359 OFFCURVE",
"728 409 CURVE",
"748 417 LINE",
"764 423 OFFCURVE",
"770 432 OFFCURVE",
"770 450 CURVE",
"770 558 LINE",
"770 570 OFFCURVE",
"761 579 OFFCURVE",
"749 579 CURVE SMOOTH",
"747 579 OFFCURVE",
"743 578 OFFCURVE",
"738 576 CURVE",
"696 559 LINE",
"645 656 OFFCURVE",
"536 710 OFFCURVE",
"393 710 CURVE SMOOTH",
"197 710 OFFCURVE",
"66 611 OFFCURVE",
"59 436 CURVE SMOOTH",
"57 395 OFFCURVE",
"57 351 OFFCURVE",
"57 309 CURVE",
"34 300 LINE",
"18 294 OFFCURVE",
"12 285 OFFCURVE",
"12 267 CURVE",
"12 159 LINE",
"12 147 OFFCURVE",
"21 138 OFFCURVE",
"33 138 CURVE SMOOTH",
"35 138 OFFCURVE",
"39 139 OFFCURVE",
"44 141 CURVE",
"81 155 LINE",
"126 45 OFFCURVE",
"239 -10 OFFCURVE",
"393 -10 CURVE SMOOTH"
);
},
{
closed = 1;
nodes = (
"353 185 OFFCURVE",
"327 205 OFFCURVE",
"320 249 CURVE",
"468 307 LINE",
"468 293 OFFCURVE",
"467 280 OFFCURVE",
"467 266 CURVE SMOOTH",
"465 210 OFFCURVE",
"437 185 OFFCURVE",
"393 185 CURVE SMOOTH"
);
},
{
closed = 1;
nodes = (
"318 418 OFFCURVE",
"318 426 OFFCURVE",
"319 434 CURVE",
"321 490 OFFCURVE",
"350 515 OFFCURVE",
"393 515 CURVE SMOOTH",
"426 515 OFFCURVE",
"451 500 OFFCURVE",
"461 467 CURVE",
"318 411 LINE"
);
}
);
width = 780;
}
);
leftKerningGroup = O;
rightKerningGroup = O;
unicode = 00D8;
userData = {
com.typemytype.robofont.guides = (
{
angle = 0;
isGlobal = 0;
magnetic = 5;
x = 0;
y = 145;
},
{
angle = 90;
isGlobal = 0;
magnetic = 5;
x = 351;
y = 0;
},
{
angle = 90;
isGlobal = 0;
magnetic = 5;
x = 679;
y = 0;
},
{
angle = 90;
isGlobal = 0;
magnetic = 5;
x = 85;
y = 0;
},
{
angle = 90;
isGlobal = 0;
magnetic = 5;
x = 20;
y = 0;
}
);
};
},
{
color = 1;
glyphname = OE;
layers = (
{
background = {
paths = (
{
closed = 1;
nodes = (
"937 0 LINE",
"952 0 OFFCURVE",
"964 12 OFFCURVE",
"964 27 CURVE",
"964 168 LINE",
"964 183 OFFCURVE",
"952 195 OFFCURVE",
"937 195 CURVE",
"649 195 LINE",
"649 258 LINE",
"907 258 LINE",
"922 258 OFFCURVE",
"934 270 OFFCURVE",
"934 285 CURVE",
"934 415 LINE",
"934 430 OFFCURVE",
"922 442 OFFCURVE",
"907 442 CURVE",
"649 442 LINE",
"649 505 LINE",
"929 505 LINE",
"944 505 OFFCURVE",
"956 517 OFFCURVE",
"956 532 CURVE",
"956 673 LINE",
"956 688 OFFCURVE",
"944 700 OFFCURVE",
"929 700 CURVE",
"369 700 LINE",
"182 700 OFFCURVE",
"42 604 OFFCURVE",
"35 425 CURVE SMOOTH",
"33 368 OFFCURVE",
"33 330 OFFCURVE",
"35 276 CURVE SMOOTH",
"43 87 OFFCURVE",
"173 0 OFFCURVE",
"364 0 CURVE"
);
},
{
closed = 1;
nodes = (
"325 195 OFFCURVE",
"292 220 OFFCURVE",
"289 276 CURVE SMOOTH",
"286 333 OFFCURVE",
"286 370 OFFCURVE",
"289 425 CURVE SMOOTH",
"292 481 OFFCURVE",
"329 505 OFFCURVE",
"374 505 CURVE",
"410 505 LINE",
"410 195 LINE",
"369 195 LINE"
);
}
);
};
hints = (
{
horizontal = 1;
place = "{-2147483648, 0}";
type = Tag;
name = hr00;
}
);
layerId = "EC64484B-0978-4CB1-9EE9-C40A2D8C4059";
paths = (
{
closed = 1;
nodes = (
"1012.951 32.74 OFFCURVE",
"1009.951 115.906 OFFCURVE",
"934 113.167 CURVE",
"968.99 146.025 OFFCURVE",
"920.315 197.858 OFFCURVE",
"885.325 165 CURVE",
"885.325 218.6 OFFCURVE",
"778 218.6 OFFCURVE",
"778 165 CURVE",
"778 222.6 OFFCURVE",
"702.475 222.6 OFFCURVE",
"702.475 165 CURVE",
"702.475 214.6 OFFCURVE",
"662.725 214.6 OFFCURVE",
"662.725 165 CURVE",
"710.129 184.348 OFFCURVE",
"666.404 291.477 OFFCURVE",
"619 272.129 CURVE",
"628.248 218.521 OFFCURVE",
"720.248 234.392 OFFCURVE",
"711 288 CURVE",
"711 232 OFFCURVE",
"819 232 OFFCURVE",
"819 288 CURVE",
"830.513 240.578 OFFCURVE",
"915.513 261.214 OFFCURVE",
"904 308.636 CURVE",
"983 308.636 OFFCURVE",
"983 359.848 OFFCURVE",
"904 359.848 CURVE",
"951.322 389.792 OFFCURVE",
"918.322 441.944 OFFCURVE",
"871 412 CURVE",
"871 464.8 OFFCURVE",
"787 464.8 OFFCURVE",
"787 412 CURVE",
"787 475.2 OFFCURVE",
"703 475.2 OFFCURVE",
"703 412 CURVE",
"722.087 469.726 OFFCURVE",
"638.087 497.501 OFFCURVE",
"619 439.774 CURVE",
"690.461 424.862 OFFCURVE",
"710.332 520.088 OFFCURVE",
"638.872 535 CURVE",
"638.872 471.8 OFFCURVE",
"777.974 471.8 OFFCURVE",
"777.974 535 CURVE",
"777.974 475.8 OFFCURVE",
"869.385 475.8 OFFCURVE",
"869.385 535 CURVE",
"870.369 474.208 OFFCURVE",
"926.984 475.125 OFFCURVE",
"926 535.917 CURVE",
"1002 535.917 OFFCURVE",
"1002 641.667 OFFCURVE",
"926 641.667 CURVE",
"992.965 653.484 OFFCURVE",
"987.965 681.817 OFFCURVE",
"921 670 CURVE",
"921 733 OFFCURVE",
"853 733 OFFCURVE",
"853 670 CURVE",
"853 740 OFFCURVE",
"757 740 OFFCURVE",
"757 670 CURVE",
"757 749 OFFCURVE",
"661 749 OFFCURVE",
"661 670 CURVE",
"661 741 OFFCURVE",
"609 741 OFFCURVE",
"609 670 CURVE",
"609 730 OFFCURVE",
"537 730 OFFCURVE",
"537 670 CURVE",
"537 748 OFFCURVE",
"425 748 OFFCURVE",
"425 670 CURVE",
"424.404 735.997 OFFCURVE",
"340.22 735.237 OFFCURVE",
"340.816 669.24 CURVE",
"330.389 735.423 OFFCURVE",
"243.023 721.659 OFFCURVE",
"253.45 655.476 CURVE",
"224.995 725.948 OFFCURVE",
"157.925 698.866 OFFCURVE",
"186.38 628.394 CURVE",
"153.146 678.35 OFFCURVE",
"119.647 656.064 OFFCURVE",
"152.88 606.108 CURVE",
"102.099 639.543 OFFCURVE",
"23.721 520.505 OFFCURVE",
"74.502 487.069 CURVE",
"6.669 499.703 OFFCURVE",
"-1.435 456.195 OFFCURVE",
"66.399 443.561 CURVE",
"3.442 445.876 OFFCURVE",
"0.638 369.635 OFFCURVE",
"63.596 367.321 CURVE",
"-9.395 366.186 OFFCURVE",
"-7.991 275.865 OFFCURVE",
"65 277 CURVE",
"-0.452 268.509 OFFCURVE",
"7.296 208.783 OFFCURVE",
"72.748 217.274 CURVE",
"23.305 187.724 OFFCURVE",
"98.178 62.45 OFFCURVE",
"147.62 92 CURVE",
"112.113 22.55 OFFCURVE",
"201.025 -22.908 OFFCURVE",
"236.533 46.542 CURVE",
"227.803 -24.927 OFFCURVE",
"363.229 -41.469 OFFCURVE",
"371.958 30 CURVE",
"371.958 -41 OFFCURVE",
"479.396 -41 OFFCURVE",
"479.396 30 CURVE",
"479.396 -47 OFFCURVE",
"562.958 -47 OFFCURVE",
"562.958 30 CURVE",
"562.958 -43 OFFCURVE",
"614.687 -43 OFFCURVE",
"614.687 30 CURVE",
"614.687 -49 OFFCURVE",
"718.146 -49 OFFCURVE",
"718.146 30 CURVE",
"718.146 -33 OFFCURVE",
"809.667 -33 OFFCURVE",
"809.667 30 CURVE",
"809.667 -30 OFFCURVE",
"849.458 -30 OFFCURVE",
"849.458 30 CURVE",
"849.458 -30 OFFCURVE",
"913.125 -30 OFFCURVE",
"913.125 30 CURVE"
);
},
{
closed = 1;
nodes = (
"373.521 207.46 OFFCURVE",
"345.154 210.48 OFFCURVE",
"340.633 168.02 CURVE",
"357.76 207.135 OFFCURVE",
"320.601 223.406 OFFCURVE",
"303.474 184.291 CURVE",
"333.381 201.928 OFFCURVE",
"290.948 273.884 OFFCURVE",
"261.041 256.247 CURVE",
"294.617 257.496 OFFCURVE",
"290.449 369.565 OFFCURVE",
"256.872 368.316 CURVE",
"291.013 367.178 OFFCURVE",
"292.654 416.378 OFFCURVE",
"258.512 417.516 CURVE",
"300.532 410.754 OFFCURVE",
"307.82 456.048 OFFCURVE",
"265.801 462.809 CURVE",
"308.231 435.609 OFFCURVE",
"336.425 479.59 OFFCURVE",
"293.995 506.79 CURVE",
"312.021 463.493 OFFCURVE",
"378.316 491.093 OFFCURVE",
"360.29 534.39 CURVE",
"361.063 492.397 OFFCURVE",
"394.185 493.007 OFFCURVE",
"393.412 535 CURVE",
"389.064 484.085 OFFCURVE",
"435.652 480.107 OFFCURVE",
"440 531.022 CURVE",
"400.8 531.022 OFFCURVE",
"400.8 475.323 OFFCURVE",
"440 475.323 CURVE",
"396.88 475.323 OFFCURVE",
"396.88 367.903 OFFCURVE",
"440 367.903 CURVE",
"398 367.903 OFFCURVE",
"398 332.097 OFFCURVE",
"440 332.097 CURVE",
"405.84 332.097 OFFCURVE",
"405.84 244.57 OFFCURVE",
"440 244.57 CURVE",
"402.48 244.57 OFFCURVE",
"402.48 200.806 OFFCURVE",
"440 200.806 CURVE",
"408.228 214.807 OFFCURVE",
"392.45 179 OFFCURVE",
"424.222 165 CURVE"
);
}
);
width = 1002;
},
{
associatedMasterId = "EC64484B-0978-4CB1-9EE9-C40A2D8C4059";
background = {
paths = (
{
closed = 1;
nodes = (
"937 0 LINE",
"952 0 OFFCURVE",
"964 12 OFFCURVE",
"964 27 CURVE",
"964 168 LINE",
"964 183 OFFCURVE",
"952 195 OFFCURVE",
"937 195 CURVE",
"649 195 LINE",
"649 258 LINE",
"907 258 LINE",
"922 258 OFFCURVE",
"934 270 OFFCURVE",
"934 285 CURVE",
"934 415 LINE",
"934 430 OFFCURVE",
"922 442 OFFCURVE",
"907 442 CURVE",
"649 442 LINE",
"649 505 LINE",
"929 505 LINE",
"944 505 OFFCURVE",
"956 517 OFFCURVE",
"956 532 CURVE",
"956 673 LINE",
"956 688 OFFCURVE",
"944 700 OFFCURVE",
"929 700 CURVE",
"369 700 LINE",
"182 700 OFFCURVE",
"42 604 OFFCURVE",
"35 425 CURVE SMOOTH",
"33 368 OFFCURVE",
"33 330 OFFCURVE",
"35 276 CURVE SMOOTH",
"43 87 OFFCURVE",
"173 0 OFFCURVE",
"364 0 CURVE"
);
},
{
closed = 1;
nodes = (
"325 195 OFFCURVE",
"292 220 OFFCURVE",
"289 276 CURVE SMOOTH",
"286 333 OFFCURVE",
"286 370 OFFCURVE",
"289 425 CURVE SMOOTH",
"292 481 OFFCURVE",
"329 505 OFFCURVE",
"374 505 CURVE",
"410 505 LINE",
"410 195 LINE",
"369 195 LINE"
);
}
);
};
hints = (
{
horizontal = 1;
place = "{-2147483648, 0}";
type = Tag;
name = hr00;
}
);
layerId = "5F88431F-4A4B-4100-8C30-221A62C5E19D";
name = "Dec 6 20, 14:56";
paths = (
{
closed = 1;
nodes = (
"937 0 LINE",
"952 0 OFFCURVE",
"964 12 OFFCURVE",
"964 27 CURVE",
"964 168 LINE",
"964 183 OFFCURVE",
"952 195 OFFCURVE",
"937 195 CURVE",
"649 195 LINE",
"649 258 LINE",
"907 258 LINE",
"922 258 OFFCURVE",
"934 270 OFFCURVE",
"934 285 CURVE",
"934 415 LINE",
"934 430 OFFCURVE",
"922 442 OFFCURVE",
"907 442 CURVE",
"649 442 LINE",
"649 505 LINE",
"929 505 LINE",
"944 505 OFFCURVE",
"956 517 OFFCURVE",
"956 532 CURVE",
"956 673 LINE",
"956 688 OFFCURVE",
"944 700 OFFCURVE",
"929 700 CURVE",
"369 700 LINE",
"182 700 OFFCURVE",
"42 604 OFFCURVE",
"35 425 CURVE SMOOTH",
"33 368 OFFCURVE",
"33 330 OFFCURVE",
"35 276 CURVE SMOOTH",
"43 87 OFFCURVE",
"173 0 OFFCURVE",
"364 0 CURVE"
);
},
{
closed = 1;
nodes = (
"325 195 OFFCURVE",
"292 220 OFFCURVE",
"289 276 CURVE SMOOTH",
"286 333 OFFCURVE",
"286 370 OFFCURVE",
"289 425 CURVE SMOOTH",
"292 481 OFFCURVE",
"329 505 OFFCURVE",
"374 505 CURVE",
"410 505 LINE",
"410 195 LINE",
"369 195 LINE"
);
}
);
width = 1002;
}
);
leftKerningGroup = O;
rightKerningGroup = E;
unicode = 0152;
userData = {
com.typemytype.robofont.guides = (
{
angle = 90;
isGlobal = 0;
magnetic = 5;
x = 842;
y = 0;
},
{
angle = 90;
isGlobal = 0;
magnetic = 5;
x = 66;
y = 0;
},
{
angle = 90;
isGlobal = 0;
magnetic = 5;
x = 439;
y = 0;
},
{
angle = 90;
isGlobal = 0;
magnetic = 5;
x = 502;
y = 0;
}
);
};
},
{
color = 1;
glyphname = P;
layers = (
{
background = {
paths = (
{
closed = 1;
nodes = (
"288 0 LINE SMOOTH",
"303 0 OFFCURVE",
"315 12 OFFCURVE",
"315 27 CURVE SMOOTH",
"315 218 LINE",
"385 218 LINE SMOOTH",
"566 218 OFFCURVE",
"686 289 OFFCURVE",
"686 455 CURVE SMOOTH",
"686 621 OFFCURVE",
"566 700 OFFCURVE",
"385 700 CURVE SMOOTH",
"82 700 LINE SMOOTH",
"67 700 OFFCURVE",
"55 688 OFFCURVE",
"55 673 CURVE SMOOTH",
"55 27 LINE SMOOTH",
"55 12 OFFCURVE",
"67 0 OFFCURVE",
"82 0 CURVE SMOOTH"
);
},
{
closed = 1;
nodes = (
"310 514 LINE",
"380 514 LINE SMOOTH",
"416 514 OFFCURVE",
"426 482 OFFCURVE",
"426 457 CURVE SMOOTH",
"426 418 OFFCURVE",
"401 403 OFFCURVE",
"380 403 CURVE SMOOTH",
"310 403 LINE"
);
}
);
};
hints = (
{
horizontal = 1;
place = "{-2147483648, 0}";
type = Tag;
name = hr00;
}
);
layerId = "EC64484B-0978-4CB1-9EE9-C40A2D8C4059";
paths = (
{
closed = 1;
nodes = (
"348.913 33.252 OFFCURVE",
"345.913 89.448 OFFCURVE",
"285 86.196 CURVE",
"362 86.196 OFFCURVE",
"362 192.75 OFFCURVE",
"285 192.75 CURVE",
"331.396 139.006 OFFCURVE",
"395.396 194.256 OFFCURVE",
"349 248 CURVE",
"350.96 177.027 OFFCURVE",
"443.134 179.572 OFFCURVE",
"441.175 250.545 CURVE",
"453.574 180.636 OFFCURVE",
"520.744 192.549 OFFCURVE",
"508.344 262.458 CURVE",
"529.504 205.246 OFFCURVE",
"574.664 221.948 OFFCURVE",
"553.504 279.16 CURVE",
"590.266 230.482 OFFCURVE",
"650.741 276.153 OFFCURVE",
"613.979 324.831 CURVE",
"678.801 293.493 OFFCURVE",
"715.161 368.702 OFFCURVE",
"650.338 400.04 CURVE",
"716.039 393.762 OFFCURVE",
"721.674 452.738 OFFCURVE",
"655.973 459.015 CURVE",
"729.956 480.359 OFFCURVE",
"695.977 598.14 OFFCURVE",
"621.995 576.797 CURVE",
"666.464 621.422 OFFCURVE",
"621.225 666.504 OFFCURVE",
"576.755 621.879 CURVE",
"601.898 695.715 OFFCURVE",
"470.259 740.543 OFFCURVE",
"445.115 666.707 CURVE",
"447.11 729.675 OFFCURVE",
"343.139 732.968 OFFCURVE",
"341.145 670 CURVE",
"341.145 747 OFFCURVE",
"245.461 747 OFFCURVE",
"245.461 670 CURVE",
"245.461 733 OFFCURVE",
"173.697 733 OFFCURVE",
"173.697 670 CURVE",
"164.017 736.297 OFFCURVE",
"75.32 723.346 OFFCURVE",
"85 657.049 CURVE",
"6 657.049 OFFCURVE",
"6 549.383 OFFCURVE",
"85 549.383 CURVE",
"10 549.383 OFFCURVE",
"10 497.543 OFFCURVE",
"85 497.543 CURVE",
"19 497.543 OFFCURVE",
"19 429.753 OFFCURVE",
"85 429.753 CURVE",
"11 429.753 OFFCURVE",
"11 330.062 OFFCURVE",
"85 330.062 CURVE",
"8 330.062 OFFCURVE",
"8 266.259 OFFCURVE",
"85 266.259 CURVE",
"24 266.259 OFFCURVE",
"24 150.617 OFFCURVE",
"85 150.617 CURVE",
"7 150.617 OFFCURVE",
"7 66.877 OFFCURVE",
"85 66.877 CURVE",
"60.337 23.843 OFFCURVE",
"124.684 -13.034 OFFCURVE",
"149.346 30 CURVE",
"149.346 -41 OFFCURVE",
"188.962 -41 OFFCURVE",
"188.962 30 CURVE",
"188.962 -36 OFFCURVE",
"244.423 -36 OFFCURVE",
"244.423 30 CURVE"
);
},
{
closed = 1;
nodes = (
"279.965 503.12 OFFCURVE",
"383.99 503.031 OFFCURVE",
"384.025 543.911 CURVE",
"366.664 508.141 OFFCURVE",
"419.327 482.581 OFFCURVE",
"436.688 518.35 CURVE",
"396.713 513.089 OFFCURVE",
"409.478 416.101 OFFCURVE",
"449.453 421.362 CURVE",
"414.129 453.268 OFFCURVE",
"377 412.161 OFFCURVE",
"412.324 380.255 CURVE",
"409.405 423.838 OFFCURVE",
"301.081 416.582 OFFCURVE",
"304 373 CURVE",
"311.049 415.54 OFFCURVE",
"287.049 419.517 OFFCURVE",
"280 376.977 CURVE",
"319.2 376.977 OFFCURVE",
"319.2 440.605 OFFCURVE",
"280 440.605 CURVE",
"320.32 440.605 OFFCURVE",
"320.32 480.372 OFFCURVE",
"280 480.372 CURVE"
);
}
);
width = 705;
},
{
associatedMasterId = "EC64484B-0978-4CB1-9EE9-C40A2D8C4059";
background = {
paths = (
{
closed = 1;
nodes = (
"288 0 LINE SMOOTH",
"303 0 OFFCURVE",
"315 12 OFFCURVE",
"315 27 CURVE SMOOTH",
"315 218 LINE",
"385 218 LINE SMOOTH",
"566 218 OFFCURVE",
"686 289 OFFCURVE",
"686 455 CURVE SMOOTH",
"686 621 OFFCURVE",
"566 700 OFFCURVE",
"385 700 CURVE SMOOTH",
"82 700 LINE SMOOTH",
"67 700 OFFCURVE",
"55 688 OFFCURVE",
"55 673 CURVE SMOOTH",
"55 27 LINE SMOOTH",
"55 12 OFFCURVE",
"67 0 OFFCURVE",
"82 0 CURVE SMOOTH"
);
},
{
closed = 1;
nodes = (
"310 514 LINE",
"380 514 LINE SMOOTH",
"416 514 OFFCURVE",
"426 482 OFFCURVE",
"426 457 CURVE SMOOTH",
"426 418 OFFCURVE",
"401 403 OFFCURVE",
"380 403 CURVE SMOOTH",
"310 403 LINE"
);
}
);
};
hints = (
{
horizontal = 1;
place = "{-2147483648, 0}";
type = Tag;
name = hr00;
}
);
layerId = "3B09C106-71D2-438B-B011-244B89930DEF";
name = "Dec 6 20, 14:56";
paths = (
{
closed = 1;
nodes = (
"288 0 LINE SMOOTH",
"303 0 OFFCURVE",
"315 12 OFFCURVE",
"315 27 CURVE SMOOTH",
"315 218 LINE",
"385 218 LINE SMOOTH",
"566 218 OFFCURVE",
"686 289 OFFCURVE",
"686 455 CURVE SMOOTH",
"686 621 OFFCURVE",
"566 700 OFFCURVE",
"385 700 CURVE SMOOTH",
"82 700 LINE SMOOTH",
"67 700 OFFCURVE",
"55 688 OFFCURVE",
"55 673 CURVE SMOOTH",
"55 27 LINE SMOOTH",
"55 12 OFFCURVE",
"67 0 OFFCURVE",
"82 0 CURVE SMOOTH"
);
},
{
closed = 1;
nodes = (
"310 514 LINE",
"380 514 LINE SMOOTH",
"416 514 OFFCURVE",
"426 482 OFFCURVE",
"426 457 CURVE SMOOTH",
"426 418 OFFCURVE",
"401 403 OFFCURVE",
"380 403 CURVE SMOOTH",
"310 403 LINE"
);
}
);
width = 705;
}
);
leftKerningGroup = I;
unicode = 0050;
userData = {
com.typemytype.robofont.guides = (
{
angle = 0;
isGlobal = 0;
magnetic = 5;
x = 0;
y = 493;
},
{
angle = 0;
isGlobal = 0;
magnetic = 5;
x = 0;
y = 403;
},
{
angle = 0;
isGlobal = 0;
magnetic = 5;
x = 0;
y = 218;
},
{
angle = 0;
isGlobal = 0;
magnetic = 5;
x = 0;
y = 310;
},
{
angle = 0;
isGlobal = 0;
magnetic = 5;
x = 0;
y = 9;
},
{
angle = 0;
isGlobal = 0;
magnetic = 5;
x = 0;
y = 691;
},
{
angle = 90;
isGlobal = 0;
magnetic = 5;
x = 345;
y = 0;
},
{
angle = 90;
isGlobal = 0;
magnetic = 5;
x = 94;
y = 0;
},
{
angle = 90;
isGlobal = 0;
magnetic = 5;
x = 139;
y = 0;
}
);
};
},
{
color = 1;
glyphname = Thorn;
layers = (
{
background = {
paths = (
{
closed = 1;
nodes = (
"288 0 LINE SMOOTH",
"303 0 OFFCURVE",
"315 12 OFFCURVE",
"315 27 CURVE SMOOTH",
"315 119 LINE",
"380 119 LINE SMOOTH",
"566 119 OFFCURVE",
"686 190 OFFCURVE",
"686 356 CURVE SMOOTH",
"686 522 OFFCURVE",
"566 601 OFFCURVE",
"380 601 CURVE",
"315 601 LINE",
"315 673 LINE SMOOTH",
"315 688 OFFCURVE",
"303 700 OFFCURVE",
"288 700 CURVE SMOOTH",
"82 700 LINE",
"67 700 OFFCURVE",
"55 688 OFFCURVE",
"55 673 CURVE SMOOTH",
"55 27 LINE SMOOTH",
"55 12 OFFCURVE",
"67 0 OFFCURVE",
"82 0 CURVE SMOOTH"
);
},
{
closed = 1;
nodes = (
"310 415 LINE",
"380 415 LINE SMOOTH",
"416 415 OFFCURVE",
"426 383 OFFCURVE",
"426 358 CURVE SMOOTH",
"426 319 OFFCURVE",
"401 304 OFFCURVE",
"380 304 CURVE SMOOTH",
"310 304 LINE"
);
}
);
};
hints = (
{
horizontal = 1;
place = "{-2147483648, 0}";
type = Tag;
name = hr00;
}
);
layerId = "EC64484B-0978-4CB1-9EE9-C40A2D8C4059";
paths = (
{
closed = 1;
nodes = (
"366.545 21.53 OFFCURVE",
"379.378 140.53 OFFCURVE",
"300.833 149 CURVE",
"300.833 89 OFFCURVE",
"348.333 89 OFFCURVE",
"348.333 149 CURVE",
"348.6 79 OFFCURVE",
"396.365 79.183 OFFCURVE",
"396.098 149.182 CURVE",
"405.65 78.827 OFFCURVE",
"520.984 94.485 OFFCURVE",
"511.433 164.839 CURVE",
"541.161 102.572 OFFCURVE",
"617 138.779 OFFCURVE",
"587.271 201.047 CURVE",
"649.319 155.45 OFFCURVE",
"705.684 232.151 OFFCURVE",
"643.637 277.748 CURVE",
"711.311 264.29 OFFCURVE",
"723.047 323.307 OFFCURVE",
"655.373 336.765 CURVE",
"723.355 338.305 OFFCURVE",
"722.192 389.642 OFFCURVE",
"654.209 388.101 CURVE",
"710.398 411.847 OFFCURVE",
"665.727 517.551 OFFCURVE",
"609.538 493.805 CURVE",
"634.082 542.354 OFFCURVE",
"496.711 611.8 OFFCURVE",
"472.168 563.252 CURVE",
"476.799 623.073 OFFCURVE",
"376.714 630.821 OFFCURVE",
"372.083 571 CURVE",
"372.083 643 OFFCURVE",
"300.833 643 OFFCURVE",
"300.833 571 CURVE",
"363.859 586.898 OFFCURVE",
"348.026 649.667 OFFCURVE",
"285 633.769 CURVE",
"315.29 671.005 OFFCURVE",
"270.752 707.236 OFFCURVE",
"240.462 670 CURVE",
"240.462 748 OFFCURVE",
"181.038 748 OFFCURVE",
"181.038 670 CURVE",
"162.245 714.168 OFFCURVE",
"66.207 673.304 OFFCURVE",
"85 629.136 CURVE",
"13 629.136 OFFCURVE",
"13 509.506 OFFCURVE",
"85 509.506 CURVE",
"18 509.506 OFFCURVE",
"18 361.963 OFFCURVE",
"85 361.963 CURVE",
"8 361.963 OFFCURVE",
"8 290.185 OFFCURVE",
"85 290.185 CURVE",
"13 290.185 OFFCURVE",
"13 218.407 OFFCURVE",
"85 218.407 CURVE",
"11 218.407 OFFCURVE",
"11 66.877 OFFCURVE",
"85 66.877 CURVE",
"23.753 52.12 OFFCURVE",
"32.637 15.244 OFFCURVE",
"93.885 30 CURVE",
"93.885 -30 OFFCURVE",
"185 -30 OFFCURVE",
"185 30 CURVE",
"185 -38 OFFCURVE",
"228.577 -38 OFFCURVE",
"228.577 30 CURVE"
);
},
{
closed = 1;
nodes = (
"280 406.36 OFFCURVE",
"316 406.36 OFFCURVE",
"316 445 CURVE",
"316 405.8 OFFCURVE",
"364 405.8 OFFCURVE",
"364 445 CURVE",
"360.516 404.831 OFFCURVE",
"400.33 401.378 OFFCURVE",
"403.813 441.547 CURVE",
"373.034 421.086 OFFCURVE",
"425.119 342.737 OFFCURVE",
"455.898 363.199 CURVE",
"420.901 379.577 OFFCURVE",
"384.397 301.575 OFFCURVE",
"419.395 285.197 CURVE",
"407.117 320.058 OFFCURVE",
"376.816 309.386 OFFCURVE",
"389.093 274.525 CURVE",
"388.705 313.723 OFFCURVE",
"335.612 313.198 OFFCURVE",
"336 274 CURVE",
"336 316.56 OFFCURVE",
"304 316.56 OFFCURVE",
"304 274 CURVE",
"331.688 307.42 OFFCURVE",
"307.688 327.304 OFFCURVE",
"280 293.884 CURVE",
"315.84 293.884 OFFCURVE",
"315.84 373.419 OFFCURVE",
"280 373.419 CURVE"
);
}
);
width = 705;
},
{
associatedMasterId = "EC64484B-0978-4CB1-9EE9-C40A2D8C4059";
background = {
paths = (
{
closed = 1;
nodes = (
"288 0 LINE SMOOTH",
"303 0 OFFCURVE",
"315 12 OFFCURVE",
"315 27 CURVE SMOOTH",
"315 119 LINE",
"380 119 LINE SMOOTH",
"566 119 OFFCURVE",
"686 190 OFFCURVE",
"686 356 CURVE SMOOTH",
"686 522 OFFCURVE",
"566 601 OFFCURVE",
"380 601 CURVE",
"315 601 LINE",
"315 673 LINE SMOOTH",
"315 688 OFFCURVE",
"303 700 OFFCURVE",
"288 700 CURVE SMOOTH",
"82 700 LINE",
"67 700 OFFCURVE",
"55 688 OFFCURVE",
"55 673 CURVE SMOOTH",
"55 27 LINE SMOOTH",
"55 12 OFFCURVE",
"67 0 OFFCURVE",
"82 0 CURVE SMOOTH"
);
},
{
closed = 1;
nodes = (
"310 415 LINE",
"380 415 LINE SMOOTH",
"416 415 OFFCURVE",
"426 383 OFFCURVE",
"426 358 CURVE SMOOTH",
"426 319 OFFCURVE",
"401 304 OFFCURVE",
"380 304 CURVE SMOOTH",
"310 304 LINE"
);
}
);
};
hints = (
{
horizontal = 1;
place = "{-2147483648, 0}";
type = Tag;
name = hr00;
}
);
layerId = "803FBE5F-9462-4F80-8C24-2CFED0DA7B84";
name = "Dec 6 20, 14:56";
paths = (
{
closed = 1;
nodes = (
"288 0 LINE SMOOTH",
"303 0 OFFCURVE",
"315 12 OFFCURVE",
"315 27 CURVE SMOOTH",
"315 119 LINE",
"380 119 LINE SMOOTH",
"566 119 OFFCURVE",
"686 190 OFFCURVE",
"686 356 CURVE SMOOTH",
"686 522 OFFCURVE",
"566 601 OFFCURVE",
"380 601 CURVE",
"315 601 LINE",
"315 673 LINE SMOOTH",
"315 688 OFFCURVE",
"303 700 OFFCURVE",
"288 700 CURVE SMOOTH",
"82 700 LINE",
"67 700 OFFCURVE",
"55 688 OFFCURVE",
"55 673 CURVE SMOOTH",
"55 27 LINE SMOOTH",
"55 12 OFFCURVE",
"67 0 OFFCURVE",
"82 0 CURVE SMOOTH"
);
},
{
closed = 1;
nodes = (
"310 415 LINE",
"380 415 LINE SMOOTH",
"416 415 OFFCURVE",
"426 383 OFFCURVE",
"426 358 CURVE SMOOTH",
"426 319 OFFCURVE",
"401 304 OFFCURVE",
"380 304 CURVE SMOOTH",
"310 304 LINE"
);
}
);
width = 705;
}
);
leftKerningGroup = I;
unicode = 00DE;
userData = {
com.typemytype.robofont.guides = (
{
angle = 0;
isGlobal = 0;
magnetic = 5;
x = 0;
y = 119;
},
{
angle = 0;
isGlobal = 0;
magnetic = 5;
x = 0;
y = 601;
},
{
angle = 0;
isGlobal = 0;
magnetic = 5;
x = 0;
y = 570;
},
{
angle = 0;
isGlobal = 0;
magnetic = 5;
x = 0;
y = 350;
}
);
};
},
{
color = 1;
glyphname = Q;
layers = (
{
background = {
paths = (
{
closed = 1;
nodes = (
"694 -65 LINE",
"706 -65 OFFCURVE",
"716 -55 OFFCURVE",
"714 -43 CURVE SMOOTH",
"714 -40 OFFCURVE",
"712 -36 OFFCURVE",
"711 -34 CURVE",
"632 79 LINE",
"675 123 OFFCURVE",
"700 184 OFFCURVE",
"704 260 CURVE SMOOTH",
"706 314 OFFCURVE",
"706 379 OFFCURVE",
"704 436 CURVE SMOOTH",
"697 611 OFFCURVE",
"566 710 OFFCURVE",
"370 710 CURVE SMOOTH",
"174 710 OFFCURVE",
"43 611 OFFCURVE",
"36 436 CURVE SMOOTH",
"34 379 OFFCURVE",
"34 314 OFFCURVE",
"36 260 CURVE SMOOTH",
"44 81 OFFCURVE",
"174 -10 OFFCURVE",
"370 -10 CURVE SMOOTH",
"390 -10 OFFCURVE",
"410 -9 OFFCURVE",
"428 -7 CURVE",
"456 -42 LINE",
"462 -50 OFFCURVE",
"473 -65 OFFCURVE",
"498 -65 CURVE"
);
},
{
closed = 1;
nodes = (
"326 185 OFFCURVE",
"298 210 OFFCURVE",
"296 266 CURVE SMOOTH",
"294 323 OFFCURVE",
"294 379 OFFCURVE",
"296 434 CURVE SMOOTH",
"298 490 OFFCURVE",
"327 515 OFFCURVE",
"370 515 CURVE SMOOTH",
"413 515 OFFCURVE",
"442 490 OFFCURVE",
"444 434 CURVE SMOOTH",
"446 379 OFFCURVE",
"446 323 OFFCURVE",
"444 266 CURVE SMOOTH",
"442 210 OFFCURVE",
"414 185 OFFCURVE",
"370 185 CURVE SMOOTH"
);
}
);
};
hints = (
{
horizontal = 1;
place = "{-2147483648, 0}";
type = Tag;
name = hr01;
}
);
layerId = "EC64484B-0978-4CB1-9EE9-C40A2D8C4059";
paths = (
{
closed = 1;
nodes = (
"745.844 19.196 OFFCURVE",
"687.405 75.099 OFFCURVE",
"635.561 20.902 CURVE",
"694.743 30.775 OFFCURVE",
"679.7 120.955 OFFCURVE",
"620.518 111.083 CURVE",
"691.697 81.713 OFFCURVE",
"742.933 205.887 OFFCURVE",
"671.754 235.257 CURVE",
"739.731 233.478 OFFCURVE",
"743.347 371.685 OFFCURVE",
"675.371 373.464 CURVE",
"739.359 374.707 OFFCURVE",
"738.422 422.904 OFFCURVE",
"674.434 421.661 CURVE",
"726.653 436.913 OFFCURVE",
"683.017 586.309 OFFCURVE",
"630.799 571.057 CURVE",
"684.874 620.097 OFFCURVE",
"649.835 658.735 OFFCURVE",
"595.759 609.695 CURVE",
"635.964 665.772 OFFCURVE",
"600.061 691.513 OFFCURVE",
"559.856 635.437 CURVE",
"585.342 696.317 OFFCURVE",
"515.047 725.744 OFFCURVE",
"489.561 664.864 CURVE",
"501.3 727.778 OFFCURVE",
"434.172 740.303 OFFCURVE",
"422.433 677.389 CURVE",
"423.903 740.372 OFFCURVE",
"343.281 742.253 OFFCURVE",
"341.811 679.27 CURVE",
"330.912 748.416 OFFCURVE",
"239.576 734.02 OFFCURVE",
"250.474 664.874 CURVE",
"224.991 732.213 OFFCURVE",
"172.315 712.279 OFFCURVE",
"197.798 644.939 CURVE",
"153.256 708.97 OFFCURVE",
"90.682 665.442 OFFCURVE",
"135.225 601.411 CURVE",
"80.189 629.081 OFFCURVE",
"14.417 498.258 OFFCURVE",
"69.453 470.588 CURVE",
"1.544 474.112 OFFCURVE",
"-3.222 382.285 OFFCURVE",
"64.687 378.761 CURVE",
"4.695 377.805 OFFCURVE",
"6.762 248.049 OFFCURVE",
"66.754 249.004 CURVE",
"-8.756 233.93 OFFCURVE",
"4.542 167.319 OFFCURVE",
"80.052 182.393 CURVE",
"40.133 151.626 OFFCURVE",
"126.496 39.576 OFFCURVE",
"166.415 70.344 CURVE",
"140.7 13.928 OFFCURVE",
"213.346 -19.185 OFFCURVE",
"239.061 37.231 CURVE",
"231.117 -40.363 OFFCURVE",
"391.18 -56.751 OFFCURVE",
"399.124 20.844 CURVE",
"362.27 -45.623 OFFCURVE",
"443.146 -90.466 OFFCURVE",
"480 -24 CURVE",
"474.604 -87.772 OFFCURVE",
"604.604 -98.772 OFFCURVE",
"610 -35 CURVE"
);
},
{
closed = 1;
nodes = (
"392.889 195.936 OFFCURVE",
"303.041 246.173 OFFCURVE",
"280.152 205.237 CURVE",
"325.053 212.594 OFFCURVE",
"309.995 304.49 OFFCURVE",
"265.094 297.133 CURVE",
"317.594 297.382 OFFCURVE",
"317.192 381.76 OFFCURVE",
"264.693 381.51 CURVE",
"313.497 377.136 OFFCURVE",
"322.185 474.079 OFFCURVE",
"273.381 478.453 CURVE",
"310.294 449.522 OFFCURVE",
"351.564 502.177 OFFCURVE",
"314.651 531.108 CURVE",
"323.154 479.302 OFFCURVE",
"398.52 491.672 OFFCURVE",
"390.017 543.478 CURVE",
"366.189 502.272 OFFCURVE",
"427.244 466.966 OFFCURVE",
"451.072 508.173 CURVE",
"410.287 486.47 OFFCURVE",
"425.33 458.2 OFFCURVE",
"466.115 479.903 CURVE",
"416.915 468.97 OFFCURVE",
"423.874 437.655 OFFCURVE",
"473.074 448.588 CURVE",
"421.289 447.357 OFFCURVE",
"423.71 345.423 OFFCURVE",
"475.496 346.653 CURVE",
"432.824 348.214 OFFCURVE",
"428.96 242.536 OFFCURVE",
"471.632 240.975 CURVE",
"429.36 264.342 OFFCURVE",
"393.182 198.894 OFFCURVE",
"435.454 175.527 CURVE",
"418.913 216.407 OFFCURVE",
"370.968 197.008 OFFCURVE",
"387.509 156.127 CURVE"
);
}
);
width = 742;
},
{
associatedMasterId = "EC64484B-0978-4CB1-9EE9-C40A2D8C4059";
background = {
paths = (
{
closed = 1;
nodes = (
"694 -65 LINE",
"706 -65 OFFCURVE",
"716 -55 OFFCURVE",
"714 -43 CURVE SMOOTH",
"714 -40 OFFCURVE",
"712 -36 OFFCURVE",
"711 -34 CURVE",
"632 79 LINE",
"675 123 OFFCURVE",
"700 184 OFFCURVE",
"704 260 CURVE SMOOTH",
"706 314 OFFCURVE",
"706 379 OFFCURVE",
"704 436 CURVE SMOOTH",
"697 611 OFFCURVE",
"566 710 OFFCURVE",
"370 710 CURVE SMOOTH",
"174 710 OFFCURVE",
"43 611 OFFCURVE",
"36 436 CURVE SMOOTH",
"34 379 OFFCURVE",
"34 314 OFFCURVE",
"36 260 CURVE SMOOTH",
"44 81 OFFCURVE",
"174 -10 OFFCURVE",
"370 -10 CURVE SMOOTH",
"390 -10 OFFCURVE",
"410 -9 OFFCURVE",
"428 -7 CURVE",
"456 -42 LINE",
"462 -50 OFFCURVE",
"473 -65 OFFCURVE",
"498 -65 CURVE"
);
},
{
closed = 1;
nodes = (
"326 185 OFFCURVE",
"298 210 OFFCURVE",
"296 266 CURVE SMOOTH",
"294 323 OFFCURVE",
"294 379 OFFCURVE",
"296 434 CURVE SMOOTH",
"298 490 OFFCURVE",
"327 515 OFFCURVE",
"370 515 CURVE SMOOTH",
"413 515 OFFCURVE",
"442 490 OFFCURVE",
"444 434 CURVE SMOOTH",
"446 379 OFFCURVE",
"446 323 OFFCURVE",
"444 266 CURVE SMOOTH",
"442 210 OFFCURVE",
"414 185 OFFCURVE",
"370 185 CURVE SMOOTH"
);
}
);
};
hints = (
{
horizontal = 1;
place = "{-2147483648, 0}";
type = Tag;
name = hr01;
}
);
layerId = "E59E87DF-E080-4FBC-881B-DE56842DE518";
name = "Dec 6 20, 14:56";
paths = (
{
closed = 1;
nodes = (
"694 -65 LINE",
"706 -65 OFFCURVE",
"716 -55 OFFCURVE",
"714 -43 CURVE SMOOTH",
"714 -40 OFFCURVE",
"712 -36 OFFCURVE",
"711 -34 CURVE",
"632 79 LINE",
"675 123 OFFCURVE",
"700 184 OFFCURVE",
"704 260 CURVE SMOOTH",
"706 314 OFFCURVE",
"706 379 OFFCURVE",
"704 436 CURVE SMOOTH",
"697 611 OFFCURVE",
"566 710 OFFCURVE",
"370 710 CURVE SMOOTH",
"174 710 OFFCURVE",
"43 611 OFFCURVE",
"36 436 CURVE SMOOTH",
"34 379 OFFCURVE",
"34 314 OFFCURVE",
"36 260 CURVE SMOOTH",
"44 81 OFFCURVE",
"174 -10 OFFCURVE",
"370 -10 CURVE SMOOTH",
"390 -10 OFFCURVE",
"410 -9 OFFCURVE",
"428 -7 CURVE",
"456 -42 LINE",
"462 -50 OFFCURVE",
"473 -65 OFFCURVE",
"498 -65 CURVE"
);
},
{
closed = 1;
nodes = (
"326 185 OFFCURVE",
"298 210 OFFCURVE",
"296 266 CURVE SMOOTH",
"294 323 OFFCURVE",
"294 379 OFFCURVE",
"296 434 CURVE SMOOTH",
"298 490 OFFCURVE",
"327 515 OFFCURVE",
"370 515 CURVE SMOOTH",
"413 515 OFFCURVE",
"442 490 OFFCURVE",
"444 434 CURVE SMOOTH",
"446 379 OFFCURVE",
"446 323 OFFCURVE",
"444 266 CURVE SMOOTH",
"442 210 OFFCURVE",
"414 185 OFFCURVE",
"370 185 CURVE SMOOTH"
);
}
);
width = 742;
}
);
leftKerningGroup = O;
rightKerningGroup = O;
unicode = 0051;
userData = {
com.typemytype.robofont.guides = (
{
angle = 0;
isGlobal = 0;
magnetic = 5;
x = 0;
y = 710;
},
{
angle = 0;
isGlobal = 0;
magnetic = 5;
x = 0;
y = "-10";
},
{
angle = 0;
isGlobal = 0;
magnetic = 5;
x = 0;
y = "-56";
},
{
angle = 90;
isGlobal = 0;
magnetic = 5;
x = 82;
y = 0;
},
{
angle = 90;
isGlobal = 0;
magnetic = 5;
x = 750;
y = 0;
},
{
angle = 90;
isGlobal = 0;
magnetic = 5;
x = 580;
y = 0;
}
);
};
},
